<?xml version="1.0" encoding="UTF-8"?>
<svg xmlns="http://www.w3.org/2000/svg" version="1.1" viewBox="0 0 1000 1000">
  <!-- Generator: Adobe Illustrator 29.7.1, SVG Export Plug-In . SVG Version: 2.1.1 Build 8)  -->
  <defs>
    <style>
      .st0, .st1, .st2 {
        fill: #fff;
      }

      .st3 {
        fill: #ff171d;
      }

      .st1 {
        font-size: 31.6px;
      }

      .st1, .st4, .st2 {
        font-family: BABAPROFONT-Bold, 'BABAPRO FONT';
        font-weight: 700;
      }

      .st5 {
        fill: #0d2549;
        stroke: #231f20;
        stroke-miterlimit: 10;
        stroke-width: .25px;
      }

      .st6 {
        display: none;
      }

      .st4 {
        font-size: 13.37px;
      }

      .st2 {
        font-size: 89.91px;
      }
    </style>
  </defs>
  <g id="Layer_4" class="st6">
    <rect class="st5" width="1000" height="1001"/>
  </g>
  <g id="Layer_2">
    <path class="st0" d="M99.36,475.89c-.23.84-.36,1.67-.42,2.51,0,.01,0,.02,0,.03,0,.58,0,1.15.02,1.72,1.09,145.55,81.71,280.59,210.23,350.29.37.21.72.4,1.1.59.81.4,1.68.72,2.58.97,7.67,2.06,15.56-2.49,17.62-10.17,1.66-6.2-1-12.54-6.12-15.83-.6-.33-1.2-.64-1.8-.97-5.1-2.76-10.14-5.62-15.08-8.6l18.74-69.94c16.82-1.54,31.66-13.33,36.28-30.59.9-3.35,1.36-6.72,1.42-10.04.27-15.29-7.99-29.6-21.37-37.01-2.91-1.61-6.06-2.89-9.41-3.79-22.14-5.93-44.91,7.21-50.85,29.36-4.62,17.26,2.35,34.89,16.13,44.63l-16.28,60.74c-96.56-69.26-155.86-181.21-157.81-301.1-.22-5.42-3.91-10.3-9.42-11.77-6.78-1.82-13.75,2.21-15.57,8.99ZM308.53,681.42c2.06-7.68,9.94-12.24,17.62-10.18,7.68,2.06,12.23,9.95,10.17,17.63-2.06,7.67-9.94,12.23-17.62,10.17s-12.23-9.95-10.17-17.62Z"/>
    <path class="st0" d="M536.01,707.16c-9.72,1.7-18.6,6.76-25,14.26-1.03,1.2-1.99,2.47-2.88,3.8l-85.05-22.79-29.1,108.61c-10.47,1.11-20.11,6.34-26.75,14.44-3.5,4.27-6.17,9.34-7.69,15.02-1.11,4.15-1.53,8.33-1.32,12.41.86,16.88,12.42,32.01,29.63,36.62,17,4.56,34.39-2.55,43.66-16.42,2.36-3.55,4.2-7.54,5.37-11.89,1.47-5.48,1.72-11,.93-16.27-1.58-10.57-7.36-20.15-16.04-26.46l21.65-80.81,57.65,15.45c1.69,17.05,13.7,32.06,31.22,36.76,6.3,1.69,12.65,1.86,18.67.75,9.7-1.8,18.52-6.95,24.85-14.52,3.83-4.59,6.76-10.06,8.41-16.22,6.06-22.61-7.36-45.86-29.98-51.92-6.15-1.65-12.35-1.85-18.24-.83ZM412.11,854.58c-.36,1.34-.9,2.6-1.59,3.72-3.14,5.21-9.37,8-15.55,6.57l-.13-.03c-.12-.02-.24-.05-.36-.09-.24-.06-.47-.14-.71-.21h0c-5.93-1.93-9.83-7.39-9.95-13.39-.03-1.32.13-2.68.49-4.02,2.06-7.68,9.94-12.23,17.62-10.17,7.68,2.06,12.23,9.94,10.17,17.62ZM550.78,736.65c2.14,1.31,3.86,3.13,5.04,5.25,1.77,3.17,2.37,6.99,1.36,10.76s-3.43,6.79-6.55,8.64c-3.22,1.92-7.18,2.58-11.08,1.53-3.02-.81-5.56-2.53-7.4-4.78-1-1.22-1.8-2.6-2.35-4.08-1.02-2.71-1.23-5.76-.42-8.76,1.69-6.31,7.33-10.51,13.54-10.66,1.34-.03,2.72.12,4.08.49s2.63.92,3.78,1.62Z"/>
    <path class="st0" d="M127.39,328.44c-20.65-1.06-39.94,12.38-45.5,33.15-5.51,20.55,4.22,41.62,22.27,51.17,2.92,1.55,6.06,2.79,9.4,3.68,4.95,1.33,9.92,1.77,14.76,1.42,13.77-.97,26.41-8.32,34.08-19.81l41.87,11.22,45.03,77.99-8.38,31.28c-17.12,1.49-32.25,13.47-36.96,31.02-6.01,22.44,7.3,45.5,29.75,51.51,22.44,6.01,45.5-7.3,51.51-29.74,2-7.45,1.87-14.96-.02-21.9-1.92-7.02-5.62-13.46-10.76-18.63-1.74-1.76-3.66-3.38-5.72-4.82l11.47-42.79-56.94-98.63-53.39-14.31c-.91-13.93-8.32-26.73-19.96-34.43-3.93-2.6-8.34-4.62-13.15-5.91-3.12-.84-6.25-1.32-9.35-1.48ZM258.49,564.17c-2.06,7.68-9.95,12.23-17.62,10.17-7.68-2.06-12.24-9.94-10.18-17.62,2.06-7.67,9.95-12.23,17.63-10.17s12.23,9.95,10.17,17.62ZM138.86,368.81c.82,2.54.93,5.33.19,8.1s-2.18,5.04-4.11,6.82h0c-3.51,3.26-8.55,4.69-13.51,3.36-4.88-1.31-8.49-4.97-9.95-9.43,0-.01-.01-.03-.02-.05-.83-2.55-.95-5.36-.21-8.14s2.25-5.15,4.25-6.95c.07-.06.13-.12.2-.18h0c3.48-3.04,8.36-4.34,13.17-3.05,4.91,1.32,8.54,5.02,9.98,9.53Z"/>
    <path class="st0" d="M266.26,150.43c-.86.61-1.7,1.23-2.55,1.84-.69.51-1.38,1.02-2.07,1.53-.83.62-1.66,1.24-2.5,1.87-6.91,5.2-13.67,10.63-20.25,16.29-9.18,7.89-18.02,16.19-26.47,24.91-.9.91-1.79,1.84-2.66,2.77-4.52,4.75-8.94,9.61-13.23,14.59h0c-4.67,5.41-9.21,10.97-13.6,16.65-9.44,12.2-18.21,25-26.25,38.38-.61,1.01-1.21,2.01-1.81,3.04h0c-.46.79-.93,1.56-1.38,2.35,0,.02-.02.04-.03.07-.22.51-.4,1.04-.55,1.59-1.65,6.15,2.01,12.48,8.16,14.13,2.6.7,5.24.46,7.53-.54,1.08-.46,2.09-1.09,2.98-1.87.67-.56,1.26-1.2,1.78-1.9h0c.41-.73.83-1.46,1.26-2.18,0-.02.02-.04.03-.06,6.32-11.03,13.17-21.66,20.49-31.88l64.29,111.36,13.5,3.62c1.38,17.73,13.72,33.48,31.88,38.34,4.33,1.16,8.67,1.62,12.92,1.46.55-.03,1.08-.06,1.61-.11l-11.07,41.3,76.6,132.68c-3.72,4.46-6.55,9.79-8.15,15.77-5.93,22.14,7.2,44.89,29.34,50.82,5.98,1.6,12.01,1.82,17.74.82,9.74-1.66,18.61-6.79,24.93-14.38,3.72-4.46,6.55-9.79,8.15-15.78,5.93-22.13-7.21-44.89-29.35-50.82-5.98-1.6-12.01-1.82-17.74-.83l-70.64-122.35,18.52-69.11c2.55-9.51,1.72-19.15-1.78-27.61-4.95-12-15.23-21.65-28.75-25.27-18.15-4.86-36.71,2.6-46.78,17.27-.3.44-.6.89-.9,1.34l-65.23-112.99c.99-1.15,1.97-2.32,2.97-3.46l.25-.28c1.26-1.43,2.52-2.86,3.79-4.27,6.69-7.43,13.65-14.57,20.88-21.41.58-.54,1.14-1.08,1.74-1.62.82-.79,1.66-1.56,2.5-2.33.68-.63,1.36-1.26,2.05-1.88.4-.37.81-.74,1.22-1.11.08-.07.16-.14.24-.21,2.47-2.24,4.97-4.44,7.5-6.61,6.31-5.43,12.8-10.65,19.44-15.67l375.75,650.82c-49.75,21.54-104.37,32.53-160.34,30.94-.23,0-.46,0-.68-.02-.03,0-.05-.01-.08,0-.63-.01-1.25-.04-1.88-.06-.02,0-.04,0-.06,0-6.1.27-11.59,4.44-13.26,10.66-2.01,7.49,2.27,15.17,9.6,17.45.19.07.38.12.57.17.86.23,1.71.38,2.56.44.03,0,.05,0,.08,0,.49.02.98.04,1.48.04.06,0,.13,0,.19,0,61.52,1.69,121.49-10.9,175.8-35.41,8.76-3.95,17.36-8.21,25.8-12.77l-13.8-23.9L300.4,152.11l-10.19-17.64c-8.18,5.03-16.16,10.35-23.96,15.96ZM429.25,599.98c1.85,3.19,2.47,7.08,1.44,10.92-2.06,7.68-9.95,12.23-17.63,10.17-3.84-1.03-6.9-3.51-8.73-6.71-1.84-3.18-2.47-7.07-1.44-10.92,2.06-7.67,9.95-12.23,17.62-10.17,3.84,1.03,6.9,3.52,8.74,6.71ZM319.69,349.72c7.68,2.06,12.23,9.94,10.17,17.62-2.06,7.68-9.94,12.23-17.62,10.17s-12.23-9.94-10.17-17.62c2.06-7.68,9.94-12.23,17.62-10.17Z"/>
  </g>
  <g id="Layer_3">
    <path class="st3" d="M905.53,619.62c1.05-3.92,2.04-7.84,2.96-11.76,23.69-100.12,7.57-200.88-38.46-285.13-50.87-93.18-138.33-166.17-248.97-195.82-103.27-27.67-207.93-12.53-295.14,34.54l41.78,72.36c56.05-30.16,121.14-43.7,187.39-36.06,1.06.13,2.14.25,3.2.39,3.53.45,7.06.96,10.6,1.53,10.65,1.73,21.3,4,31.94,6.85,88.45,23.7,158.21,82.32,198.42,157.06l-21.48,12.4c-36.97-69.87-101.8-124.76-184.19-146.84-74.98-20.09-150.95-9.38-214.49,24.4l38.28,66.29c46.86-24.25,102.56-31.78,157.53-17.05,61.88,16.58,110.46,58.04,137.85,110.73l-20.7,11.95c-24.19-47.21-67.5-84.4-122.78-99.21-14.81-3.97-29.68-6.11-44.37-6.58-.8-.03-1.6-.05-2.41-.07-32.79-.74-64.64,6.9-92.9,21.39l298.45,516.94c84.37-51.99,149.81-135.05,177.48-238.32Z"/>
  </g>
  <g id="Layer_1" class="st6">
    <g>
      <text class="st2" transform="translate(632.04 595.44)"><tspan x="0" y="0">Bit</tspan></text>
      <rect x="631.5" y="605.18" width="162.86" height="34.03" rx="3.67" ry="3.67"/>
      <text class="st1" transform="translate(638.11 632.44)"><tspan x="0" y="0">Med art</tspan></text>
      <text class="st4" transform="translate(673.61 652.14)"><tspan x="0" y="0">service co., ltd</tspan></text>
      <text class="st2" transform="translate(632.04 520.66)"><tspan x="0" y="0">Byte</tspan></text>
    </g>
  </g>
</svg>