<?xml version="1.0" encoding="UTF-8"?>
<svg xmlns="http://www.w3.org/2000/svg" version="1.1" viewBox="0 0 500 500">
  <!-- Generator: Adobe Illustrator 29.7.1, SVG Export Plug-In . SVG Version: 2.1.1 Build 8)  -->
  <defs>
    <style>
      .st0 {
        fill: #f6c791;
      }

      .st1 {
        fill: #d7beeb;
      }

      .st2 {
        fill: #b98fd9;
      }

      .st3 {
        fill: #ad4df5;
      }

      .st4 {
        fill: #f6a64a;
      }

      .st5 {
        fill: #662d90;
      }

      .st6 {
        fill: #555457;
      }

      .st7 {
        stroke-width: 2px;
      }

      .st7, .st8 {
        fill: none;
        stroke: #f6921e;
        stroke-linecap: round;
        stroke-linejoin: round;
      }

      .st9 {
        fill: #4d4d4d;
      }

      .st10, .st11 {
        fill: #fff;
      }

      .st12 {
        fill: #9140cc;
      }

      .st13 {
        fill: #f6921e;
      }

      .st14 {
        fill: #d6d0e2;
      }

      .st15 {
        fill: #808285;
      }

      .st16 {
        fill: #6d6e71;
      }

      .st17 {
        fill: #f1f1f1;
      }

      .st18 {
        fill: #a348e6;
      }

      .st19 {
        fill: #dbdbdb;
      }

      .st20 {
        fill: #cbcbcb;
      }

      .st21 {
        fill: #a8a8a8;
      }

      .st22 {
        fill: #939598;
      }

      .st23 {
        fill: #58595b;
      }

      .st24 {
        fill: #919191;
      }

      .st25 {
        display: none;
      }

      .st26 {
        fill: #c9a3e6;
      }

      .st27 {
        fill: #f6d5af;
      }

      .st28 {
        fill: #f6b871;
      }

      .st29 {
        fill: #7d37b0;
      }

      .st30 {
        fill: #414042;
      }

      .st31 {
        fill: #696969;
      }

      .st8 {
        stroke-width: 4px;
      }

      .st32 {
        fill: gray;
      }

      .st33 {
        fill: #a76fd1;
      }

      .st34 {
        fill: #8540b8;
      }

      .st11 {
        opacity: .26;
      }
    </style>
  </defs>
  <g id="BACKGROUND" class="st25">
    <rect class="st14" width="500" height="500"/>
  </g>
  <g id="OBJECTS">
    <path class="st5" d="M75.31,118.33c.23-.37.45-.73.66-1.11.03-.05.06-.1.08-.15.19-.35.38-.7.57-1.05.05-.1.1-.2.14-.29.15-.31.31-.62.45-.93.08-.17.15-.34.22-.51.11-.24.22-.49.32-.73.1-.25.2-.5.3-.75.07-.17.13-.34.2-.51.12-.32.23-.65.34-.98.03-.1.07-.21.1-.31.12-.38.24-.76.34-1.15.02-.05.03-.11.05-.16.11-.41.22-.83.32-1.25,0-.03.01-.06.02-.09.02-.07.04-.15.05-.22l8.93-1.18v-12.39l-8.93-1.18c-.02-.07-.04-.15-.05-.22,0-.03-.01-.06-.02-.09-.1-.42-.2-.83-.32-1.25-.02-.05-.03-.11-.05-.16-.11-.38-.22-.77-.34-1.15-.03-.1-.07-.21-.1-.31-.11-.33-.22-.65-.34-.98-.06-.17-.13-.34-.2-.51-.1-.25-.19-.5-.3-.75-.1-.25-.21-.49-.32-.73-.07-.17-.15-.34-.22-.51-.14-.31-.3-.62-.45-.93-.05-.1-.1-.2-.14-.29-.18-.35-.37-.7-.57-1.05-.03-.05-.06-.1-.08-.15-.21-.37-.43-.74-.66-1.11-.02-.03-.03-.05-.05-.08-.04-.07-.08-.13-.12-.2l5.48-7.15-8.76-8.76-7.15,5.48c-.07-.04-.13-.08-.2-.12-.02-.02-.05-.03-.07-.04-.37-.23-.74-.45-1.11-.66-.05-.03-.1-.05-.15-.08-.35-.2-.7-.39-1.05-.57-.09-.05-.19-.09-.29-.14-.31-.15-.62-.31-.93-.45-.17-.08-.33-.15-.5-.22-.25-.11-.49-.22-.74-.32-.25-.1-.5-.2-.75-.29-.17-.07-.34-.14-.52-.2-.32-.12-.65-.23-.97-.34-.11-.03-.21-.07-.32-.11-.38-.12-.76-.23-1.14-.34-.06-.02-.11-.03-.17-.05-.41-.11-.83-.22-1.24-.32-.03,0-.06-.02-.09-.02-.07-.02-.15-.04-.22-.05l-1.18-8.93h-12.39l-1.18,8.93c-.07.02-.15.04-.22.05-.03,0-.06.01-.09.02-.42.1-.83.2-1.25.32-.05.01-.11.03-.16.05-.38.11-.77.22-1.15.34-.1.03-.21.07-.31.1-.33.11-.65.22-.98.34-.17.06-.34.13-.51.2-.25.1-.5.19-.75.3-.25.1-.49.21-.73.32-.17.07-.34.15-.51.22-.31.14-.62.3-.93.45-.1.05-.2.1-.29.15-.35.18-.7.37-1.05.57-.05.03-.1.06-.15.08-.37.21-.74.43-1.1.66-.03.02-.05.03-.08.05-.07.04-.13.08-.2.12l-7.15-5.48-8.76,8.76,5.48,7.15c-.04.07-.08.13-.12.2-.02.02-.03.05-.05.07-.23.37-.45.73-.66,1.11-.03.05-.05.1-.08.15-.2.35-.39.7-.57,1.05-.05.1-.1.19-.14.29-.15.31-.31.62-.45.93-.08.17-.15.33-.22.5-.11.25-.22.49-.32.74-.1.25-.2.5-.29.75-.07.17-.14.34-.2.51-.12.32-.23.65-.34.97-.03.1-.07.21-.11.31-.12.38-.23.76-.34,1.14-.02.06-.03.11-.05.17-.11.41-.22.83-.32,1.24,0,.03-.02.06-.02.09-.02.07-.04.15-.05.22l-8.93,1.18v12.39l8.93,1.18c.02.07.04.15.05.22,0,.03.01.06.02.09.1.42.2.83.32,1.24.02.06.03.11.05.17.11.38.22.76.34,1.14.03.1.07.21.11.31.11.33.22.65.34.97.06.17.13.34.2.51.1.25.19.5.29.75.1.25.21.49.32.74.07.17.15.34.22.5.14.31.3.62.45.93.05.1.09.19.14.29.18.35.37.71.57,1.05.03.05.05.1.08.15.21.37.43.74.66,1.11.02.02.03.05.05.07.04.07.08.13.12.2l-5.48,7.15,8.76,8.76,7.15-5.48c.06.04.13.08.2.12.03.02.05.03.08.05.36.23.73.45,1.1.66.05.03.1.06.15.08.35.19.7.38,1.05.57.1.05.2.1.29.15.31.15.62.31.93.45.17.08.34.15.51.22.24.11.49.22.73.32.25.1.5.2.75.3.17.07.34.13.51.2.32.12.65.23.98.34.1.03.21.07.31.1.38.12.76.24,1.15.34.05.02.11.03.16.05.41.11.83.22,1.25.32.03,0,.06.01.09.02.07.02.15.04.22.05l1.18,8.93h12.39l1.18-8.93c.07-.02.15-.04.22-.05.03,0,.06-.01.09-.02.42-.1.83-.2,1.24-.32.06-.02.11-.03.17-.05.38-.11.76-.22,1.14-.34.11-.03.21-.07.32-.11.33-.11.65-.22.97-.34.17-.06.34-.13.52-.2.25-.1.5-.19.75-.29.25-.1.49-.21.74-.32.17-.07.34-.15.5-.22.31-.14.62-.3.93-.45.1-.05.19-.09.29-.14.35-.18.71-.37,1.05-.57.05-.03.1-.05.15-.08.37-.21.74-.43,1.11-.66.02-.02.05-.03.07-.04.07-.04.13-.08.2-.12l7.15,5.48,8.76-8.76-5.48-7.15c.04-.06.08-.13.12-.2.02-.03.03-.05.05-.08ZM27.24,102.71c-.02-.16-.03-.33-.04-.5-.01-.15-.03-.31-.03-.46-.02-.32-.02-.65-.02-.98s0-.65.02-.98c0-.15.02-.31.03-.46.01-.17.02-.33.04-.5.02-.19.04-.39.07-.58.02-.12.03-.25.05-.37.03-.21.07-.42.11-.63.02-.11.04-.21.06-.32.04-.21.09-.42.14-.63.02-.1.05-.21.07-.31.05-.2.11-.4.16-.6.03-.11.06-.22.09-.33.06-.19.12-.37.18-.55.04-.13.08-.25.13-.38.06-.16.12-.33.19-.49.06-.14.11-.29.17-.43.06-.14.12-.28.18-.42.07-.16.14-.32.21-.47.06-.12.12-.24.18-.36.09-.17.17-.34.26-.51.06-.1.11-.2.17-.31.1-.18.2-.36.31-.54.06-.09.11-.18.17-.28.11-.18.23-.36.34-.54.06-.09.13-.18.19-.27.12-.17.24-.35.37-.51.07-.1.15-.2.23-.3.12-.15.24-.31.36-.46.11-.13.22-.26.33-.38.1-.12.2-.23.3-.35.22-.24.44-.48.67-.71.23-.23.47-.46.71-.67.11-.1.23-.2.35-.3.13-.11.25-.22.38-.33.15-.12.31-.24.46-.36.1-.08.2-.15.3-.23.17-.13.34-.25.52-.37.09-.06.18-.13.27-.19.18-.12.36-.23.54-.35.09-.06.18-.12.27-.17.18-.11.36-.21.54-.31.1-.06.2-.11.3-.17.17-.09.34-.18.52-.26.12-.06.24-.12.36-.18.16-.07.32-.15.48-.22.14-.06.28-.12.42-.18.14-.06.29-.11.43-.17.16-.06.32-.13.49-.18.13-.04.25-.09.38-.13.18-.06.37-.12.55-.18.11-.03.23-.06.34-.1.2-.06.4-.11.6-.16.11-.03.21-.05.32-.07.21-.05.41-.1.62-.14.11-.02.22-.04.32-.06.21-.04.41-.07.62-.1.12-.02.25-.03.38-.05.19-.02.38-.05.58-.07.17-.02.33-.03.5-.04.15-.01.31-.03.46-.03.32-.02.65-.02.98-.02h0c.33,0,.65,0,.98.02.15,0,.31.02.46.03.17.01.33.02.5.04.19.02.39.05.58.07.12.02.25.03.37.05.21.03.42.07.62.11.11.02.22.04.32.06.21.04.42.09.63.14.1.02.21.05.31.07.2.05.4.11.6.16.11.03.22.06.33.09.19.06.37.12.55.18.12.04.25.08.37.13.16.06.33.12.49.19.14.06.28.11.42.17.14.06.28.12.42.18.16.07.32.14.48.21.12.06.24.12.36.18.17.09.34.17.51.26.1.06.21.11.31.17.18.1.36.2.54.31.09.06.18.12.28.17.18.11.36.23.54.34.09.06.18.13.27.19.17.12.34.24.51.36.1.08.2.16.3.23.11.09.22.17.33.26.04.03.08.06.12.1.13.11.26.22.39.33.11.1.23.19.34.3.24.22.48.44.71.67.23.23.46.47.67.71.1.11.2.23.3.35.11.13.22.25.33.38.12.15.24.3.36.46.08.1.16.2.23.3.13.17.25.34.37.51.06.09.13.18.19.27.12.18.23.36.35.54.06.09.12.18.17.27.11.18.21.36.31.54.06.1.12.2.17.3.09.17.18.34.26.52.06.12.12.24.18.36.07.16.15.32.22.48.06.14.12.28.18.42.06.14.11.29.17.43.06.16.13.32.18.49.04.12.09.25.13.38.06.18.12.37.18.55.03.11.06.22.1.34.06.2.11.4.16.6.03.11.05.21.07.32.05.21.1.42.14.62.02.11.04.22.06.32.04.21.07.41.1.62.02.12.03.25.05.38.02.19.05.38.07.57.02.17.03.34.04.51.01.15.03.3.03.45.02.32.02.65.02.98s0,.65-.02.98c0,.15-.02.3-.03.45-.01.17-.02.34-.04.51-.02.19-.04.38-.07.57-.02.13-.03.25-.05.38-.03.21-.07.41-.1.62-.02.11-.04.22-.06.32-.04.21-.09.42-.14.62-.02.11-.05.21-.07.32-.05.2-.11.4-.16.6-.03.11-.06.23-.1.34-.06.18-.12.37-.18.55-.04.13-.08.25-.13.38-.06.16-.12.33-.18.49-.06.14-.11.29-.17.43-.06.14-.12.28-.18.42-.07.16-.14.32-.22.48-.06.12-.12.24-.18.36-.09.17-.17.35-.26.52-.05.1-.11.2-.17.3-.1.18-.2.36-.31.54-.06.09-.11.18-.17.27-.11.18-.23.36-.35.54-.06.09-.13.18-.19.27-.12.17-.24.34-.37.51-.07.1-.15.2-.23.3-.12.15-.24.31-.36.46-.11.13-.22.26-.33.38-.1.12-.2.23-.3.35-.22.24-.44.48-.67.71s-.47.46-.71.67c-.11.1-.23.2-.34.3-.13.11-.26.23-.39.33-.04.03-.08.06-.12.1-.11.09-.22.17-.33.26-.1.08-.2.16-.3.23-.17.12-.34.24-.51.36-.09.06-.18.13-.27.19-.18.12-.36.23-.54.34-.09.06-.18.12-.28.17-.18.11-.36.21-.54.31-.1.06-.21.12-.31.17-.17.09-.34.18-.51.26-.12.06-.24.12-.36.18-.16.07-.32.14-.48.21-.14.06-.28.12-.42.18-.14.06-.28.11-.42.17-.16.06-.33.13-.49.19-.12.04-.25.08-.37.13-.18.06-.37.12-.55.18-.11.03-.22.06-.33.09-.2.06-.4.11-.6.16-.1.03-.21.05-.31.07-.21.05-.42.1-.63.14-.11.02-.21.04-.32.06-.21.04-.41.07-.62.11-.12.02-.25.03-.37.05-.19.02-.39.05-.58.07-.16.02-.33.03-.5.04-.15.01-.31.03-.46.03-.32.02-.65.02-.98.02h0c-.33,0-.65,0-.98-.02-.15,0-.31-.02-.46-.03-.17-.01-.33-.02-.5-.04-.19-.02-.38-.04-.58-.07-.13-.02-.25-.03-.38-.05-.21-.03-.41-.07-.62-.1-.11-.02-.22-.04-.32-.06-.21-.04-.42-.09-.62-.14-.11-.02-.21-.05-.32-.07-.2-.05-.4-.11-.6-.16-.11-.03-.23-.06-.34-.1-.18-.06-.37-.12-.55-.18-.13-.04-.25-.08-.38-.13-.16-.06-.32-.12-.49-.18-.14-.06-.29-.11-.43-.17-.14-.06-.28-.12-.42-.18-.16-.07-.32-.14-.48-.22-.12-.06-.24-.12-.36-.18-.17-.09-.35-.17-.52-.26-.1-.05-.2-.11-.3-.17-.18-.1-.36-.2-.54-.31-.09-.06-.18-.11-.27-.17-.18-.11-.36-.23-.54-.35-.09-.06-.18-.12-.27-.19-.17-.12-.35-.24-.52-.37-.1-.07-.2-.15-.3-.23-.15-.12-.31-.24-.46-.36-.13-.11-.25-.22-.38-.33-.12-.1-.24-.2-.35-.3-.24-.21-.47-.43-.7-.66l-.02-.02c-.23-.23-.45-.46-.66-.7-.1-.11-.2-.23-.3-.35-.11-.13-.22-.25-.33-.38-.12-.15-.24-.31-.36-.46-.08-.1-.15-.19-.23-.29-.13-.17-.25-.34-.37-.52-.06-.09-.13-.18-.19-.27-.12-.18-.23-.36-.35-.54-.06-.09-.12-.18-.17-.28-.11-.18-.21-.36-.31-.54-.06-.1-.12-.2-.17-.31-.09-.17-.18-.34-.26-.51-.06-.12-.12-.24-.18-.36-.07-.16-.14-.32-.21-.48-.06-.14-.12-.28-.18-.42-.06-.14-.11-.28-.17-.43-.06-.16-.13-.33-.18-.49-.04-.12-.09-.25-.13-.38-.06-.18-.12-.37-.18-.55-.03-.11-.06-.22-.09-.33-.06-.2-.11-.4-.16-.6-.03-.1-.05-.21-.07-.31-.05-.21-.1-.42-.14-.63-.02-.11-.04-.21-.06-.32-.04-.21-.07-.42-.11-.63-.02-.12-.03-.25-.05-.37-.02-.19-.05-.39-.07-.58Z"/>
    <path class="st13" d="M136.3,94.48c.17-.27.33-.54.48-.81.02-.04.04-.07.06-.11.14-.26.28-.51.42-.77.04-.07.07-.14.11-.22.11-.23.23-.45.33-.68.06-.12.11-.25.17-.37.08-.18.16-.36.24-.54.08-.18.15-.37.22-.55.05-.13.1-.25.15-.38.09-.24.17-.48.25-.72.03-.08.05-.15.08-.23.09-.28.17-.56.25-.84.01-.04.02-.08.03-.12.08-.3.16-.61.23-.92,0-.02.01-.04.02-.06.01-.06.03-.11.04-.16l6.58-.87v-9.13l-6.58-.87c-.01-.06-.03-.11-.04-.16,0-.02-.01-.04-.02-.06-.07-.31-.15-.62-.23-.92-.01-.04-.02-.08-.03-.12-.08-.28-.16-.57-.25-.84-.02-.08-.05-.15-.08-.23-.08-.24-.16-.48-.25-.72-.05-.13-.1-.25-.15-.38-.07-.19-.14-.37-.22-.55-.08-.18-.16-.36-.24-.54-.06-.12-.11-.25-.17-.37-.11-.23-.22-.46-.33-.68-.04-.07-.07-.14-.11-.22-.13-.26-.27-.52-.42-.77-.02-.04-.04-.07-.06-.11-.16-.27-.32-.55-.48-.81-.01-.02-.02-.04-.03-.06-.03-.05-.06-.1-.09-.14l4.04-5.27-6.46-6.46-5.27,4.04s-.1-.06-.15-.09c-.02-.01-.04-.02-.05-.03-.27-.17-.54-.33-.82-.49-.04-.02-.07-.04-.11-.06-.26-.14-.52-.28-.78-.42-.07-.04-.14-.07-.21-.11-.23-.11-.46-.23-.69-.33-.12-.06-.25-.11-.37-.16-.18-.08-.36-.16-.54-.24-.18-.08-.37-.15-.55-.22-.13-.05-.25-.1-.38-.15-.24-.09-.48-.17-.72-.25-.08-.03-.15-.05-.23-.08-.28-.09-.56-.17-.84-.25-.04-.01-.08-.02-.12-.04-.3-.08-.61-.16-.92-.23-.02,0-.04-.01-.07-.02-.05-.01-.11-.03-.16-.04l-.87-6.58h-9.13l-.87,6.58c-.06.01-.11.03-.16.04-.02,0-.04.01-.06.02-.31.07-.62.15-.92.23-.04.01-.08.02-.12.03-.28.08-.57.16-.84.25-.08.02-.15.05-.23.08-.24.08-.48.16-.72.25-.13.05-.25.1-.38.14-.19.07-.37.14-.55.22-.18.08-.36.16-.54.24-.12.06-.25.11-.37.17-.23.11-.46.22-.68.33-.07.04-.14.07-.22.11-.26.13-.52.27-.77.42-.04.02-.08.04-.11.06-.27.16-.54.32-.81.48-.02.01-.04.02-.06.03-.05.03-.1.06-.14.09l-5.27-4.04-6.46,6.46,4.04,5.27s-.06.1-.09.15c-.01.02-.02.04-.03.05-.17.27-.33.54-.48.82-.02.04-.04.07-.06.11-.14.26-.28.52-.42.78-.04.07-.07.14-.11.21-.11.23-.23.46-.33.69-.06.12-.11.25-.16.37-.08.18-.16.36-.24.54-.08.18-.15.37-.22.55-.05.13-.1.25-.15.38-.09.24-.17.48-.25.72-.03.08-.05.15-.08.23-.09.28-.17.56-.25.84-.01.04-.02.08-.04.12-.08.3-.16.61-.23.92,0,.02-.01.04-.02.07-.01.05-.03.11-.04.16l-6.58.87v9.13l6.58.87c.01.05.03.11.04.16,0,.02.01.04.02.07.07.31.15.61.23.92.01.04.02.08.04.12.08.28.16.56.25.84.02.08.05.15.08.23.08.24.16.48.25.72.05.13.1.25.15.38.07.18.14.37.22.55.08.18.16.36.24.54.05.12.11.25.16.37.11.23.22.46.33.69.04.07.07.14.11.21.13.26.27.52.42.78.02.04.04.07.06.11.16.27.32.55.48.82.01.02.02.04.03.05.03.05.06.1.09.15l-4.04,5.27,6.46,6.46,5.27-4.04s.1.06.14.09c.02.01.04.02.06.03.27.17.54.33.81.48.04.02.08.04.11.06.26.14.51.28.77.42.07.04.14.07.22.11.23.11.45.23.68.33.12.06.25.11.37.17.18.08.36.16.54.24.18.08.37.15.55.22.13.05.25.1.38.14.24.09.48.17.72.25.08.03.15.05.23.08.28.09.56.17.84.25.04.01.08.02.12.03.3.08.61.16.92.23.02,0,.04.01.06.02.06.01.11.03.16.04l.87,6.58h9.13l.87-6.58c.05-.01.11-.03.16-.04.02,0,.04-.01.07-.02.31-.07.61-.15.92-.23.04-.01.08-.02.12-.04.28-.08.56-.16.84-.25.08-.02.15-.05.23-.08.24-.08.48-.16.72-.25.13-.05.25-.1.38-.15.18-.07.37-.14.55-.22.18-.08.36-.16.54-.24.12-.05.25-.11.37-.16.23-.11.46-.22.69-.33.07-.04.14-.07.21-.11.26-.13.52-.27.78-.42.04-.02.07-.04.11-.06.27-.16.55-.32.82-.49.02-.01.04-.02.05-.03.05-.03.1-.06.15-.09l5.27,4.04,6.46-6.46-4.04-5.27s.06-.1.09-.14c.01-.02.02-.04.03-.06ZM100.87,82.97c-.01-.12-.02-.24-.03-.37,0-.11-.02-.23-.02-.34-.01-.24-.02-.48-.02-.72s0-.48.02-.72c0-.11.02-.23.02-.34,0-.12.02-.25.03-.37.01-.14.03-.29.05-.43.01-.09.02-.18.03-.27.02-.15.05-.31.08-.46.01-.08.03-.16.04-.24.03-.15.07-.31.1-.46.02-.08.03-.15.05-.23.04-.15.08-.3.12-.44.02-.08.05-.16.07-.25.04-.14.09-.27.13-.41.03-.09.06-.19.09-.28.04-.12.09-.24.14-.36.04-.1.08-.21.12-.31.04-.1.09-.21.14-.31.05-.12.1-.23.16-.35.04-.09.09-.18.13-.26.06-.13.13-.25.19-.38.04-.08.08-.15.13-.23.07-.13.15-.27.23-.4.04-.07.08-.14.13-.2.08-.13.17-.27.25-.4.04-.07.09-.13.14-.2.09-.13.18-.25.27-.38.05-.07.11-.15.17-.22.09-.11.17-.23.27-.34.08-.1.16-.19.24-.28.07-.09.15-.17.22-.26.16-.18.33-.35.5-.52s.34-.34.52-.5c.08-.08.17-.15.26-.22.09-.08.19-.16.28-.24.11-.09.22-.18.34-.27.07-.06.14-.11.22-.17.12-.09.25-.18.38-.27.07-.05.13-.09.2-.14.13-.09.26-.17.4-.26.07-.04.13-.08.2-.13.13-.08.26-.15.4-.23.07-.04.15-.08.22-.13.13-.07.25-.13.38-.2.09-.04.17-.09.26-.13.12-.06.23-.11.35-.16.1-.05.2-.09.31-.13.1-.04.21-.08.32-.12.12-.05.24-.09.36-.14.09-.03.19-.06.28-.09.13-.05.27-.09.41-.13.08-.02.17-.05.25-.07.15-.04.29-.08.44-.12.08-.02.16-.04.23-.05.15-.04.31-.07.46-.1.08-.02.16-.03.24-.04.15-.03.3-.05.46-.08.09-.01.18-.02.28-.04.14-.02.28-.04.42-.05.12-.01.24-.02.37-.03.11,0,.23-.02.34-.02.24-.01.48-.02.72-.02h0c.24,0,.48,0,.72.02.11,0,.23.02.34.02.12,0,.24.02.37.03.14.01.29.03.43.05.09.01.18.02.27.03.15.02.31.05.46.08.08.01.16.03.24.04.15.03.31.07.46.1.08.02.15.03.23.05.15.04.3.08.44.12.08.02.16.05.25.07.14.04.27.09.41.13.09.03.18.06.28.09.12.04.24.09.36.14.1.04.21.08.31.12.1.04.21.09.31.14.12.05.23.1.35.16.09.04.18.09.26.13.13.06.25.13.38.19.08.04.15.08.23.13.13.07.26.15.39.23.07.04.14.08.2.13.13.08.27.17.4.25.07.05.13.09.2.14.13.09.25.18.38.27.07.06.15.11.22.17.08.06.16.13.24.19.03.02.06.05.09.07.1.08.19.16.29.25.08.07.17.14.25.22.18.16.35.33.52.5s.34.35.5.52c.08.08.15.17.22.25.08.09.16.19.24.28.09.11.18.22.26.34.06.07.12.15.17.22.09.12.18.25.27.38.05.07.09.13.14.2.09.13.17.26.25.4.04.07.09.13.13.2.08.13.15.26.23.4.04.07.08.15.13.22.07.13.13.25.2.38.04.09.09.17.13.26.06.12.11.23.16.35.05.1.09.21.13.31.04.1.08.21.12.32.05.12.09.24.14.36.03.09.06.19.09.28.05.14.09.27.13.41.02.08.05.17.07.25.04.15.08.29.12.44.02.08.04.16.05.23.04.15.07.31.1.46.02.08.03.16.04.24.03.15.05.3.08.46.01.09.02.18.04.28.02.14.04.28.05.42.01.12.02.25.03.37,0,.11.02.22.02.33.01.24.02.48.02.72s0,.48-.02.72c0,.11-.02.22-.02.33,0,.12-.02.25-.03.37-.01.14-.03.28-.05.42-.01.09-.02.19-.04.28-.02.15-.05.31-.08.46-.01.08-.03.16-.04.24-.03.15-.07.31-.1.46-.02.08-.03.16-.05.23-.04.15-.08.29-.12.44-.02.08-.05.17-.07.25-.04.14-.09.27-.13.41-.03.09-.06.19-.09.28-.04.12-.09.24-.14.36-.04.11-.08.21-.12.32-.04.1-.09.21-.13.31-.05.12-.1.24-.16.35-.04.09-.09.18-.13.26-.06.13-.13.26-.2.38-.04.08-.08.15-.13.22-.07.13-.15.27-.23.4-.04.07-.08.13-.13.2-.08.13-.17.27-.25.4-.04.07-.09.13-.14.2-.09.13-.18.25-.27.38-.06.07-.11.15-.17.22-.09.11-.17.23-.26.34-.08.1-.16.19-.24.28-.07.08-.14.17-.22.25-.16.18-.33.35-.5.52-.17.17-.35.34-.52.5-.08.07-.17.15-.25.22-.1.08-.19.17-.29.25-.03.02-.06.05-.09.07-.08.07-.16.13-.24.19-.07.06-.15.12-.22.17-.12.09-.25.18-.38.27-.07.05-.13.09-.2.14-.13.09-.26.17-.4.25-.07.04-.14.09-.2.13-.13.08-.26.15-.39.23-.08.04-.15.09-.23.13-.12.07-.25.13-.38.19-.09.04-.18.09-.26.13-.12.05-.23.11-.35.16-.1.05-.21.09-.31.14-.1.04-.21.08-.31.12-.12.05-.24.09-.36.14-.09.03-.18.06-.28.09-.14.05-.27.09-.41.13-.08.02-.16.05-.25.07-.15.04-.3.08-.44.12-.08.02-.15.04-.23.05-.15.04-.31.07-.46.1-.08.02-.16.03-.24.04-.15.03-.31.05-.46.08-.09.01-.18.02-.27.03-.14.02-.29.04-.43.05-.12.01-.24.02-.37.03-.11,0-.23.02-.34.02-.24.01-.48.02-.72.02h0c-.24,0-.48,0-.72-.02-.11,0-.23-.02-.34-.02-.12,0-.25-.02-.37-.03-.14-.01-.28-.03-.42-.05-.09-.01-.18-.02-.28-.04-.15-.02-.31-.05-.46-.08-.08-.01-.16-.03-.24-.04-.15-.03-.31-.07-.46-.1-.08-.02-.16-.03-.23-.05-.15-.04-.29-.08-.44-.12-.08-.02-.17-.05-.25-.07-.14-.04-.27-.09-.41-.13-.09-.03-.19-.06-.28-.09-.12-.04-.24-.09-.36-.14-.11-.04-.21-.08-.32-.12-.1-.04-.21-.09-.31-.13-.12-.05-.24-.1-.35-.16-.09-.04-.17-.09-.26-.13-.13-.06-.26-.13-.38-.2-.08-.04-.15-.08-.22-.13-.13-.07-.27-.15-.4-.23-.07-.04-.13-.08-.2-.13-.13-.08-.27-.17-.4-.26-.07-.04-.13-.09-.2-.14-.13-.09-.26-.18-.38-.27-.07-.05-.15-.11-.22-.17-.11-.09-.23-.17-.34-.27-.09-.08-.19-.16-.28-.24-.09-.07-.17-.15-.26-.22-.17-.16-.34-.32-.51-.49,0,0-.01-.01-.02-.02-.17-.17-.33-.34-.49-.51-.08-.08-.15-.17-.22-.26-.08-.09-.16-.19-.24-.28-.09-.11-.18-.23-.27-.34-.06-.07-.11-.14-.17-.22-.09-.12-.18-.25-.27-.38-.05-.07-.09-.13-.14-.2-.09-.13-.17-.26-.25-.4-.04-.07-.09-.13-.13-.2-.08-.13-.15-.26-.23-.4-.04-.08-.09-.15-.13-.23-.07-.13-.13-.25-.19-.38-.04-.09-.09-.18-.13-.26-.05-.12-.11-.23-.16-.35-.05-.1-.09-.21-.14-.31-.04-.1-.08-.21-.12-.31-.05-.12-.09-.24-.14-.36-.03-.09-.06-.18-.09-.28-.05-.14-.09-.27-.13-.41-.02-.08-.05-.16-.07-.25-.04-.15-.08-.29-.12-.44-.02-.08-.04-.15-.05-.23-.04-.15-.07-.31-.1-.46-.02-.08-.03-.16-.04-.24-.03-.15-.06-.31-.08-.46-.01-.09-.02-.18-.03-.27-.02-.14-.04-.29-.05-.43Z"/>
    <g>
      <polygon class="st17" points="209.95 398.4 207.35 432.76 297.61 432.76 295 398.4 209.95 398.4"/>
      <polygon class="st20" points="293.57 379.54 211.39 379.54 209.95 398.4 295 398.4 293.57 379.54"/>
      <path class="st10" d="M189.45,429.73h126.06c2.67,0,4.84,2.17,4.84,4.84v9.98h-135.74v-9.98c0-2.67,2.17-4.84,4.84-4.84Z"/>
      <path class="st9" d="M452.15,96.62H52.81c-6.73,0-12.18,5.46-12.18,12.18v239.75h423.72V108.8c0-6.73-5.46-12.18-12.18-12.18Z"/>
      <path class="st10" d="M291.89,348.55H40.62v28.91c0,6.73,5.46,12.18,12.18,12.18h399.35c6.73,0,12.18-5.46,12.18-12.18v-28.91h-172.45Z"/>
      <circle class="st5" cx="251.14" cy="366.3" r="5.72"/>
      <g>
        <polygon class="st26" points="446.82 111.44 203.58 111.44 55.45 259.57 55.45 331.7 335.08 331.7 446.82 219.96 446.82 111.44"/>
        <polygon class="st2" points="446.82 219.96 335.08 331.7 446.82 331.7 446.82 219.96"/>
        <polygon class="st2" points="55.45 111.44 55.45 259.57 203.58 111.44 55.45 111.44"/>
      </g>
    </g>
    <g>
      <g>
        <rect class="st19" x="17.98" y="314.6" width="44.03" height="130.04" rx="5.51" ry="5.51"/>
        <g>
          <rect class="st3" x="23.1" y="319.52" width="33.79" height="17.41"/>
          <rect class="st18" x="23.1" y="338.97" width="33.79" height="17.41"/>
          <rect class="st12" x="23.1" y="358.43" width="33.79" height="17.41"/>
          <rect class="st29" x="23.1" y="377.88" width="33.79" height="17.41"/>
          <rect class="st5" x="23.1" y="397.33" width="33.79" height="17.41"/>
        </g>
      </g>
      <g>
        <rect class="st17" x="61.69" y="321.06" width="44.03" height="130.04" rx="5.51" ry="5.51" transform="translate(297.52 53.89) rotate(45)"/>
        <g>
          <rect class="st21" x="103.16" y="341.03" width="33.79" height="17.41" transform="translate(282.46 17.55) rotate(45)"/>
          <rect class="st24" x="89.4" y="354.79" width="33.79" height="17.41" transform="translate(288.16 31.3) rotate(45)"/>
          <rect class="st32" x="75.64" y="368.55" width="33.79" height="17.41" transform="translate(293.86 45.06) rotate(45)"/>
          <rect class="st31" x="61.89" y="382.3" width="33.79" height="17.41" transform="translate(299.56 58.82) rotate(45)"/>
          <rect class="st9" x="48.13" y="396.06" width="33.79" height="17.41" transform="translate(305.26 72.57) rotate(45)"/>
        </g>
      </g>
      <g>
        <rect class="st10" x="88.77" y="357.99" width="44.03" height="130.04" rx="5.51" ry="5.51" transform="translate(533.78 312.22) rotate(90)"/>
        <g>
          <rect class="st27" x="145.28" y="414.3" width="33.79" height="17.41" transform="translate(585.18 260.82) rotate(90)"/>
          <rect class="st0" x="125.83" y="414.3" width="33.79" height="17.41" transform="translate(565.73 280.28) rotate(90)"/>
          <rect class="st28" x="106.38" y="414.3" width="33.79" height="17.41" transform="translate(546.27 299.73) rotate(90)"/>
          <rect class="st4" x="86.92" y="414.3" width="33.79" height="17.41" transform="translate(526.82 319.19) rotate(90)"/>
          <rect class="st13" x="67.47" y="414.3" width="33.79" height="17.41" transform="translate(507.37 338.64) rotate(90)"/>
        </g>
      </g>
      <circle class="st9" cx="55.45" cy="437.14" r="4.38"/>
    </g>
    <path class="st28" d="M103.33,135.35c.12-.19.23-.38.34-.58.01-.03.03-.05.04-.08.1-.18.2-.37.3-.55.03-.05.05-.1.08-.15.08-.16.16-.32.24-.49.04-.09.08-.18.12-.27.06-.13.11-.26.17-.39.05-.13.1-.26.16-.39.03-.09.07-.18.1-.27.06-.17.12-.34.18-.51.02-.05.04-.11.05-.16.06-.2.12-.4.18-.6,0-.03.02-.06.02-.09.06-.22.12-.43.17-.65,0-.02,0-.03.01-.05,0-.04.02-.08.03-.12l4.69-.62v-6.51l-4.69-.62s-.02-.08-.03-.12c0-.02,0-.03-.01-.05-.05-.22-.11-.44-.17-.65,0-.03-.02-.06-.02-.09-.06-.2-.12-.4-.18-.6-.02-.05-.04-.11-.05-.16-.06-.17-.12-.34-.18-.51-.03-.09-.07-.18-.1-.27-.05-.13-.1-.26-.16-.39-.05-.13-.11-.26-.17-.39-.04-.09-.08-.18-.12-.27-.08-.16-.16-.33-.24-.49-.03-.05-.05-.1-.08-.15-.1-.19-.19-.37-.3-.55-.01-.03-.03-.05-.04-.08-.11-.2-.23-.39-.34-.58,0-.01-.02-.03-.02-.04-.02-.03-.04-.07-.06-.1l2.88-3.75-4.6-4.6-3.75,2.88s-.07-.04-.1-.06c-.01,0-.03-.02-.04-.02-.19-.12-.39-.23-.58-.35-.03-.01-.05-.03-.08-.04-.18-.1-.37-.2-.55-.3-.05-.03-.1-.05-.15-.07-.16-.08-.33-.16-.49-.24-.09-.04-.18-.08-.26-.12-.13-.06-.26-.11-.39-.17-.13-.05-.26-.1-.39-.15-.09-.03-.18-.07-.27-.1-.17-.06-.34-.12-.51-.18-.06-.02-.11-.04-.17-.06-.2-.06-.4-.12-.6-.18-.03,0-.06-.02-.09-.03-.22-.06-.43-.11-.65-.17-.02,0-.03,0-.05-.01-.04,0-.08-.02-.12-.03l-.62-4.69h-6.51l-.62,4.69s-.08.02-.12.03c-.02,0-.03,0-.05.01-.22.05-.44.11-.65.17-.03,0-.06.02-.09.02-.2.06-.4.12-.6.18-.05.02-.11.04-.16.05-.17.06-.34.12-.51.18-.09.03-.18.07-.27.1-.13.05-.26.1-.39.16-.13.05-.26.11-.39.17-.09.04-.18.08-.27.12-.16.08-.33.16-.49.24-.05.03-.1.05-.15.08-.19.1-.37.19-.55.3-.03.01-.05.03-.08.04-.2.11-.39.23-.58.34-.01,0-.03.02-.04.02-.03.02-.07.04-.1.06l-3.75-2.88-4.6,4.6,2.88,3.75s-.04.07-.06.1c0,.01-.02.03-.02.04-.12.19-.23.39-.35.58-.01.03-.03.05-.04.08-.1.18-.2.37-.3.55-.03.05-.05.1-.08.15-.08.16-.16.32-.24.49-.04.09-.08.18-.12.26-.06.13-.11.26-.17.39-.05.13-.1.26-.15.39-.03.09-.07.18-.1.27-.06.17-.12.34-.18.51-.02.05-.04.11-.06.16-.06.2-.12.4-.18.6,0,.03-.02.06-.03.09-.06.22-.11.43-.17.65,0,.02,0,.03-.01.05,0,.04-.02.08-.03.12l-4.69.62v6.51l4.69.62s.02.08.03.12c0,.02,0,.03.01.05.05.22.11.44.17.65,0,.03.02.06.03.09.06.2.12.4.18.6.02.06.04.11.06.16.06.17.11.34.18.51.03.09.07.18.1.27.05.13.1.26.15.39.05.13.11.26.17.39.04.09.08.18.12.26.08.16.16.33.24.49.03.05.05.1.08.15.1.19.2.37.3.55.01.03.03.05.04.08.11.2.23.39.35.58,0,.01.02.03.02.04.02.03.04.07.06.1l-2.88,3.75,4.6,4.6,3.75-2.88s.07.04.1.06c.01,0,.03.02.04.02.19.12.38.23.58.34.03.01.05.03.08.04.18.1.37.2.55.3.05.03.1.05.15.08.16.08.32.16.49.24.09.04.18.08.27.12.13.06.26.11.39.17.13.05.26.1.39.16.09.03.18.07.27.1.17.06.34.12.51.18.05.02.11.04.16.05.2.06.4.12.6.18.03,0,.06.02.09.02.22.06.43.12.65.17.02,0,.03,0,.05.01.04,0,.08.02.12.03l.62,4.69h6.51l.62-4.69s.08-.02.12-.03c.02,0,.03,0,.05-.01.22-.05.44-.11.65-.17.03,0,.06-.02.09-.03.2-.06.4-.12.6-.18.06-.02.11-.04.17-.06.17-.06.34-.11.51-.18.09-.03.18-.07.27-.1.13-.05.26-.1.39-.15.13-.05.26-.11.39-.17.09-.04.18-.08.26-.12.16-.08.33-.16.49-.24.05-.03.1-.05.15-.07.19-.1.37-.2.55-.3.03-.01.05-.03.08-.04.2-.11.39-.23.58-.35.01,0,.03-.02.04-.02.03-.02.07-.04.1-.06l3.75,2.88,4.6-4.6-2.88-3.75s.04-.07.06-.1c0-.01.02-.03.02-.04ZM78.09,127.15c0-.09-.01-.17-.02-.26,0-.08-.01-.16-.02-.24,0-.17-.01-.34-.01-.51s0-.34.01-.51c0-.08.01-.16.02-.24,0-.09.01-.17.02-.26.01-.1.02-.2.04-.3,0-.06.02-.13.02-.19.02-.11.04-.22.06-.33.01-.06.02-.11.03-.17.02-.11.05-.22.07-.33.01-.06.02-.11.04-.16.03-.11.06-.21.09-.32.02-.06.03-.12.05-.18.03-.1.06-.19.09-.29.02-.07.04-.13.07-.2.03-.09.06-.17.1-.26.03-.07.06-.15.09-.22.03-.07.06-.15.1-.22.04-.08.07-.17.11-.25.03-.06.06-.13.09-.19.05-.09.09-.18.14-.27.03-.05.06-.11.09-.16.05-.09.11-.19.16-.28.03-.05.06-.1.09-.14.06-.09.12-.19.18-.28.03-.05.07-.09.1-.14.06-.09.13-.18.19-.27.04-.05.08-.1.12-.16.06-.08.12-.16.19-.24.06-.07.11-.13.17-.2.05-.06.1-.12.16-.18.11-.13.23-.25.35-.37.12-.12.25-.24.37-.35.06-.05.12-.11.18-.16.07-.06.13-.12.2-.17.08-.06.16-.13.24-.19.05-.04.1-.08.16-.12.09-.07.18-.13.27-.19.05-.03.09-.07.14-.1.09-.06.19-.12.28-.18.05-.03.1-.06.14-.09.09-.06.19-.11.28-.16.05-.03.11-.06.16-.09.09-.05.18-.09.27-.14.06-.03.12-.06.19-.09.08-.04.17-.08.25-.11.07-.03.15-.06.22-.1.07-.03.15-.06.23-.09.09-.03.17-.07.26-.1.07-.02.13-.05.2-.07.1-.03.19-.06.29-.09.06-.02.12-.03.18-.05.1-.03.21-.06.31-.08.06-.01.11-.03.17-.04.11-.03.22-.05.33-.07.06-.01.11-.02.17-.03.11-.02.22-.04.33-.06.07,0,.13-.02.2-.02.1-.01.2-.03.3-.04.09,0,.17-.01.26-.02.08,0,.16-.01.24-.02.17,0,.34-.01.51-.01h0c.17,0,.34,0,.51.01.08,0,.16.01.24.02.09,0,.17.01.26.02.1.01.2.02.31.04.06,0,.13.02.19.02.11.02.22.04.33.06.06.01.11.02.17.03.11.02.22.05.33.07.06.01.11.02.16.04.11.03.21.06.32.09.06.02.12.03.18.05.1.03.19.06.29.09.07.02.13.04.2.07.09.03.17.06.26.1.07.03.15.06.22.09.07.03.15.06.22.1.08.04.17.07.25.11.06.03.13.06.19.09.09.05.18.09.27.14.05.03.11.06.16.09.09.05.19.11.28.16.05.03.1.06.15.09.09.06.19.12.28.18.05.03.09.07.14.1.09.06.18.13.27.19.05.04.11.08.16.12.06.05.12.09.17.14.02.02.04.03.06.05.07.06.14.12.2.17.06.05.12.1.18.16.13.11.25.23.37.35.12.12.24.25.35.37.05.06.1.12.16.18.06.07.12.13.17.2.06.08.13.16.19.24.04.05.08.1.12.16.07.09.13.18.19.27.03.05.07.09.1.14.06.09.12.19.18.28.03.05.06.1.09.14.06.09.11.19.16.28.03.05.06.11.09.16.05.09.09.18.14.27.03.06.06.12.09.19.04.08.08.17.11.25.03.07.07.15.1.22.03.07.06.15.09.23.03.09.07.17.1.26.02.07.05.13.07.2.03.1.06.19.09.29.02.06.03.12.05.18.03.1.06.21.08.31.01.06.03.11.04.17.03.11.05.22.07.33.01.06.02.11.03.17.02.11.04.22.06.33,0,.07.02.13.03.2.01.1.03.2.04.3,0,.09.01.18.02.27,0,.08.01.16.02.24,0,.17.01.34.01.51s0,.34-.01.51c0,.08-.01.16-.02.24,0,.09-.01.18-.02.27,0,.1-.02.2-.04.3,0,.07-.02.13-.03.2-.02.11-.04.22-.06.33-.01.06-.02.11-.03.17-.02.11-.05.22-.07.33-.01.06-.02.11-.04.17-.03.11-.06.21-.08.31-.02.06-.03.12-.05.18-.03.1-.06.19-.09.29-.02.07-.04.13-.07.2-.03.09-.06.17-.1.26-.03.08-.06.15-.09.23-.03.07-.06.15-.1.22-.04.08-.07.17-.11.25-.03.06-.06.12-.09.19-.05.09-.09.18-.14.27-.03.05-.06.11-.09.16-.05.09-.11.19-.16.28-.03.05-.06.1-.09.14-.06.09-.12.19-.18.28-.03.05-.07.09-.1.14-.06.09-.13.18-.19.27-.04.05-.08.1-.12.16-.06.08-.12.16-.19.24-.06.07-.12.13-.17.2-.05.06-.1.12-.16.18-.11.13-.23.25-.35.37s-.25.24-.37.35c-.06.05-.12.1-.18.16-.07.06-.13.12-.2.17-.02.02-.04.03-.06.05-.06.05-.12.09-.17.14-.05.04-.1.08-.16.12-.09.07-.18.13-.27.19-.05.03-.09.07-.14.1-.09.06-.19.12-.28.18-.05.03-.1.06-.15.09-.09.06-.19.11-.28.16-.05.03-.11.06-.16.09-.09.05-.18.09-.27.14-.06.03-.13.06-.19.09-.08.04-.17.08-.25.11-.07.03-.15.07-.22.1-.07.03-.15.06-.22.09-.09.03-.17.07-.26.1-.06.02-.13.04-.2.07-.1.03-.19.06-.29.09-.06.02-.12.03-.18.05-.11.03-.21.06-.32.09-.05.01-.11.03-.16.04-.11.03-.22.05-.33.07-.06.01-.11.02-.17.03-.11.02-.22.04-.33.06-.06,0-.13.02-.19.02-.1.01-.2.03-.31.04-.09,0-.17.01-.26.02-.08,0-.16.01-.24.02-.17,0-.34.01-.51.01h0c-.17,0-.34,0-.51-.01-.08,0-.16-.01-.24-.02-.09,0-.17-.01-.26-.02-.1,0-.2-.02-.3-.04-.07,0-.13-.02-.2-.03-.11-.02-.22-.04-.33-.06-.06-.01-.11-.02-.17-.03-.11-.02-.22-.05-.33-.07-.06-.01-.11-.02-.17-.04-.1-.03-.21-.06-.31-.08-.06-.02-.12-.03-.18-.05-.1-.03-.19-.06-.29-.09-.07-.02-.13-.04-.2-.07-.09-.03-.17-.06-.26-.1-.08-.03-.15-.06-.23-.09-.07-.03-.15-.06-.22-.1-.08-.04-.17-.07-.25-.11-.06-.03-.12-.06-.19-.09-.09-.05-.18-.09-.27-.14-.05-.03-.11-.06-.16-.09-.1-.05-.19-.11-.28-.16-.05-.03-.1-.06-.14-.09-.1-.06-.19-.12-.28-.18-.05-.03-.09-.07-.14-.1-.09-.06-.18-.13-.27-.19-.05-.04-.1-.08-.16-.12-.08-.06-.16-.12-.24-.19-.07-.06-.13-.11-.2-.17-.06-.05-.12-.1-.18-.16-.12-.11-.25-.23-.36-.35,0,0,0,0-.01-.01-.12-.12-.23-.24-.35-.37-.05-.06-.11-.12-.16-.18-.06-.07-.12-.13-.17-.2-.07-.08-.13-.16-.19-.24-.04-.05-.08-.1-.12-.15-.07-.09-.13-.18-.19-.27-.03-.05-.07-.09-.1-.14-.06-.09-.12-.19-.18-.28-.03-.05-.06-.1-.09-.14-.06-.09-.11-.19-.16-.28-.03-.05-.06-.11-.09-.16-.05-.09-.09-.18-.14-.27-.03-.06-.06-.12-.09-.19-.04-.08-.08-.17-.11-.25-.03-.07-.07-.15-.1-.22-.03-.07-.06-.15-.09-.22-.03-.09-.07-.17-.1-.26-.02-.07-.04-.13-.07-.2-.03-.1-.06-.19-.09-.29-.02-.06-.03-.12-.05-.18-.03-.1-.06-.21-.09-.32-.01-.05-.03-.11-.04-.16-.03-.11-.05-.22-.07-.33-.01-.06-.02-.11-.03-.17-.02-.11-.04-.22-.06-.33,0-.06-.02-.13-.02-.19-.01-.1-.03-.2-.04-.3Z"/>
    <path class="st21" d="M360.03,262.45c.12-.19.23-.38.34-.58.01-.03.03-.05.04-.08.1-.18.2-.37.3-.55.03-.05.05-.1.08-.15.08-.16.16-.32.24-.49.04-.09.08-.18.12-.27.06-.13.11-.26.17-.39.05-.13.1-.26.16-.39.03-.09.07-.18.1-.27.06-.17.12-.34.18-.51.02-.05.04-.11.05-.16.06-.2.12-.4.18-.6,0-.03.02-.06.02-.09.06-.22.12-.43.17-.65,0-.02,0-.03.01-.05,0-.04.02-.08.03-.12l4.69-.62v-6.51l-4.69-.62s-.02-.08-.03-.12c0-.02,0-.03-.01-.05-.05-.22-.11-.44-.17-.65,0-.03-.02-.06-.02-.09-.06-.2-.12-.4-.18-.6-.02-.05-.04-.11-.05-.16-.06-.17-.12-.34-.18-.51-.03-.09-.07-.18-.1-.27-.05-.13-.1-.26-.16-.39-.05-.13-.11-.26-.17-.39-.04-.09-.08-.18-.12-.27-.08-.16-.16-.33-.24-.49-.03-.05-.05-.1-.08-.15-.1-.19-.19-.37-.3-.55-.01-.03-.03-.05-.04-.08-.11-.2-.23-.39-.34-.58,0-.01-.02-.03-.02-.04-.02-.03-.04-.07-.06-.1l2.88-3.75-4.6-4.6-3.75,2.88s-.07-.04-.1-.06c-.01,0-.03-.02-.04-.02-.19-.12-.39-.23-.58-.35-.03-.01-.05-.03-.08-.04-.18-.1-.37-.2-.55-.3-.05-.03-.1-.05-.15-.08-.16-.08-.33-.16-.49-.24-.09-.04-.18-.08-.26-.12-.13-.06-.26-.11-.39-.17-.13-.05-.26-.1-.39-.15-.09-.03-.18-.07-.27-.1-.17-.06-.34-.12-.51-.18-.06-.02-.11-.04-.17-.06-.2-.06-.4-.12-.6-.18-.03,0-.06-.02-.09-.03-.22-.06-.43-.11-.65-.17-.02,0-.03,0-.05-.01-.04,0-.08-.02-.12-.03l-.62-4.69h-6.51l-.62,4.69s-.08.02-.12.03c-.02,0-.03,0-.05.01-.22.05-.44.11-.65.17-.03,0-.06.02-.09.02-.2.06-.4.12-.6.18-.05.02-.11.04-.16.05-.17.06-.34.12-.51.18-.09.03-.18.07-.27.1-.13.05-.26.1-.39.16-.13.05-.26.11-.39.17-.09.04-.18.08-.27.12-.16.08-.33.16-.49.24-.05.03-.1.05-.15.08-.19.1-.37.19-.55.3-.03.01-.05.03-.08.04-.2.11-.39.23-.58.34-.01,0-.03.02-.04.02-.03.02-.07.04-.1.06l-3.75-2.88-4.6,4.6,2.88,3.75s-.04.07-.06.1c0,.01-.02.03-.02.04-.12.19-.23.39-.35.58-.01.03-.03.05-.04.08-.1.18-.2.37-.3.55-.03.05-.05.1-.08.15-.08.16-.16.32-.24.49-.04.09-.08.18-.12.26-.06.13-.11.26-.17.39-.05.13-.1.26-.15.39-.03.09-.07.18-.1.27-.06.17-.12.34-.18.51-.02.05-.04.11-.06.16-.06.2-.12.4-.18.6,0,.03-.02.06-.03.09-.06.22-.11.43-.17.65,0,.02,0,.03-.01.05,0,.04-.02.08-.03.12l-4.69.62v6.51l4.69.62s.02.08.03.12c0,.02,0,.03.01.05.05.22.11.44.17.65,0,.03.02.06.03.09.06.2.12.4.18.6.02.06.04.11.06.16.06.17.11.34.18.51.03.09.07.18.1.27.05.13.1.26.15.39.05.13.11.26.17.39.04.09.08.18.12.26.08.16.16.33.24.49.03.05.05.1.08.15.1.19.2.37.3.55.01.03.03.05.04.08.11.2.23.39.35.58,0,.01.02.03.02.04.02.03.04.07.06.1l-2.88,3.75,4.6,4.6,3.75-2.88s.07.04.1.06c.01,0,.03.02.04.02.19.12.38.23.58.34.03.02.05.03.08.04.18.1.37.2.55.3.05.03.1.05.15.08.16.08.32.16.49.24.09.04.18.08.27.12.13.06.26.11.39.17.13.05.26.1.39.16.09.03.18.07.27.1.17.06.34.12.51.18.05.02.11.04.16.05.2.06.4.12.6.18.03,0,.06.02.09.02.22.06.43.12.65.17.02,0,.03,0,.05.01.04,0,.08.02.12.03l.62,4.69h6.51l.62-4.69s.08-.02.12-.03c.02,0,.03,0,.05-.01.22-.05.44-.11.65-.17.03,0,.06-.02.09-.03.2-.06.4-.12.6-.18.06-.02.11-.04.17-.06.17-.06.34-.11.51-.18.09-.03.18-.07.27-.1.13-.05.26-.1.39-.15.13-.05.26-.11.39-.17.09-.04.18-.08.26-.12.16-.08.33-.16.49-.24.05-.03.1-.05.15-.07.19-.1.37-.2.55-.3.03-.01.05-.03.08-.04.2-.11.39-.23.58-.35.01,0,.03-.02.04-.02.03-.02.07-.04.1-.06l3.75,2.88,4.6-4.6-2.88-3.75s.04-.07.06-.1c0-.01.02-.03.02-.04ZM334.79,254.25c0-.09-.01-.17-.02-.26,0-.08-.01-.16-.02-.24,0-.17-.01-.34-.01-.51s0-.34.01-.51c0-.08.01-.16.02-.24,0-.09.01-.17.02-.26.01-.1.02-.2.04-.3,0-.06.02-.13.02-.19.02-.11.04-.22.06-.33.01-.06.02-.11.03-.17.02-.11.05-.22.07-.33.01-.05.02-.11.04-.16.03-.11.06-.21.09-.32.02-.06.03-.12.05-.18.03-.1.06-.19.09-.29.02-.07.04-.13.07-.2.03-.09.06-.17.1-.26.03-.07.06-.15.09-.22.03-.07.06-.15.1-.22.04-.08.07-.17.11-.25.03-.06.06-.13.09-.19.05-.09.09-.18.14-.27.03-.05.06-.11.09-.16.05-.09.11-.19.16-.28.03-.05.06-.1.09-.14.06-.09.12-.19.18-.28.03-.05.07-.09.1-.14.06-.09.13-.18.19-.27.04-.05.08-.1.12-.16.06-.08.12-.16.19-.24.06-.07.11-.13.17-.2.05-.06.1-.12.16-.18.11-.13.23-.25.35-.37s.25-.24.37-.35c.06-.05.12-.11.18-.16.07-.06.13-.12.2-.17.08-.06.16-.13.24-.19.05-.04.1-.08.16-.12.09-.07.18-.13.27-.19.05-.03.09-.07.14-.1.09-.06.19-.12.28-.18.05-.03.1-.06.14-.09.09-.06.19-.11.28-.16.05-.03.11-.06.16-.09.09-.05.18-.09.27-.14.06-.03.12-.06.19-.09.08-.04.17-.08.25-.11.07-.03.15-.06.22-.1.07-.03.15-.06.23-.09.09-.03.17-.07.26-.1.07-.02.13-.05.2-.07.1-.03.19-.06.29-.09.06-.02.12-.03.18-.05.1-.03.21-.06.31-.08.06-.01.11-.03.17-.04.11-.03.22-.05.33-.07.06-.01.11-.02.17-.03.11-.02.22-.04.33-.06.07,0,.13-.02.2-.02.1-.01.2-.03.3-.04.09,0,.17-.01.26-.02.08,0,.16-.01.24-.02.17,0,.34-.01.51-.01h0c.17,0,.34,0,.51.01.08,0,.16.01.24.02.09,0,.17.01.26.02.1,0,.2.02.31.04.06,0,.13.02.19.02.11.02.22.04.33.06.06.01.11.02.17.03.11.02.22.05.33.07.05.01.11.02.16.04.11.03.21.06.32.09.06.02.12.03.17.05.1.03.19.06.29.09.07.02.13.04.2.07.09.03.17.06.26.1.07.03.15.06.22.09.07.03.15.06.22.1.08.04.17.07.25.11.06.03.13.06.19.09.09.05.18.09.27.14.05.03.11.06.16.09.09.05.19.11.28.16.05.03.1.06.15.09.09.06.19.12.28.18.05.03.09.07.14.1.09.06.18.13.27.19.05.04.11.08.16.12.06.05.12.09.17.14.02.02.04.03.06.05.07.06.14.12.2.17.06.05.12.1.18.16.13.11.25.23.37.35s.24.25.35.37c.05.06.1.12.16.18.06.07.12.13.17.2.06.08.13.16.19.24.04.05.08.1.12.16.07.09.13.18.19.27.03.05.07.09.1.14.06.09.12.19.18.28.03.05.06.1.09.14.06.09.11.19.16.28.03.05.06.11.09.16.05.09.09.18.14.27.03.06.06.12.09.19.04.08.08.17.11.25.03.07.07.15.1.22.03.07.06.15.09.23.03.09.07.17.1.26.02.07.05.13.07.2.03.1.06.19.09.29.02.06.03.12.05.18.03.1.06.21.08.31.01.06.03.11.04.17.03.11.05.22.07.33.01.06.02.11.03.17.02.11.04.22.06.33,0,.07.02.13.03.2.01.1.03.2.04.3,0,.09.01.18.02.27,0,.08.01.16.02.24,0,.17.01.34.01.51s0,.34-.01.51c0,.08-.01.16-.02.24,0,.09-.01.18-.02.27,0,.1-.02.2-.04.3,0,.07-.02.13-.03.2-.02.11-.04.22-.06.33-.01.06-.02.11-.03.17-.02.11-.05.22-.07.33-.01.06-.02.11-.04.17-.03.11-.06.21-.08.31-.02.06-.03.12-.05.18-.03.1-.06.19-.09.29-.02.07-.04.13-.07.2-.03.09-.06.17-.1.26-.03.08-.06.15-.09.23-.03.07-.06.15-.1.22-.04.08-.07.17-.11.25-.03.06-.06.12-.09.19-.05.09-.09.18-.14.27-.03.05-.06.11-.09.16-.05.09-.11.19-.16.28-.03.05-.06.1-.09.14-.06.09-.12.19-.18.28-.03.05-.07.09-.1.14-.06.09-.13.18-.19.27-.04.05-.08.1-.12.16-.06.08-.12.16-.19.24-.06.07-.12.13-.17.2-.05.06-.1.12-.16.18-.11.13-.23.25-.35.37s-.25.24-.37.35c-.06.05-.12.1-.18.16-.07.06-.13.12-.2.17-.02.02-.04.03-.06.05-.06.05-.12.09-.17.14-.05.04-.1.08-.16.12-.09.07-.18.13-.27.19-.05.03-.09.07-.14.1-.09.06-.19.12-.28.18-.05.03-.1.06-.15.09-.09.06-.19.11-.28.16-.05.03-.11.06-.16.09-.09.05-.18.09-.27.14-.06.03-.13.06-.19.09-.08.04-.17.08-.25.11-.07.03-.15.07-.22.1-.07.03-.15.06-.22.09-.09.03-.17.07-.26.1-.07.02-.13.04-.2.07-.1.03-.19.06-.29.09-.06.02-.12.03-.17.05-.11.03-.21.06-.32.09-.05.01-.11.03-.16.04-.11.03-.22.05-.33.07-.06.01-.11.02-.17.03-.11.02-.22.04-.33.06-.06,0-.13.02-.19.02-.1.01-.2.03-.31.04-.09,0-.17.01-.26.02-.08,0-.16.01-.24.02-.17,0-.34.01-.51.01h0c-.17,0-.34,0-.51-.01-.08,0-.16-.01-.24-.02-.09,0-.17-.01-.26-.02-.1,0-.2-.02-.3-.04-.07,0-.13-.02-.2-.02-.11-.02-.22-.04-.33-.06-.06-.01-.11-.02-.17-.03-.11-.02-.22-.05-.33-.07-.06-.01-.11-.02-.17-.04-.1-.03-.21-.06-.31-.08-.06-.02-.12-.03-.18-.05-.1-.03-.19-.06-.29-.09-.07-.02-.13-.04-.2-.07-.09-.03-.17-.06-.26-.1-.08-.03-.15-.06-.23-.09-.07-.03-.15-.06-.22-.1-.08-.04-.17-.07-.25-.11-.06-.03-.12-.06-.19-.09-.09-.05-.18-.09-.27-.14-.05-.03-.11-.06-.16-.09-.1-.05-.19-.11-.28-.16-.05-.03-.1-.06-.14-.09-.1-.06-.19-.12-.28-.18-.05-.03-.09-.07-.14-.1-.09-.06-.18-.13-.27-.19-.05-.04-.1-.08-.16-.12-.08-.06-.16-.12-.24-.19-.07-.06-.13-.11-.2-.17-.06-.05-.12-.1-.18-.16-.12-.11-.25-.23-.36-.35,0,0,0,0-.01-.01-.12-.12-.23-.24-.35-.37-.05-.06-.11-.12-.16-.18-.06-.07-.12-.13-.17-.2-.07-.08-.13-.16-.19-.24-.04-.05-.08-.1-.12-.15-.07-.09-.13-.18-.19-.27-.03-.05-.07-.09-.1-.14-.06-.09-.12-.19-.18-.28-.03-.05-.06-.1-.09-.14-.06-.09-.11-.19-.16-.28-.03-.05-.06-.11-.09-.16-.05-.09-.09-.18-.14-.27-.03-.06-.06-.12-.09-.19-.04-.08-.08-.17-.11-.25-.03-.07-.07-.15-.1-.22-.03-.07-.06-.15-.09-.22-.03-.09-.07-.17-.1-.26-.02-.07-.04-.13-.07-.2-.03-.1-.06-.19-.09-.29-.02-.06-.03-.12-.05-.18-.03-.1-.06-.21-.09-.32-.01-.05-.03-.11-.04-.17-.03-.11-.05-.22-.07-.33-.01-.06-.02-.11-.03-.17-.02-.11-.04-.22-.06-.33,0-.06-.02-.13-.02-.19-.01-.1-.03-.2-.04-.3Z"/>
    <path class="st10" d="M431,280.48c.07-.11.14-.23.2-.34,0-.02.02-.03.03-.05.06-.11.12-.22.18-.33.02-.03.03-.06.05-.09.05-.1.1-.19.14-.29.02-.05.05-.1.07-.16.03-.08.07-.15.1-.23.03-.08.06-.16.09-.23.02-.05.04-.11.06-.16.04-.1.07-.2.1-.3.01-.03.02-.06.03-.1.04-.12.07-.24.11-.36,0-.02,0-.03.01-.05.04-.13.07-.26.1-.39,0,0,0-.02,0-.03,0-.02.01-.05.02-.07l2.77-.37v-3.85l-2.77-.37s-.01-.05-.02-.07c0,0,0-.02,0-.03-.03-.13-.06-.26-.1-.39,0-.02,0-.03-.01-.05-.03-.12-.07-.24-.11-.36-.01-.03-.02-.06-.03-.1-.03-.1-.07-.2-.1-.3-.02-.05-.04-.11-.06-.16-.03-.08-.06-.16-.09-.23-.03-.08-.07-.15-.1-.23-.02-.05-.05-.11-.07-.16-.04-.1-.09-.19-.14-.29-.02-.03-.03-.06-.05-.09-.06-.11-.12-.22-.18-.33,0-.02-.02-.03-.03-.05-.07-.12-.13-.23-.2-.34,0,0,0-.02-.01-.02-.01-.02-.02-.04-.04-.06l1.7-2.22-2.72-2.72-2.22,1.7s-.04-.02-.06-.04c0,0-.02,0-.02-.01-.11-.07-.23-.14-.34-.2-.02,0-.03-.02-.05-.03-.11-.06-.22-.12-.33-.18-.03-.02-.06-.03-.09-.04-.1-.05-.19-.1-.29-.14-.05-.02-.1-.05-.16-.07-.08-.03-.15-.07-.23-.1-.08-.03-.15-.06-.23-.09-.05-.02-.11-.04-.16-.06-.1-.04-.2-.07-.3-.1-.03-.01-.07-.02-.1-.03-.12-.04-.24-.07-.35-.11-.02,0-.03-.01-.05-.01-.13-.04-.26-.07-.39-.1,0,0-.02,0-.03,0-.02,0-.05-.01-.07-.02l-.37-2.77h-3.85l-.37,2.77s-.05.01-.07.02c0,0-.02,0-.03,0-.13.03-.26.06-.39.1-.02,0-.03,0-.05.01-.12.03-.24.07-.36.11-.03.01-.06.02-.1.03-.1.03-.2.07-.3.1-.05.02-.11.04-.16.06-.08.03-.16.06-.23.09-.08.03-.15.07-.23.1-.05.02-.11.05-.16.07-.1.04-.19.09-.29.14-.03.02-.06.03-.09.05-.11.06-.22.12-.33.18-.02,0-.03.02-.05.03-.12.07-.23.13-.34.2,0,0-.02,0-.02.01-.02.01-.04.02-.06.04l-2.22-1.7-2.72,2.72,1.7,2.22s-.02.04-.04.06c0,0,0,.02-.01.02-.07.11-.14.23-.2.34,0,.02-.02.03-.03.05-.06.11-.12.22-.18.33-.02.03-.03.06-.04.09-.05.1-.1.19-.14.29-.02.05-.05.1-.07.16-.03.08-.07.15-.1.23-.03.08-.06.15-.09.23-.02.05-.04.11-.06.16-.04.1-.07.2-.1.3-.01.03-.02.06-.03.1-.04.12-.07.24-.11.35,0,.02-.01.03-.02.05-.04.13-.07.26-.1.39,0,0,0,.02,0,.03,0,.02-.01.05-.02.07l-2.77.37v3.85l2.77.37s.01.05.02.07c0,0,0,.02,0,.03.03.13.06.26.1.39,0,.02.01.03.02.05.03.12.07.24.11.35.01.03.02.06.03.1.03.1.07.2.1.3.02.05.04.11.06.16.03.08.06.16.09.23.03.08.07.15.1.23.02.05.05.1.07.16.04.1.09.19.14.29.01.03.03.06.04.09.06.11.12.22.18.33,0,.02.02.03.03.05.07.12.13.23.2.34,0,0,0,.02.01.02.01.02.02.04.04.06l-1.7,2.22,2.72,2.72,2.22-1.7s.04.02.06.04c0,0,.02,0,.02.01.11.07.23.14.34.2.02,0,.03.02.05.03.11.06.22.12.33.18.03.02.06.03.09.05.1.05.19.1.29.14.05.02.1.05.16.07.08.03.15.07.23.1.08.03.16.06.23.09.05.02.11.04.16.06.1.04.2.07.3.1.03.01.06.02.1.03.12.04.24.07.36.11.02,0,.03.01.05.01.13.04.26.07.39.1,0,0,.02,0,.03,0,.02,0,.05.01.07.02l.37,2.77h3.85l.37-2.77s.05-.01.07-.02c0,0,.02,0,.03,0,.13-.03.26-.06.39-.1.02,0,.03-.01.05-.01.12-.03.24-.07.35-.11.03-.01.07-.02.1-.03.1-.03.2-.07.3-.1.05-.02.11-.04.16-.06.08-.03.15-.06.23-.09.08-.03.15-.07.23-.1.05-.02.1-.05.16-.07.1-.04.19-.09.29-.14.03-.01.06-.03.09-.04.11-.06.22-.12.33-.18.02,0,.03-.02.05-.03.12-.07.23-.13.34-.2,0,0,.02,0,.02-.01.02-.01.04-.02.06-.04l2.22,1.7,2.72-2.72-1.7-2.22s.02-.04.04-.06c0,0,0-.02.01-.02ZM416.09,275.63c0-.05,0-.1-.01-.15,0-.05,0-.1-.01-.14,0-.1,0-.2,0-.3s0-.2,0-.3c0-.05,0-.1.01-.14,0-.05,0-.1.01-.15,0-.06.01-.12.02-.18,0-.04,0-.08.01-.12,0-.06.02-.13.03-.19,0-.03.01-.07.02-.1.01-.07.03-.13.04-.19,0-.03.01-.07.02-.1.02-.06.03-.12.05-.19,0-.03.02-.07.03-.1.02-.06.04-.11.06-.17.01-.04.03-.08.04-.12.02-.05.04-.1.06-.15.02-.04.03-.09.05-.13.02-.04.04-.09.06-.13.02-.05.04-.1.07-.15.02-.04.04-.07.06-.11.03-.05.05-.11.08-.16.02-.03.04-.06.05-.1.03-.06.06-.11.1-.17.02-.03.04-.06.05-.09.03-.06.07-.11.11-.17.02-.03.04-.06.06-.08.04-.05.07-.11.11-.16.02-.03.05-.06.07-.09.04-.05.07-.1.11-.14.03-.04.07-.08.1-.12.03-.04.06-.07.09-.11.07-.07.14-.15.21-.22s.15-.14.22-.21c.04-.03.07-.06.11-.09.04-.03.08-.07.12-.1.05-.04.09-.07.14-.11.03-.02.06-.05.09-.07.05-.04.11-.08.16-.11.03-.02.06-.04.08-.06.06-.04.11-.07.17-.11.03-.02.06-.04.08-.05.06-.03.11-.06.17-.1.03-.02.06-.04.09-.05.05-.03.11-.06.16-.08.04-.02.07-.04.11-.05.05-.02.1-.05.15-.07.04-.02.09-.04.13-.06.04-.02.09-.04.13-.05.05-.02.1-.04.15-.06.04-.01.08-.03.12-.04.06-.02.11-.04.17-.06.03-.01.07-.02.1-.03.06-.02.12-.03.19-.05.03,0,.07-.02.1-.02.06-.01.13-.03.19-.04.03,0,.07-.01.1-.02.06-.01.13-.02.19-.03.04,0,.08,0,.12-.01.06,0,.12-.02.18-.02.05,0,.1,0,.15-.01.05,0,.1,0,.14-.01.1,0,.2,0,.3,0h0c.1,0,.2,0,.3,0,.05,0,.1,0,.14.01.05,0,.1,0,.15.01.06,0,.12.01.18.02.04,0,.08,0,.11.01.06,0,.13.02.19.03.03,0,.07.01.1.02.07.01.13.03.19.04.03,0,.07.01.1.02.06.02.12.03.19.05.03,0,.07.02.1.03.06.02.11.04.17.06.04.01.08.03.12.04.05.02.1.04.15.06.04.02.09.03.13.05.04.02.09.04.13.06.05.02.1.04.15.07.04.02.07.04.11.06.05.03.11.05.16.08.03.02.06.04.1.05.06.03.11.06.17.1.03.02.06.04.09.05.06.03.11.07.17.11.03.02.06.04.08.06.05.04.11.07.16.11.03.02.06.05.09.07.03.03.07.05.1.08.01.01.03.02.04.03.04.03.08.07.12.1.04.03.07.06.11.09.07.07.15.14.22.21s.14.15.21.22c.03.03.06.07.09.11.03.04.07.08.1.12.04.05.07.09.11.14.02.03.05.06.07.09.04.05.08.11.11.16.02.03.04.06.06.08.04.05.07.11.11.17.02.03.04.06.05.09.03.06.06.11.1.17.02.03.04.06.05.09.03.05.06.11.08.16.02.04.04.07.05.11.02.05.05.1.07.15.02.04.04.09.06.13.02.04.04.09.05.13.02.05.04.1.06.15.01.04.03.08.04.12.02.06.04.11.06.17.01.03.02.07.03.1.02.06.03.12.05.19,0,.03.02.07.02.1.01.06.03.13.04.19,0,.03.01.07.02.1.01.06.02.13.03.19,0,.04,0,.08.01.12,0,.06.02.12.02.18,0,.05,0,.1.01.16,0,.05,0,.09.01.14,0,.1,0,.2,0,.3s0,.2,0,.3c0,.05,0,.09-.01.14,0,.05,0,.11-.01.16,0,.06-.01.12-.02.18,0,.04,0,.08-.01.12,0,.06-.02.13-.03.19,0,.03-.01.07-.02.1-.01.06-.03.13-.04.19,0,.03-.01.07-.02.1-.02.06-.03.12-.05.19,0,.03-.02.07-.03.1-.02.06-.04.11-.06.17-.01.04-.03.08-.04.12-.02.05-.04.1-.06.15-.02.04-.03.09-.05.13-.02.04-.04.09-.06.13-.02.05-.04.1-.07.15-.02.04-.04.07-.05.11-.03.05-.05.11-.08.16-.02.03-.04.06-.05.09-.03.06-.06.11-.1.17-.02.03-.04.06-.05.09-.04.06-.07.11-.11.17-.02.03-.04.06-.06.08-.04.05-.07.11-.11.16-.02.03-.05.06-.07.09-.04.05-.07.1-.11.14-.03.04-.07.08-.1.12-.03.04-.06.07-.09.11-.07.07-.14.15-.21.22s-.15.14-.22.21c-.03.03-.07.06-.11.09-.04.03-.08.07-.12.1-.01.01-.03.02-.04.03-.03.03-.07.05-.1.08-.03.02-.06.05-.09.07-.05.04-.11.08-.16.11-.03.02-.06.04-.08.06-.05.04-.11.07-.17.11-.03.02-.06.04-.09.05-.05.03-.11.06-.17.1-.03.02-.06.04-.1.05-.05.03-.11.05-.16.08-.04.02-.07.04-.11.06-.05.02-.1.04-.15.07-.04.02-.09.04-.13.06-.04.02-.09.03-.13.05-.05.02-.1.04-.15.06-.04.01-.08.03-.12.04-.06.02-.11.04-.17.06-.03.01-.07.02-.1.03-.06.02-.12.03-.19.05-.03,0-.07.01-.1.02-.06.01-.13.03-.19.04-.03,0-.07.01-.1.02-.06.01-.13.02-.19.03-.04,0-.08,0-.11.01-.06,0-.12.02-.18.02-.05,0-.1,0-.15.01-.05,0-.1,0-.14.01-.1,0-.2,0-.3,0h0c-.1,0-.2,0-.3,0-.05,0-.1,0-.14-.01-.05,0-.1,0-.15-.01-.06,0-.12-.01-.18-.02-.04,0-.08,0-.12-.01-.06,0-.13-.02-.19-.03-.03,0-.07-.01-.1-.02-.06-.01-.13-.03-.19-.04-.03,0-.07-.01-.1-.02-.06-.02-.12-.03-.19-.05-.03,0-.07-.02-.1-.03-.06-.02-.11-.04-.17-.06-.04-.01-.08-.03-.12-.04-.05-.02-.1-.04-.15-.06-.04-.02-.09-.03-.13-.05-.04-.02-.09-.04-.13-.06-.05-.02-.1-.04-.15-.07-.04-.02-.07-.04-.11-.05-.05-.03-.11-.05-.16-.08-.03-.02-.06-.03-.09-.05-.06-.03-.11-.06-.17-.1-.03-.02-.06-.04-.08-.05-.06-.04-.11-.07-.17-.11-.03-.02-.06-.04-.08-.06-.05-.04-.11-.07-.16-.11-.03-.02-.06-.05-.09-.07-.05-.04-.1-.07-.14-.11-.04-.03-.08-.07-.12-.1-.04-.03-.07-.06-.11-.09-.07-.07-.15-.13-.22-.2h0c-.07-.08-.14-.15-.21-.22-.03-.04-.06-.07-.09-.11-.03-.04-.07-.08-.1-.12-.04-.05-.08-.09-.11-.14-.02-.03-.05-.06-.07-.09-.04-.05-.08-.11-.11-.16-.02-.03-.04-.06-.06-.08-.04-.05-.07-.11-.11-.17-.02-.03-.04-.06-.05-.09-.03-.05-.06-.11-.1-.17-.02-.03-.04-.06-.05-.1-.03-.05-.06-.11-.08-.16-.02-.04-.04-.07-.05-.11-.02-.05-.04-.1-.07-.15-.02-.04-.04-.09-.06-.13-.02-.04-.03-.09-.05-.13-.02-.05-.04-.1-.06-.15-.01-.04-.03-.08-.04-.12-.02-.06-.04-.11-.06-.17-.01-.03-.02-.07-.03-.1-.02-.06-.03-.12-.05-.19,0-.03-.02-.07-.02-.1-.01-.06-.03-.13-.04-.19,0-.03-.01-.07-.02-.1-.01-.06-.02-.13-.03-.19,0-.04,0-.08-.01-.12,0-.06-.02-.12-.02-.18Z"/>
    <path class="st24" d="M403.15,316.84c.19-.31.38-.63.56-.94.02-.04.05-.09.07-.13.17-.3.33-.6.48-.9.04-.08.08-.17.12-.25.13-.26.26-.53.38-.79.07-.14.13-.29.19-.43.09-.21.19-.42.27-.63.09-.21.17-.43.25-.64.06-.15.11-.29.17-.44.1-.27.2-.55.29-.83.03-.09.06-.18.09-.26.1-.32.2-.65.29-.98.01-.05.03-.09.04-.14.1-.35.19-.71.27-1.06,0-.02.01-.05.02-.07.01-.06.03-.13.05-.19l7.61-1.01v-10.57l-7.61-1.01c-.01-.06-.03-.13-.05-.19,0-.02-.01-.05-.02-.07-.08-.36-.17-.71-.27-1.06-.01-.05-.03-.09-.04-.14-.09-.33-.19-.65-.29-.98-.03-.09-.06-.18-.09-.26-.09-.28-.19-.56-.29-.83-.05-.15-.11-.29-.17-.44-.08-.21-.16-.43-.25-.64-.09-.21-.18-.42-.27-.63-.06-.14-.13-.29-.19-.43-.12-.27-.25-.53-.38-.79-.04-.08-.08-.17-.12-.25-.15-.3-.32-.6-.48-.9-.02-.04-.05-.09-.07-.13-.18-.32-.37-.63-.56-.94-.01-.02-.03-.04-.04-.07-.03-.06-.07-.11-.1-.17l4.67-6.09-7.47-7.47-6.09,4.67c-.06-.04-.11-.07-.17-.1-.02-.01-.04-.02-.06-.04-.31-.19-.63-.38-.95-.56-.04-.02-.08-.05-.13-.07-.3-.17-.6-.33-.9-.48-.08-.04-.16-.08-.25-.12-.26-.13-.53-.26-.8-.39-.14-.07-.28-.13-.43-.19-.21-.09-.42-.19-.63-.27-.21-.09-.42-.17-.64-.25-.15-.06-.29-.12-.44-.17-.27-.1-.55-.19-.83-.29-.09-.03-.18-.06-.27-.09-.32-.1-.65-.2-.97-.29-.05-.01-.09-.03-.14-.04-.35-.1-.7-.19-1.06-.27-.03,0-.05-.01-.08-.02-.06-.01-.13-.03-.19-.05l-1.01-7.61h-10.57l-1.01,7.61c-.06.01-.13.03-.19.05-.02,0-.05.01-.07.02-.36.08-.71.17-1.06.27-.05.01-.09.03-.14.04-.33.09-.65.19-.98.29-.09.03-.18.06-.26.09-.28.09-.56.19-.83.29-.15.05-.29.11-.43.17-.21.08-.43.16-.64.25-.21.09-.42.18-.63.27-.14.06-.29.13-.43.19-.27.12-.53.25-.79.38-.08.04-.17.08-.25.12-.3.15-.6.32-.9.48-.04.02-.09.05-.13.07-.32.18-.63.37-.94.56-.02.01-.04.03-.07.04-.06.03-.11.07-.17.1l-6.09-4.67-7.47,7.47,4.67,6.09c-.03.06-.07.11-.1.17-.01.02-.03.04-.04.06-.19.31-.38.63-.56.94-.02.04-.05.08-.07.13-.17.3-.33.6-.48.9-.04.08-.08.16-.12.25-.13.26-.26.53-.39.79-.07.14-.13.28-.19.43-.09.21-.19.42-.27.63-.09.21-.17.42-.25.64-.06.15-.12.29-.17.44-.1.27-.19.55-.29.83-.03.09-.06.18-.09.27-.1.32-.2.65-.29.97-.01.05-.03.09-.04.14-.1.35-.19.7-.27,1.06,0,.03-.01.05-.02.08-.01.06-.03.13-.05.19l-7.61,1.01v10.57l7.61,1.01c.01.06.03.13.05.19,0,.03.01.05.02.08.08.36.17.71.27,1.06.01.05.03.09.04.14.09.33.19.65.29.97.03.09.06.18.09.27.09.28.19.56.29.83.05.15.11.29.17.44.08.21.16.43.25.64.09.21.18.42.27.63.06.14.12.29.19.43.12.27.25.53.39.79.04.08.08.17.12.25.15.3.32.6.48.9.02.04.05.08.07.13.18.32.37.63.56.94.01.02.03.04.04.06.03.06.07.11.1.17l-4.67,6.09,7.47,7.47,6.09-4.67c.06.03.11.07.17.1.02.01.04.03.07.04.31.19.62.38.94.56.04.02.09.05.13.07.3.17.59.33.9.48.08.04.17.08.25.12.26.13.53.26.79.38.14.07.29.13.43.19.21.09.42.19.63.27.21.09.43.17.64.25.14.06.29.11.43.17.28.1.55.2.83.29.09.03.18.06.26.09.32.1.65.2.98.29.05.01.09.03.14.04.35.1.71.19,1.06.27.02,0,.05.01.07.02.06.01.13.03.19.05l1.01,7.61h10.57l1.01-7.61c.06-.01.13-.03.19-.05.03,0,.05-.01.08-.02.36-.08.71-.17,1.06-.27.05-.01.1-.03.14-.04.33-.09.65-.19.97-.29.09-.03.18-.06.27-.09.28-.09.55-.19.83-.29.15-.05.29-.11.44-.17.21-.08.43-.16.64-.25.21-.09.42-.18.63-.27.14-.06.29-.12.43-.19.27-.12.53-.25.8-.39.08-.04.16-.08.25-.12.3-.16.6-.32.9-.48.04-.02.08-.05.13-.07.32-.18.63-.37.95-.56.02-.01.04-.02.06-.04.06-.03.11-.07.17-.1l6.09,4.67,7.47-7.47-4.67-6.09c.03-.06.07-.11.1-.17.01-.02.03-.04.04-.07ZM362.15,303.52c-.01-.14-.02-.28-.03-.42,0-.13-.02-.26-.03-.39-.01-.28-.02-.55-.02-.83s0-.56.02-.83c0-.13.02-.26.03-.39.01-.14.02-.28.03-.42.02-.17.04-.33.06-.5.01-.11.02-.21.04-.32.03-.18.06-.36.09-.53.02-.09.03-.18.05-.27.04-.18.08-.36.12-.53.02-.09.04-.18.06-.27.04-.17.09-.34.14-.51.03-.1.05-.19.08-.29.05-.16.1-.32.15-.47.04-.11.07-.21.11-.32.05-.14.1-.28.16-.42.05-.12.09-.24.14-.36.05-.12.1-.24.16-.36.06-.14.12-.27.18-.4.05-.1.1-.2.15-.31.07-.15.15-.29.22-.44.05-.09.1-.17.15-.26.09-.15.17-.31.26-.46.05-.08.1-.16.15-.23.1-.15.19-.31.29-.46.05-.08.11-.15.16-.23.1-.15.2-.29.31-.44.06-.09.13-.17.2-.25.1-.13.2-.26.31-.39.09-.11.19-.22.28-.33.09-.1.17-.2.26-.3.19-.2.38-.41.57-.6s.4-.39.6-.57c.1-.09.2-.17.3-.26.11-.09.21-.19.32-.28.13-.11.26-.21.39-.31.08-.07.17-.13.25-.2.14-.11.29-.21.44-.31.08-.05.15-.11.23-.16.15-.1.31-.2.46-.3.08-.05.15-.1.23-.15.15-.09.31-.18.46-.26.09-.05.17-.1.26-.14.15-.08.29-.15.44-.23.1-.05.2-.1.3-.15.13-.06.27-.12.41-.18.12-.05.24-.11.36-.15.12-.05.24-.1.37-.14.14-.05.28-.11.42-.16.11-.04.21-.07.32-.11.16-.05.31-.1.47-.15.1-.03.19-.05.29-.08.17-.05.34-.1.51-.14.09-.02.18-.04.27-.06.18-.04.35-.08.53-.12.09-.02.18-.03.28-.05.18-.03.35-.06.53-.09.11-.02.21-.03.32-.04.16-.02.33-.04.49-.06.14-.01.28-.02.43-.03.13,0,.26-.02.39-.03.28-.01.55-.02.83-.02h0c.28,0,.56,0,.83.02.13,0,.26.02.4.03.14.01.28.02.42.03.17.02.33.04.5.06.11.01.21.02.32.04.18.03.35.06.53.09.09.02.18.03.27.05.18.04.36.08.53.12.09.02.18.04.27.06.17.04.34.09.51.14.09.03.19.05.28.08.16.05.32.1.47.15.11.04.21.07.32.11.14.05.28.1.42.16.12.05.24.09.36.14.12.05.24.1.36.16.14.06.27.12.41.18.1.05.2.1.31.15.15.07.29.15.44.22.09.05.18.1.26.15.15.09.31.17.46.26.08.05.16.1.24.15.15.1.31.19.46.29.08.05.15.11.23.16.15.1.29.2.44.31.09.06.17.13.26.2.09.07.19.15.28.22.03.03.07.05.1.08.11.09.22.19.33.28.1.08.2.17.29.25.2.19.41.38.6.57s.39.4.57.6c.09.1.17.2.25.29.09.11.19.22.28.33.1.13.2.26.31.39.07.08.13.17.2.25.11.14.21.29.31.44.05.08.11.15.16.23.1.15.2.3.29.46.05.08.1.16.15.23.09.15.18.31.26.46.05.09.1.17.15.26.08.15.15.29.23.44.05.1.1.2.15.3.06.13.12.27.18.41.05.12.11.24.16.36.05.12.1.24.14.37.05.14.11.28.16.42.04.11.07.21.11.32.05.16.1.31.15.47.03.1.05.19.08.29.05.17.1.34.14.51.02.09.04.18.06.27.04.18.08.35.12.53.02.09.03.18.05.28.03.18.06.35.09.53.02.11.03.21.04.32.02.16.04.33.06.49.01.14.02.29.03.43,0,.13.02.26.03.39.01.28.02.55.02.83s0,.56-.02.83c0,.13-.02.26-.03.39-.01.14-.02.29-.03.43-.02.16-.04.33-.06.49-.01.11-.03.21-.04.32-.03.18-.06.35-.09.53-.02.09-.03.18-.05.28-.04.18-.08.35-.12.53-.02.09-.04.18-.06.27-.04.17-.09.34-.14.51-.03.1-.05.19-.08.29-.05.16-.1.31-.15.47-.04.11-.07.22-.11.32-.05.14-.1.28-.16.42-.05.12-.09.24-.14.37-.05.12-.1.24-.16.36-.06.14-.12.27-.18.41-.05.1-.1.2-.15.3-.07.15-.15.3-.23.44-.05.09-.1.17-.15.26-.09.15-.17.31-.26.46-.05.08-.1.16-.15.23-.1.15-.19.31-.29.46-.05.08-.11.15-.16.23-.1.15-.2.29-.31.44-.06.09-.13.17-.2.25-.1.13-.2.26-.31.39-.09.11-.19.22-.28.33-.08.1-.17.2-.25.29-.19.2-.38.41-.57.6s-.4.39-.6.57c-.1.09-.19.17-.29.25-.11.1-.22.19-.33.28-.03.03-.07.05-.1.08-.09.08-.19.15-.28.22-.09.07-.17.13-.26.2-.14.11-.29.21-.44.31-.08.05-.15.11-.23.16-.15.1-.3.2-.46.29-.08.05-.16.1-.24.15-.15.09-.3.18-.46.26-.09.05-.17.1-.26.15-.14.08-.29.15-.44.22-.1.05-.2.1-.31.15-.13.06-.27.12-.41.18-.12.05-.24.11-.36.16-.12.05-.24.1-.36.14-.14.05-.28.11-.42.16-.11.04-.21.07-.32.11-.16.05-.31.1-.47.15-.09.03-.19.05-.28.08-.17.05-.34.1-.51.14-.09.02-.18.04-.27.06-.18.04-.36.08-.53.12-.09.02-.18.03-.27.05-.18.03-.35.06-.53.09-.1.02-.21.03-.32.04-.17.02-.33.04-.5.06-.14.01-.28.02-.42.03-.13,0-.26.02-.4.03-.28.01-.55.02-.83.02h0c-.28,0-.56,0-.83-.02-.13,0-.26-.02-.39-.03-.14-.01-.28-.02-.43-.03-.16-.02-.33-.04-.49-.06-.11-.01-.21-.03-.32-.04-.18-.03-.35-.06-.53-.09-.09-.02-.18-.03-.28-.05-.18-.03-.35-.08-.53-.12-.09-.02-.18-.04-.27-.06-.17-.04-.34-.09-.51-.14-.1-.03-.19-.05-.29-.08-.16-.05-.31-.1-.47-.15-.11-.04-.22-.07-.32-.11-.14-.05-.28-.1-.42-.16-.12-.05-.25-.09-.37-.14-.12-.05-.24-.1-.36-.15-.14-.06-.27-.12-.41-.18-.1-.05-.2-.1-.3-.15-.15-.07-.3-.15-.44-.23-.09-.05-.17-.1-.26-.14-.15-.09-.31-.17-.46-.26-.08-.05-.16-.1-.23-.15-.15-.1-.31-.19-.46-.3-.08-.05-.15-.11-.23-.16-.15-.1-.3-.21-.44-.31-.08-.06-.17-.13-.25-.2-.13-.1-.26-.2-.39-.31-.11-.09-.22-.18-.32-.28-.1-.09-.2-.17-.3-.26-.2-.18-.4-.37-.59-.56l-.02-.02c-.19-.19-.38-.39-.56-.59-.09-.1-.17-.2-.26-.3-.09-.11-.19-.21-.28-.32-.11-.13-.21-.26-.31-.39-.06-.08-.13-.17-.19-.25-.11-.14-.21-.29-.31-.44-.05-.08-.11-.15-.16-.23-.1-.15-.2-.3-.29-.46-.05-.08-.1-.16-.15-.23-.09-.15-.18-.3-.26-.46-.05-.09-.1-.17-.15-.26-.08-.14-.15-.29-.22-.44-.05-.1-.1-.2-.15-.31-.06-.13-.12-.27-.18-.41-.05-.12-.11-.24-.16-.36-.05-.12-.1-.24-.14-.36-.05-.14-.11-.28-.16-.42-.04-.11-.07-.21-.11-.32-.05-.16-.1-.31-.15-.47-.03-.09-.05-.19-.08-.29-.05-.17-.1-.34-.14-.51-.02-.09-.04-.18-.06-.27-.04-.18-.08-.36-.12-.53-.02-.09-.03-.18-.05-.27-.03-.18-.06-.35-.09-.53-.02-.1-.03-.21-.04-.32-.02-.16-.04-.33-.06-.5Z"/>
    <path class="st2" d="M275.04,177.93c.19-.31.38-.63.56-.94.02-.04.05-.09.07-.13.17-.3.33-.59.48-.9.04-.08.08-.17.12-.25.13-.26.26-.53.38-.79.07-.14.13-.29.19-.43.09-.21.19-.42.27-.63.09-.21.17-.43.25-.64.06-.15.11-.29.17-.44.1-.27.2-.55.29-.83.03-.09.06-.18.09-.26.1-.32.2-.65.29-.98.01-.05.03-.09.04-.14.1-.35.19-.71.27-1.06,0-.02.01-.05.02-.07.01-.06.03-.13.05-.19l7.61-1.01v-10.57l-7.61-1.01c-.01-.06-.03-.13-.05-.19,0-.02-.01-.05-.02-.07-.08-.36-.17-.71-.27-1.06-.01-.05-.03-.09-.04-.14-.09-.33-.19-.65-.29-.98-.03-.09-.06-.18-.09-.26-.09-.28-.19-.56-.29-.83-.05-.15-.11-.29-.17-.44-.08-.21-.16-.43-.25-.64-.09-.21-.18-.42-.27-.63-.06-.14-.13-.29-.19-.43-.12-.27-.25-.53-.38-.79-.04-.08-.08-.17-.12-.25-.15-.3-.32-.6-.48-.9-.02-.04-.05-.09-.07-.13-.18-.32-.37-.63-.56-.94-.01-.02-.03-.04-.04-.07-.03-.06-.07-.11-.1-.17l4.67-6.09-7.47-7.47-6.09,4.67c-.06-.04-.11-.07-.17-.1-.02-.01-.04-.02-.06-.04-.31-.19-.63-.38-.95-.56-.04-.02-.08-.05-.13-.07-.3-.17-.6-.33-.9-.48-.08-.04-.16-.08-.25-.12-.26-.13-.53-.26-.8-.39-.14-.07-.28-.13-.43-.19-.21-.09-.42-.19-.63-.27-.21-.09-.42-.17-.64-.25-.15-.06-.29-.12-.44-.17-.27-.1-.55-.19-.83-.29-.09-.03-.18-.06-.27-.09-.32-.1-.65-.2-.97-.29-.05-.01-.1-.03-.14-.04-.35-.1-.7-.19-1.06-.27-.03,0-.05-.01-.08-.02-.06-.01-.13-.03-.19-.05l-1.01-7.61h-10.57l-1.01,7.61c-.06.01-.13.03-.19.05-.02,0-.05.01-.07.02-.36.08-.71.17-1.06.27-.05.01-.09.03-.14.04-.33.09-.65.19-.98.29-.09.03-.18.06-.26.09-.28.09-.56.19-.83.29-.15.05-.29.11-.43.17-.21.08-.43.16-.64.25-.21.09-.42.18-.63.27-.14.06-.29.13-.43.19-.27.12-.53.25-.79.38-.08.04-.17.08-.25.12-.3.15-.6.32-.9.48-.04.02-.09.05-.13.07-.32.18-.63.37-.94.56-.02.01-.04.03-.07.04-.06.03-.11.07-.17.1l-6.09-4.67-7.47,7.47,4.67,6.09c-.03.06-.07.11-.1.17-.01.02-.03.04-.04.06-.19.31-.38.63-.56.94-.02.04-.05.08-.07.13-.17.3-.33.6-.48.9-.04.08-.08.16-.12.25-.13.26-.26.53-.39.79-.07.14-.13.28-.19.43-.09.21-.19.42-.27.63-.09.21-.17.42-.25.64-.06.15-.12.29-.17.44-.1.27-.19.55-.29.83-.03.09-.06.18-.09.27-.1.32-.2.65-.29.97-.01.05-.03.09-.04.14-.1.35-.19.7-.27,1.06,0,.03-.01.05-.02.08-.01.06-.03.13-.05.19l-7.61,1.01v10.57l7.61,1.01c.01.06.03.13.05.19,0,.03.01.05.02.08.08.36.17.71.27,1.06.01.05.03.09.04.14.09.33.19.65.29.97.03.09.06.18.09.27.09.28.19.56.29.83.05.15.11.29.17.44.08.21.16.43.25.64.09.21.18.42.27.63.06.14.12.29.19.43.12.27.25.53.39.79.04.08.08.17.12.25.15.3.32.6.48.9.02.04.05.08.07.13.18.32.37.63.56.94.01.02.03.04.04.06.03.06.07.11.1.17l-4.67,6.09,7.47,7.47,6.09-4.67c.06.03.11.07.17.1.02.01.04.03.07.04.31.19.62.38.94.56.04.02.09.05.13.07.3.17.59.33.9.48.08.04.17.08.25.12.26.13.53.26.79.38.14.07.29.13.43.19.21.09.42.19.63.27.21.09.43.17.64.25.14.06.29.11.43.17.28.1.55.2.83.29.09.03.18.06.26.09.32.1.65.2.98.29.05.01.09.03.14.04.35.1.71.19,1.06.27.02,0,.05.01.07.02.06.01.13.03.19.05l1.01,7.61h10.57l1.01-7.61c.06-.01.13-.03.19-.05.03,0,.05-.01.08-.02.36-.08.71-.17,1.06-.27.05-.01.09-.03.14-.04.33-.09.65-.19.97-.29.09-.03.18-.06.27-.09.28-.09.55-.19.83-.29.15-.05.29-.11.44-.17.21-.08.43-.16.64-.25.21-.09.42-.18.63-.27.14-.06.29-.12.43-.19.27-.12.53-.25.8-.39.08-.04.16-.08.25-.12.3-.16.6-.32.9-.48.04-.02.08-.05.13-.07.32-.18.63-.37.95-.56.02-.01.04-.02.06-.04.06-.03.11-.07.17-.1l6.09,4.67,7.47-7.47-4.67-6.09c.04-.06.07-.11.1-.17.01-.02.03-.04.04-.07ZM234.04,164.61c-.01-.14-.02-.28-.03-.42,0-.13-.02-.26-.03-.39-.01-.28-.02-.55-.02-.83s0-.56.02-.83c0-.13.02-.26.03-.39.01-.14.02-.28.03-.42.02-.17.04-.33.06-.5.01-.11.02-.21.04-.32.03-.18.06-.36.09-.53.02-.09.03-.18.05-.27.04-.18.08-.36.12-.53.02-.09.04-.18.06-.27.04-.17.09-.34.14-.51.03-.1.05-.19.08-.29.05-.16.1-.32.15-.47.04-.11.07-.21.11-.32.05-.14.1-.28.16-.42.05-.12.09-.24.14-.36.05-.12.1-.24.16-.36.06-.14.12-.27.18-.4.05-.1.1-.2.15-.31.07-.15.15-.29.22-.44.05-.09.1-.17.15-.26.09-.15.17-.31.26-.46.05-.08.1-.16.15-.23.1-.15.19-.31.29-.46.05-.08.11-.15.16-.23.1-.15.2-.29.31-.44.06-.09.13-.17.2-.25.1-.13.2-.26.31-.39.09-.11.19-.22.28-.33.09-.1.17-.2.26-.3.19-.2.38-.41.57-.6.2-.2.4-.39.6-.57.1-.09.2-.17.3-.26.11-.09.21-.19.32-.28.13-.11.26-.21.39-.31.08-.07.17-.13.25-.2.14-.11.29-.21.44-.31.08-.05.15-.11.23-.16.15-.1.31-.2.46-.3.08-.05.15-.1.23-.15.15-.09.31-.18.46-.26.09-.05.17-.1.26-.14.15-.08.29-.15.44-.23.1-.05.2-.1.3-.15.13-.06.27-.12.41-.18.12-.05.24-.11.36-.15.12-.05.24-.1.37-.14.14-.05.28-.11.42-.16.11-.04.22-.07.32-.11.16-.05.31-.1.47-.15.1-.03.19-.05.29-.08.17-.05.34-.1.51-.14.09-.02.18-.04.27-.06.18-.04.35-.08.53-.12.09-.02.18-.03.28-.05.18-.03.35-.06.53-.09.11-.02.21-.03.32-.04.16-.02.33-.04.49-.06.14-.01.28-.02.43-.03.13,0,.26-.02.39-.03.28-.01.55-.02.83-.02h0c.28,0,.56,0,.83.02.13,0,.26.02.4.03.14.01.28.02.42.03.17.02.33.04.5.06.11.01.21.02.32.04.18.03.35.06.53.09.09.02.18.03.27.05.18.04.36.08.53.12.09.02.18.04.27.06.17.04.34.09.51.14.09.03.19.05.28.08.16.05.32.1.47.15.11.04.21.07.32.11.14.05.28.1.42.16.12.05.24.09.36.14.12.05.24.1.36.16.14.06.27.12.41.18.1.05.2.1.31.15.15.07.29.15.44.22.09.05.18.1.26.15.15.09.31.17.46.26.08.05.16.1.24.15.15.1.31.19.46.29.08.05.15.11.23.16.15.1.29.2.44.31.09.06.17.13.26.2.09.07.19.15.28.22.03.03.07.05.11.08.11.09.22.19.33.28.1.08.2.17.29.25.2.19.41.38.6.57s.39.4.57.6c.09.1.17.2.26.29.09.11.19.22.28.33.1.13.2.26.31.39.07.08.13.17.2.25.11.14.21.29.31.44.05.08.11.15.16.23.1.15.2.3.29.46.05.08.1.16.15.23.09.15.18.31.26.46.05.09.1.17.15.26.08.15.15.29.23.44.05.1.1.2.15.3.06.13.12.27.18.41.05.12.11.24.16.36.05.12.1.24.14.37.05.14.11.28.16.42.04.11.07.21.11.32.05.16.1.31.15.47.03.1.05.19.08.29.05.17.1.34.14.51.02.09.04.18.06.27.04.18.08.35.12.53.02.09.03.18.05.28.03.18.06.35.09.53.02.11.03.21.04.32.02.16.04.33.06.49.01.14.02.29.03.43,0,.13.02.26.03.39.01.28.02.55.02.83s0,.56-.02.83c0,.13-.02.26-.03.39-.01.14-.02.29-.03.43-.02.16-.04.33-.06.49-.01.11-.03.21-.04.32-.03.18-.06.35-.09.53-.02.09-.03.18-.05.28-.04.18-.08.35-.12.53-.02.09-.04.18-.06.27-.04.17-.09.34-.14.51-.03.1-.05.19-.08.29-.05.16-.1.31-.15.47-.04.11-.07.22-.11.32-.05.14-.1.28-.16.42-.05.12-.09.24-.14.37-.05.12-.1.24-.16.36-.06.14-.12.27-.18.41-.05.1-.1.2-.15.3-.07.15-.15.3-.23.44-.05.09-.1.17-.15.26-.09.15-.17.31-.26.46-.05.08-.1.16-.15.23-.1.15-.19.31-.29.46-.05.08-.11.15-.16.23-.1.15-.2.29-.31.44-.06.09-.13.17-.2.25-.1.13-.2.26-.31.39-.09.11-.19.22-.28.33-.08.1-.17.2-.26.29-.19.2-.38.41-.57.6s-.4.39-.6.57c-.1.09-.19.17-.29.25-.11.1-.22.19-.33.28-.03.03-.07.05-.11.08-.09.08-.19.15-.28.22-.09.07-.17.13-.26.2-.14.11-.29.21-.44.31-.08.05-.15.11-.23.16-.15.1-.3.2-.46.29-.08.05-.16.1-.24.15-.15.09-.3.18-.46.26-.09.05-.17.1-.26.15-.14.08-.29.15-.44.22-.1.05-.2.1-.31.15-.13.06-.27.12-.41.18-.12.05-.24.11-.36.16-.12.05-.24.1-.36.14-.14.05-.28.11-.42.16-.11.04-.21.07-.32.11-.16.05-.31.1-.47.15-.09.03-.19.05-.28.08-.17.05-.34.1-.51.14-.09.02-.18.04-.27.06-.18.04-.36.08-.53.12-.09.02-.18.03-.27.05-.18.03-.35.06-.53.09-.1.02-.21.03-.32.04-.17.02-.33.04-.5.06-.14.01-.28.02-.42.03-.13,0-.26.02-.4.03-.28.01-.55.02-.83.02h0c-.28,0-.56,0-.83-.02-.13,0-.26-.02-.39-.03-.14-.01-.28-.02-.43-.03-.16-.02-.33-.04-.49-.06-.11-.01-.21-.03-.32-.04-.18-.03-.35-.06-.53-.09-.09-.02-.18-.03-.28-.05-.18-.03-.35-.08-.53-.12-.09-.02-.18-.04-.27-.06-.17-.04-.34-.09-.51-.14-.1-.03-.19-.05-.29-.08-.16-.05-.31-.1-.47-.15-.11-.04-.22-.07-.32-.11-.14-.05-.28-.1-.42-.16-.12-.05-.25-.09-.37-.14-.12-.05-.24-.1-.36-.15-.14-.06-.27-.12-.41-.18-.1-.05-.2-.1-.3-.15-.15-.07-.3-.15-.44-.23-.09-.05-.17-.1-.26-.14-.15-.09-.31-.17-.46-.26-.08-.05-.16-.1-.23-.15-.15-.1-.31-.19-.46-.3-.08-.05-.15-.11-.23-.16-.15-.1-.3-.21-.44-.31-.08-.06-.17-.13-.25-.2-.13-.1-.26-.2-.39-.31-.11-.09-.22-.18-.32-.28-.1-.09-.2-.17-.3-.26-.2-.18-.4-.37-.59-.56,0,0-.01-.01-.02-.02-.19-.19-.38-.39-.56-.59-.09-.1-.17-.2-.26-.3-.09-.11-.19-.21-.28-.32-.11-.13-.21-.26-.31-.39-.06-.08-.13-.17-.19-.25-.11-.14-.21-.29-.31-.44-.05-.08-.11-.15-.16-.23-.1-.15-.2-.3-.29-.46-.05-.08-.1-.16-.15-.23-.09-.15-.18-.3-.26-.46-.05-.09-.1-.17-.15-.26-.08-.14-.15-.29-.22-.44-.05-.1-.1-.2-.15-.31-.06-.13-.12-.27-.18-.41-.05-.12-.11-.24-.16-.36-.05-.12-.1-.24-.14-.36-.05-.14-.11-.28-.16-.42-.04-.11-.07-.21-.11-.32-.05-.16-.1-.31-.15-.47-.03-.09-.05-.19-.08-.29-.05-.17-.1-.34-.14-.51-.02-.09-.04-.18-.06-.27-.04-.18-.08-.36-.12-.53-.02-.09-.03-.18-.05-.27-.03-.18-.06-.35-.09-.53-.02-.1-.03-.21-.04-.32-.02-.16-.04-.33-.06-.5Z"/>
    <g>
      <g>
        <polygon class="st13" points="378.9 47 373.53 58.07 384.27 58.07 378.9 47"/>
        <polygon class="st10" points="373.53 58.07 369.2 66.99 369.2 232.78 388.6 232.78 388.6 66.99 384.27 58.07 373.53 58.07"/>
      </g>
      <rect class="st13" x="369.2" y="66.99" width="19.4" height="165.78"/>
      <rect class="st4" x="375.86" y="66.99" width="6.09" height="165.78"/>
    </g>
    <g>
      <g>
        <polygon class="st5" points="414.48 47 409.11 58.07 419.85 58.07 414.48 47"/>
        <polygon class="st10" points="409.11 58.07 404.78 66.99 404.78 232.78 424.18 232.78 424.18 66.99 419.85 58.07 409.11 58.07"/>
      </g>
      <rect class="st5" x="404.78" y="66.99" width="19.4" height="165.78"/>
      <rect class="st29" x="411.43" y="66.99" width="6.09" height="165.78"/>
    </g>
    <g>
      <path class="st8" d="M335.08,445.02h137.79c12.26,0,22.19-9.94,22.19-22.19v-104.45c0-12.26-9.94-22.19-22.19-22.19h-139.49c-12.26,0-22.19,9.94-22.19,22.19v42.88c0,8.05-6.53,14.58-14.58,14.58h0c-8.05,0-14.58-6.53-14.58-14.58v-101.68"/>
      <g>
        <path class="st10" d="M320.09,178.18c1.38-19.39-13.98-35.88-33.42-35.88h-7.13c-19.44,0-34.8,16.49-33.42,35.88l2.25,31.77h69.46l2.25-31.77Z"/>
        <path class="st17" d="M248.37,209.95l1.31,18.49c1.24,17.54,15.84,31.13,33.42,31.13h0c17.58,0,32.18-13.59,33.42-31.13l1.31-18.49h-69.46Z"/>
      </g>
      <path class="st34" d="M283.1,246.09h0c-2.1,0-3.8-1.7-3.8-3.8v-15.9c0-2.1,1.7-3.8,3.8-3.8h0c2.1,0,3.8,1.7,3.8,3.8v15.9c0,2.1-1.7,3.8-3.8,3.8Z"/>
    </g>
    <g>
      <path class="st31" d="M112.95,261.94h-14.44v41.64h41.64v-14.29c-12.84-4.29-22.98-14.47-27.2-27.35Z"/>
      <path class="st12" d="M196.02,241.27c-3.47-20.21-21.07-35.6-42.28-35.6-23.7,0-42.91,19.21-42.91,42.91,0,4.66.75,9.15,2.13,13.36h27.2v27.35c4.27,1.43,8.84,2.21,13.59,2.21,8,0,15.48-2.19,21.89-6.01l-28.11-16.23,48.49-28Z"/>
      <path class="st9" d="M112.95,261.94c4.21,12.88,14.35,23.06,27.2,27.35v-27.35h-27.2Z"/>
      <path class="st32" d="M218.01,228.57l-21.99,12.7c.41,2.38.63,4.82.63,7.32,0,15.7-8.44,29.43-21.02,36.91l42.38,24.47v-81.39Z"/>
      <path class="st4" d="M196.65,248.59c0-2.5-.23-4.94-.63-7.32l-48.49,28,28.11,16.23c12.58-7.48,21.02-21.21,21.02-36.91Z"/>
    </g>
    <g>
      <g>
        <rect class="st4" x="177" y="120.79" width="86.64" height="4" transform="translate(-18.36 204.36) rotate(-48)"/>
        <rect class="st13" x="174.02" y="118.11" width="86.64" height="4" transform="translate(-17.35 201.26) rotate(-48)"/>
      </g>
      <rect class="st4" x="188.45" y="139.78" width="13.44" height="15.91" rx="2.51" ry="2.51" transform="translate(241.36 388.11) rotate(-138)"/>
      <path class="st11" d="M116.08,181.36c-1.69,9.74.02,19.92,5.03,28.66,2.2,3.84,5.04,7.41,8.5,10.53,17.57,15.82,44.65,14.4,60.47-3.17,3.13-3.47,5.58-7.31,7.36-11.36,4.07-9.21,4.71-19.51,2-29.03-2.12-7.49-6.32-14.49-12.53-20.08-17.57-15.82-44.65-14.4-60.47,3.17-5.59,6.21-9.03,13.61-10.36,21.28Z"/>
      <path class="st13" d="M109.91,180.28c-1.94,11.17.02,22.84,5.77,32.84,2.52,4.41,5.77,8.49,9.75,12.06,20.14,18.13,51.17,16.51,69.3-3.63,3.58-3.98,6.39-8.38,8.44-13.02,4.66-10.55,5.39-22.36,2.29-33.27-2.43-8.58-7.24-16.6-14.36-23.01-20.14-18.13-51.17-16.51-69.3,3.63-6.41,7.12-10.35,15.6-11.88,24.39ZM186.91,156.91c6.21,5.59,10.41,12.59,12.53,20.08,2.71,9.51,2.07,19.82-2,29.03-1.78,4.05-4.24,7.89-7.36,11.36-15.82,17.57-42.89,18.99-60.47,3.17-3.47-3.12-6.31-6.68-8.5-10.53-5.02-8.73-6.72-18.91-5.03-28.66,1.33-7.67,4.77-15.07,10.36-21.28,15.82-17.57,42.9-18.99,60.47-3.17Z"/>
      <path class="st11" d="M116.08,181.36c-.87,5.05-.83,10.21.11,15.24,1.8-5.48,4.74-10.69,8.86-15.26,12.74-14.15,32.78-17.82,49.28-10.45,3.99,1.78,7.77,4.2,11.19,7.28,6.21,5.59,10.41,12.59,12.53,20.08.36,1.27.66,2.55.9,3.85,2.68-8.15,2.83-16.92.5-25.1-2.12-7.49-6.32-14.49-12.53-20.08-17.57-15.82-44.65-14.4-60.47,3.17-5.59,6.21-9.03,13.61-10.36,21.28Z"/>
      <g>
        <path class="st29" d="M218.83,121.45l3.69,3.32c.72.65,1.84.59,2.49-.13l49.08-54.51c.76-.84.69-2.14-.15-2.89l-3.47-3.13-51.63,57.35Z"/>
        <path class="st5" d="M215.14,118.13l3.69,3.32,51.63-57.35-3.47-3.13c-.84-.76-2.14-.69-2.89.15l-49.08,54.51c-.65.72-.59,1.84.13,2.49Z"/>
        <path class="st4" d="M273.93,67.23l.28.25,1.96-2.18c.54-.6.49-1.52-.11-2.05l-2.67-2.41-2.94,3.26,3.47,3.13Z"/>
        <path class="st13" d="M273.4,60.85l-2.67-2.41c-.6-.54-1.52-.49-2.05.11l-1.96,2.18.28.25,3.47,3.13,2.94-3.26Z"/>
      </g>
    </g>
    <g>
      <g>
        <g>
          <path class="st6" d="M305.57,180.12v1.85c0,3.49,2.83,6.32,6.32,6.32h5.94v-8.17h-12.26Z"/>
          <path class="st30" d="M317.83,180.12v8.17h5.94c3.49,0,6.32-2.83,6.32-6.32v-1.85h-12.26Z"/>
        </g>
        <g>
          <path class="st15" d="M317.83,160.87v20h11.32c4.16,0,7.53-3.37,7.53-7.53v-12.47h-18.85Z"/>
          <path class="st22" d="M298.98,160.87v12.47c0,4.16,3.37,7.53,7.53,7.53h11.32v-20h-18.85Z"/>
        </g>
        <g>
          <path class="st16" d="M299.17,162.96c-.7,0-1.27.57-1.27,1.27s.57,1.27,1.27,1.27h18.66v-2.54h-18.66Z"/>
          <path class="st23" d="M336.5,162.96h-18.66v2.54h18.66c.7,0,1.27-.57,1.27-1.27s-.57-1.27-1.27-1.27Z"/>
        </g>
        <g>
          <path class="st16" d="M299.17,167.82c-.7,0-1.27.57-1.27,1.27s.57,1.27,1.27,1.27h18.66v-2.54h-18.66Z"/>
          <path class="st23" d="M336.5,167.82h-18.66v2.54h18.66c.7,0,1.27-.57,1.27-1.27s-.57-1.27-1.27-1.27Z"/>
        </g>
        <g>
          <path class="st16" d="M299.17,172.69c-.7,0-1.27.57-1.27,1.27s.57,1.27,1.27,1.27h18.66v-2.54h-18.66Z"/>
          <path class="st23" d="M336.5,172.69h-18.66v2.54h18.66c.7,0,1.27-.57,1.27-1.27s-.57-1.27-1.27-1.27Z"/>
        </g>
        <path class="st0" d="M358.93,99.45c0,10.89-4.24,20.78-11.15,28.14-5.75,6.11-9.08,14.11-9.08,22.5v5.84c0,1.9-.72,3.63-1.89,4.94h-37.96c-1.17-1.31-1.89-3.04-1.89-4.94v-5.8c0-5.72-1.48-11.31-4.29-16.19-1.26-2.19-2.77-4.23-4.54-6.08-7.29-7.61-11.68-18.03-11.39-29.47.56-21.9,18.57-39.71,40.48-40.03,7.56-.11,14.66,1.82,20.79,5.28,12.49,7.06,20.92,20.46,20.92,35.82Z"/>
        <path class="st27" d="M341.67,82.68c0,27.56-21.73,50.05-49,51.25-1.26-2.19-2.77-4.23-4.54-6.08-7.29-7.61-11.68-18.03-11.39-29.47.56-21.9,18.57-39.71,40.48-40.03,7.56-.11,14.66,1.82,20.79,5.28,2.36,5.89,3.66,12.32,3.66,19.05Z"/>
      </g>
      <path class="st13" d="M319.79,145.14c1.75-1.05,2.98-3.46,2.98-6.27,0-.74-.09-1.46-.25-2.13h-3.2v-24.24h2.05c.59,0,1.06-.48,1.06-1.06s-.48-1.06-1.06-1.06h-7.08c-.59,0-1.06.48-1.06,1.06s.48,1.06,1.06,1.06h2.06v24.24h-3.2c-.16.67-.25,1.38-.25,2.13,0,2.81,1.23,5.22,2.98,6.27-.72.58-1.19,1.45-1.19,2.44v13.29h6.27v-13.29c0-.99-.47-1.86-1.19-2.44Z"/>
      <path class="st7" d="M293.74,95.82c4.01,0,4.01,7.61,8.03,7.61s4.01-7.61,8.03-7.61,4.01,7.61,8.02,7.61,4.02-7.61,8.03-7.61,4.02,7.61,8.04,7.61,4.02-7.61,8.04-7.61"/>
    </g>
    <g>
      <path class="st13" d="M348.98,308.2h20.15c2.14,0,3.87,1.74,3.87,3.87v6.9h-27.9v-6.9c0-2.14,1.74-3.87,3.87-3.87Z"/>
      <g>
        <path class="st34" d="M483.71,324.79c0-5.33-4.32-9.66-9.66-9.66h-138.55c-5.33,0-9.66,4.32-9.66,9.66v7.19h157.87v-7.19Z"/>
        <g>
          <rect class="st5" x="325.84" y="331.98" width="157.87" height="47.56"/>
          <path class="st9" d="M325.84,379.54v31.36c0,5.33,4.32,9.66,9.66,9.66h138.55c5.33,0,9.66-4.32,9.66-9.66v-31.36h-157.87Z"/>
        </g>
      </g>
      <circle class="st34" cx="404.78" cy="374.79" r="35.82" transform="translate(-146.46 395.99) rotate(-45)"/>
      <circle class="st9" cx="404.78" cy="374.79" r="32.01" transform="translate(-111.4 180.18) rotate(-22.14)"/>
      <path class="st33" d="M431.1,374.79c0,14.53-11.78,26.31-26.33,26.31-10.14,0-18.93-5.73-23.33-14.14-1.9-3.64-2.98-7.79-2.98-12.17,0-14.55,11.78-26.33,26.31-26.33,6.72,0,12.85,2.51,17.5,6.66,5.41,4.82,8.83,11.84,8.83,19.67Z"/>
      <path class="st2" d="M425.25,367.3c0,14.53-11.78,26.33-26.31,26.33-6.72,0-12.85-2.51-17.5-6.66-1.9-3.64-2.98-7.79-2.98-12.17,0-14.55,11.78-26.33,26.31-26.33,6.72,0,12.85,2.51,17.5,6.66,1.9,3.64,2.98,7.79,2.98,12.17Z"/>
      <circle class="st1" cx="397.29" cy="364.7" r="8.87"/>
      <path class="st10" d="M398.93,358.42c0-3.23,2.62-5.84,5.84-5.84s5.84,2.62,5.84,5.84-2.62,5.84-5.84,5.84-5.84-2.62-5.84-5.84Z"/>
      <rect class="st2" x="345.11" y="320.57" width="27.9" height="7.61"/>
    </g>
    <polygon class="st27" points="270.46 157.95 272.27 166.02 280.34 167.82 272.27 169.63 270.46 177.7 268.66 169.63 260.58 167.82 268.66 166.02 270.46 157.95"/>
    <polygon class="st27" points="262.36 175.63 263.63 181.31 269.32 182.58 263.63 183.86 262.36 189.54 261.09 183.86 255.4 182.58 261.09 181.31 262.36 175.63"/>
  </g>
</svg>