<?xml version="1.0" encoding="UTF-8"?>
<svg xmlns="http://www.w3.org/2000/svg" version="1.1" xmlns:xlink="http://www.w3.org/1999/xlink" viewBox="0 0 800 800">
  <!-- Generator: Adobe Illustrator 29.7.1, SVG Export Plug-In . SVG Version: 2.1.1 Build 8)  -->
  <defs>
    <style>
      .st0 {
        fill: none;
        stroke: #8c0000;
        stroke-miterlimit: 10;
        stroke-width: .55px;
      }

      .st1 {
        fill: #4d4d4d;
      }

      .st2 {
        fill: #f0f0f0;
      }

      .st3, .st4, .st5, .st6 {
        display: none;
      }

      .st3, .st4, .st6 {
        font-family: Roboto-Bold, BMSWOB+Roboto-Bold;
        font-size: 46.56px;
        font-weight: 700;
      }

      .st3, .st7 {
        fill: #2d688d;
      }

      .st8 {
        fill: #fafafb;
      }

      .st9 {
        fill: url(#radial-gradient);
      }

      .st10 {
        fill-rule: evenodd;
      }

      .st10, .st11 {
        fill: #f1f1f1;
      }

      .st4, .st12 {
        fill: #f5d1ae;
      }

      .st13 {
        fill: #1b94ad;
      }

      .st14 {
        fill: #333;
      }

      .st15, .st6 {
        fill: #ab5555;
      }

      .st16 {
        fill: #5786a4;
      }
    </style>
    <radialGradient id="radial-gradient" cx="400" cy="400" fx="400" fy="400" r="570.14" gradientUnits="userSpaceOnUse">
      <stop offset="0" stop-color="#fff" stop-opacity="0"/>
      <stop offset=".66" stop-color="#bfbfbf" stop-opacity=".08"/>
      <stop offset="1" stop-color="#1d1e1c" stop-opacity=".3"/>
    </radialGradient>
  </defs>
  <g id="Background" class="st5">
    <rect class="st15" width="800" height="266.67"/>
    <rect class="st12" y="266.67" width="800" height="266.67"/>
    <rect class="st7" y="533.33" width="800" height="266.67"/>
    <g>
      <g>
        <path class="st11" d="M397.95,774.65h.75v-.94c0-.99.12-1.76.37-2.34.24-.58.67-1,1.26-1.26.59-.26,1.41-.39,2.44-.39,1.83,0,2.74.44,2.74,1.35,0,.29-.1.54-.29.74-.19.2-.41.31-.67.31-.12,0-.34-.02-.64-.07-.29-.04-.55-.07-.75-.07-.56,0-.93.17-1.09.5-.16.33-.24.81-.24,1.43v.75h.77c1.19,0,1.79.36,1.79,1.08,0,.51-.16.83-.48.97-.32.14-.76.21-1.31.21h-.77v8.3c0,.62-.14,1.09-.44,1.41-.29.33-.67.49-1.14.49-.44,0-.81-.16-1.11-.49-.29-.32-.44-.8-.44-1.41v-8.3h-.86c-.47,0-.83-.1-1.08-.32-.25-.21-.38-.48-.38-.82,0-.75.53-1.13,1.58-1.13Z"/>
        <path class="st11" d="M408.2,782.59v2.62c0,.63-.16,1.11-.45,1.42-.3.32-.67.48-1.13.48s-.83-.16-1.12-.48c-.29-.32-.44-.79-.44-1.42v-8.73c0-1.41.51-2.11,1.52-2.11.52,0,.9.17,1.13.49.23.33.35.82.38,1.46.37-.65.75-1.13,1.15-1.46.4-.33.92-.49,1.58-.49s1.3.17,1.92.49c.62.33.93.77.93,1.31,0,.38-.13.7-.4.95-.27.25-.54.37-.85.37-.12,0-.4-.07-.83-.21-.44-.14-.83-.21-1.17-.21-.46,0-.83.12-1.12.36-.29.25-.52.6-.68,1.07-.16.48-.27,1.04-.33,1.7-.06.66-.09,1.45-.09,2.39Z"/>
        <path class="st11" d="M422.6,781.51h-6.13c0,.71.15,1.34.43,1.88.28.54.65.95,1.11,1.23.47.27.97.41,1.53.41.38,0,.72-.04,1.03-.14.31-.08.61-.22.9-.41.29-.19.56-.39.8-.6.24-.22.56-.51.95-.87.16-.13.39-.21.69-.21.32,0,.58.09.78.26.2.18.3.43.3.75,0,.29-.11.61-.33.99-.23.38-.56.74-1.01,1.09-.44.34-1.01.64-1.69.86-.68.23-1.46.34-2.33.34-2.01,0-3.58-.57-4.69-1.72-1.12-1.15-1.68-2.71-1.68-4.67,0-.93.14-1.79.42-2.58.27-.8.68-1.47,1.21-2.03.53-.57,1.18-1,1.95-1.3.77-.3,1.62-.45,2.57-.45,1.23,0,2.28.26,3.15.78.88.51,1.54,1.18,1.97,2,.43.82.65,1.65.65,2.5,0,.78-.23,1.3-.68,1.53-.45.23-1.09.35-1.9.35ZM416.47,779.73h5.68c-.08-1.07-.37-1.87-.86-2.4-.5-.53-1.16-.8-1.98-.8-.78,0-1.42.26-1.92.81-.5.54-.8,1.33-.91,2.39Z"/>
        <path class="st11" d="M435.62,781.51h-6.13c0,.71.15,1.34.43,1.88.28.54.65.95,1.11,1.23.46.27.97.41,1.53.41.37,0,.72-.04,1.02-.14.31-.08.61-.22.91-.41.29-.19.56-.39.8-.6.24-.22.56-.51.95-.87.16-.13.39-.21.69-.21.32,0,.59.09.79.26.2.18.29.43.29.75,0,.29-.11.61-.33.99-.21.38-.55.74-1,1.09-.44.34-1.01.64-1.69.86-.67.23-1.46.34-2.34.34-2.01,0-3.57-.57-4.69-1.72-1.12-1.15-1.68-2.71-1.68-4.67,0-.93.14-1.79.42-2.58.28-.8.68-1.47,1.2-2.03.53-.57,1.18-1,1.95-1.3.77-.3,1.63-.45,2.57-.45,1.22,0,2.27.26,3.15.78.87.51,1.53,1.18,1.96,2,.43.82.65,1.65.65,2.5,0,.78-.23,1.3-.67,1.53-.45.23-1.09.35-1.91.35ZM429.5,779.73h5.68c-.08-1.07-.37-1.87-.87-2.4-.5-.53-1.16-.8-1.98-.8s-1.42.26-1.92.81c-.5.54-.8,1.33-.91,2.39Z"/>
        <path class="st11" d="M442.48,776.13v.38c.59-.72,1.21-1.26,1.84-1.6.63-.34,1.35-.52,2.15-.52.96,0,1.85.25,2.66.75.81.5,1.45,1.23,1.92,2.18.47.95.71,2.09.71,3.4,0,.96-.14,1.85-.41,2.65-.27.81-.65,1.48-1.12,2.03-.48.54-1.04.97-1.68,1.26-.65.29-1.34.44-2.09.44-.89,0-1.65-.18-2.25-.54-.61-.35-1.18-.89-1.74-1.58v4.7c0,1.37-.5,2.07-1.5,2.07-.59,0-.98-.18-1.17-.53-.19-.36-.28-.88-.28-1.56v-13.51c0-.6.13-1.04.39-1.34.26-.29.62-.44,1.07-.44s.81.15,1.08.45c.28.31.42.74.42,1.31ZM448.62,780.68c0-.83-.12-1.54-.38-2.13-.25-.59-.6-1.05-1.04-1.36-.45-.32-.95-.48-1.49-.48-.86,0-1.59.34-2.18,1.02-.6.69-.89,1.68-.89,3.01,0,1.24.29,2.21.88,2.91.59.69,1.31,1.04,2.19,1.04.52,0,1-.15,1.45-.45.44-.3.8-.75,1.07-1.36.27-.61.4-1.34.4-2.19Z"/>
        <path class="st11" d="M454.92,772.91c-.44,0-.81-.14-1.11-.4-.31-.27-.47-.64-.47-1.13,0-.45.16-.81.48-1.1.32-.28.69-.43,1.11-.43s.76.13,1.08.38c.31.26.47.64.47,1.15s-.16.86-.46,1.13c-.31.27-.67.41-1.09.41ZM456.47,776.15v9.06c0,.62-.15,1.1-.45,1.42-.3.33-.68.48-1.14.48s-.83-.16-1.11-.49c-.29-.33-.43-.8-.43-1.41v-8.97c0-.62.15-1.09.43-1.4.29-.32.66-.47,1.11-.47s.84.16,1.14.47c.3.31.45.75.45,1.31Z"/>
        <path class="st11" d="M466.57,785.68l-2.76-4.55-1.7,1.6v2.5c0,.6-.16,1.07-.48,1.39-.31.33-.68.49-1.09.49-.48,0-.86-.16-1.13-.48-.28-.32-.42-.79-.42-1.42v-13.36c0-.69.13-1.22.4-1.59.27-.37.66-.54,1.15-.54s.86.16,1.14.5c.29.33.43.81.43,1.45v7.6l3.52-3.7c.44-.45.76-.77,1-.94.23-.16.51-.25.83-.25.39,0,.72.12.98.38.25.25.38.56.38.93,0,.46-.43,1.07-1.27,1.84l-1.66,1.52,3.21,5.05c.23.38.41.66.51.85.11.2.16.39.16.56,0,.5-.13.89-.41,1.18-.27.28-.63.43-1.07.43-.39,0-.68-.1-.89-.31-.2-.21-.49-.58-.83-1.12Z"/>
        <path class="st11" d="M473.37,787.1c-.47,0-.88-.16-1.23-.46-.34-.3-.52-.73-.52-1.28,0-.47.17-.87.49-1.2.33-.34.74-.5,1.22-.5s.89.17,1.24.5c.34.33.51.74.51,1.21,0,.54-.17.97-.51,1.28-.35.31-.75.46-1.21.46Z"/>
        <path class="st11" d="M488.94,783.23c0,.39-.12.81-.35,1.25-.23.44-.59.87-1.07,1.27-.48.4-1.08.72-1.81.97-.73.25-1.54.37-2.45.37-1.94,0-3.45-.57-4.54-1.69-1.08-1.13-1.62-2.65-1.62-4.54,0-1.29.24-2.42.74-3.41.49-.98,1.21-1.75,2.16-2.29.94-.54,2.07-.81,3.37-.81.81,0,1.56.12,2.24.36.68.23,1.25.54,1.72.91.46.38.83.78,1.07,1.2.25.43.37.82.37,1.19s-.14.69-.42.95c-.28.26-.62.39-1.01.39-.26,0-.48-.07-.65-.2-.18-.13-.37-.35-.58-.65-.38-.58-.78-1.01-1.2-1.3-.42-.29-.95-.44-1.59-.44-.92,0-1.66.36-2.24,1.08-.57.72-.85,1.71-.85,2.96,0,.59.08,1.14.22,1.63.14.49.35.91.63,1.26.28.35.61.61,1,.79.39.18.82.27,1.28.27.63,0,1.16-.15,1.61-.44.46-.29.85-.73,1.19-1.33.19-.35.4-.62.61-.82.22-.2.5-.3.82-.3.39,0,.7.15.95.44.25.29.38.6.38.93Z"/>
        <path class="st11" d="M502.46,780.74c0,.93-.15,1.79-.43,2.58-.3.79-.71,1.46-1.27,2.03-.54.57-1.21,1-1.97,1.3-.77.3-1.63.45-2.58.45s-1.8-.16-2.56-.46c-.75-.3-1.42-.74-1.96-1.3-.56-.58-.98-1.25-1.27-2.03-.28-.78-.43-1.63-.43-2.57s.15-1.82.44-2.61c.29-.79.71-1.46,1.25-2.02.54-.56,1.2-.99,1.97-1.29.77-.3,1.63-.45,2.56-.45s1.81.15,2.58.46c.77.3,1.43.74,1.99,1.3.55.57.97,1.24,1.26,2.02.28.79.43,1.64.43,2.59ZM499.32,780.74c0-1.28-.29-2.27-.84-2.98-.56-.72-1.31-1.07-2.26-1.07-.61,0-1.15.16-1.62.48-.46.32-.82.78-1.08,1.4-.25.62-.38,1.34-.38,2.17s.12,1.53.37,2.14c.25.62.61,1.09,1.07,1.41.46.32,1.01.49,1.63.49.95,0,1.71-.36,2.26-1.08.56-.72.84-1.7.84-2.96Z"/>
        <path class="st11" d="M514.41,780.97v4.16c0,.66-.15,1.15-.45,1.48-.3.33-.69.49-1.18.49s-.86-.16-1.15-.49c-.3-.33-.45-.82-.45-1.48v-4.99c0-.79-.03-1.4-.08-1.84-.06-.43-.2-.79-.44-1.07-.23-.28-.61-.42-1.12-.42-1.03,0-1.7.35-2.03,1.06-.32.7-.49,1.71-.49,3.03v4.23c0,.65-.15,1.14-.44,1.48-.3.33-.68.5-1.17.5s-.86-.17-1.16-.5c-.3-.34-.46-.83-.46-1.48v-8.96c0-.59.14-1.04.41-1.34.27-.31.63-.46,1.07-.46s.79.15,1.08.43c.29.29.43.68.43,1.19v.29c.55-.64,1.13-1.12,1.75-1.43.62-.31,1.3-.46,2.06-.46s1.47.16,2.03.47c.57.32,1.03.79,1.4,1.42.53-.64,1.09-1.12,1.7-1.43.61-.31,1.27-.46,2.01-.46.86,0,1.6.17,2.22.5.62.34,1.08.82,1.38,1.45.27.57.4,1.46.4,2.68v6.11c0,.66-.15,1.15-.44,1.48-.3.33-.69.49-1.18.49s-.86-.17-1.16-.5c-.3-.34-.45-.83-.45-1.48v-5.27c0-.67-.03-1.21-.09-1.61-.05-.41-.21-.75-.46-1.02-.26-.27-.64-.41-1.15-.41-.41,0-.8.12-1.17.37-.37.24-.66.57-.87.98-.23.52-.34,1.46-.34,2.81Z"/>
        <g>
          <path class="st10" d="M376.26,788.2s-1.71-.27-3.38-2.1c-1.68-1.84-1.96-3.79-1.96-3.79,0,0,2.13.5,3.66.67,2.7.31,5.12.14,6.27.01,2.48-.27,3.8-.73,4.33-.86,3.17-.76,6.21-2.81,6.21-2.81,0,0,.38,2.38-1.41,5.02-.7,1.03-2.09,2.21-3.69,3.03-5.48,2.33-10.04.83-10.04.83Z"/>
          <path class="st10" d="M389.21,774.68c-.59-.71-2.55-4.08-6.52-4.56-1.02-.12-6.38.08-9.6,3.07-.32.3-1.96,1.74-2.5,4.41-.42,2.07.27,4.39.27,4.39,0,0,3.57.74,6.26.67,4.27-.11,6.41-.48,8.65-1.16,3.29-1,5.61-2.66,5.61-2.66,0,0-1.58-3.45-2.17-4.16ZM376.9,779.8c-1.8.12-3.36-1.24-3.47-3.04-.11-1.79,1.26-3.34,3.06-3.45,1.81-.12,3.36,1.24,3.47,3.04.12,1.8-1.26,3.35-3.06,3.46ZM386.12,777.48c-1.14.07-2.12-.79-2.19-1.92-.07-1.12.8-2.1,1.93-2.17,1.13-.07,2.12.79,2.18,1.91.07,1.13-.79,2.11-1.93,2.18Z"/>
          <path class="st10" d="M387.67,772.36l1.04-1.25s1.43.71,2.35,2.04c.92,1.32,1.51,2.53,1.51,2.53l-1.71,1.04s-.53-1.28-1.33-2.3c-.79-1.02-1.87-2.06-1.87-2.06Z"/>
          <path class="st10" d="M390.92,773.22c.27-.16.72-.18.69-.57-.02-.37-.27-1.12.47-1.38.75-.26.33.22.07.55-.26.33-.18.53-.14,1.02.03.48-.31.64-.82.87-.51.24-.54-.34-.27-.5Z"/>
          <path class="st10" d="M371.9,773.98s-1.2,1.4-1.51,2.66c-.3,1.27-.24,2.79-.24,2.79l-1.78-.61s-.1-1.75.71-3.16c.9-1.57,2.05-2.27,2.05-2.27l.77.6Z"/>
          <path class="st10" d="M369.28,775.57c-.29-.19-.32-.64-.54-.94-.23-.3-.29-.12-.81-.12-.52,0-.54-.25-.69-.37-.15-.13-.22.39-.22.39,0,0,.1.45.66.48.55.04.54-.24.78.26.24.51.72.89.72.89,0,0,.39-.41.1-.59Z"/>
          <path class="st10" d="M378.72,768.95c2.92-.73,4.74.11,4.74.11l-.15.84s-2.13-.14-3.82.11c-1.69.24-2.46.77-2.46.77l-.37-.84s.8-.68,2.06-1Z"/>
          <path class="st10" d="M379.59,767.75l.41-.15.54,1.46-.41.15-.54-1.46Z"/>
          <path class="st10" d="M392.44,770.45c.41-.02.76.29.79.7.03.41-.29.76-.7.79-.41.03-.76-.29-.79-.69-.02-.41.29-.76.7-.79Z"/>
          <path class="st10" d="M366.83,773.27c.41-.02.77.29.79.69.02.41-.29.76-.7.79-.41.03-.76-.28-.79-.69-.02-.41.29-.76.7-.79Z"/>
          <path class="st10" d="M379.95,765.89c.65-.04,1.22.45,1.26,1.11.04.65-.46,1.21-1.11,1.25-.66.05-1.22-.45-1.26-1.11-.04-.65.46-1.21,1.12-1.25Z"/>
        </g>
      </g>
      <g>
        <path class="st11" d="M286.78,785.38c0,.74-.46,1.22-1.1,1.22-.6,0-.96-.33-1.09-.92-.41.67-1.26,1-2.01,1-2.21,0-3.6-2.05-3.6-4.12s1.17-4.33,3.53-4.33c.76,0,1.5.26,2.08.76v-2.98c0-.72.45-1.21,1.09-1.21s1.1.49,1.1,1.21v9.37ZM282.87,780.24c-1.14,0-1.7,1.2-1.7,2.24s.56,2.2,1.7,2.2c1.2,0,1.72-1.22,1.72-2.28s-.55-2.16-1.72-2.16Z"/>
        <path class="st11" d="M289.78,783.19c.16,1.08,1.05,1.58,2.07,1.58,1.12,0,1.9-.88,2.48-.88.47,0,.89.47.89.95,0,.94-1.94,1.85-3.57,1.85-2.46,0-4.11-1.79-4.11-4.21,0-2.22,1.61-4.24,3.92-4.24s3.94,2.16,3.94,3.98c0,.65-.29.97-.96.97h-4.67ZM293.22,781.73c-.12-.96-.73-1.67-1.75-1.67s-1.63.74-1.73,1.67h3.48Z"/>
        <path class="st11" d="M300.79,780.79c-.41,0-1.25-.64-1.96-.64-.39,0-.75.18-.75.61,0,1.02,3.8.87,3.8,3.36,0,1.46-1.23,2.56-3.12,2.56-1.23,0-3.05-.7-3.05-1.68,0-.34.33-.97.94-.97.85,0,1.23.74,2.26.74.67,0,.87-.21.87-.62,0-1-3.8-.85-3.8-3.36,0-1.52,1.23-2.56,2.96-2.56,1.08,0,2.74.51,2.74,1.59,0,.5-.38.97-.89.97Z"/>
        <path class="st11" d="M304.95,776.25c0,.69-.55,1.26-1.23,1.26s-1.23-.59-1.23-1.26c0-.62.58-1.2,1.23-1.2s1.23.56,1.23,1.2ZM302.63,779.55c0-.73.45-1.22,1.09-1.22s1.1.49,1.1,1.22v5.83c0,.74-.46,1.22-1.1,1.22s-1.09-.48-1.09-1.22v-5.83Z"/>
        <path class="st11" d="M313.51,785.87c0,2.62-1.72,3.95-4.21,3.95-.9,0-3.45-.44-3.45-1.65,0-.41.46-.96.88-.96.7,0,1.47.68,2.73.68,1.06,0,1.86-.62,1.86-1.73v-.51h-.03c-.45.67-1.2,1.03-2.2,1.03-2.29,0-3.38-2.02-3.38-4.19s1.4-4.26,3.61-4.26c.74,0,1.59.34,2.01,1,.14-.58.49-.91,1.09-.91s1.09.49,1.09,1.22v6.32ZM309.6,780.24c-1.14,0-1.7,1.19-1.7,2.21,0,1.17.56,2.23,1.7,2.23s1.72-1.09,1.72-2.17-.52-2.27-1.72-2.27Z"/>
        <path class="st11" d="M314.75,779.55c0-.73.45-1.22,1.09-1.22.57,0,.93.3,1,.81.43-.6,1.08-.9,2.11-.9,1.72,0,3,1.1,3,2.95v4.2c0,.74-.45,1.22-1.09,1.22s-1.1-.48-1.1-1.22v-3.82c0-1.01-.64-1.5-1.43-1.5-.89,0-1.4.65-1.4,1.5v3.82c0,.74-.46,1.22-1.1,1.22s-1.09-.48-1.09-1.22v-5.83Z"/>
        <path class="st11" d="M324.97,783.19c.15,1.08,1.05,1.58,2.07,1.58,1.12,0,1.9-.88,2.48-.88.47,0,.9.47.9.95,0,.94-1.95,1.85-3.57,1.85-2.46,0-4.1-1.79-4.1-4.21,0-2.22,1.61-4.24,3.92-4.24s3.93,2.16,3.93,3.98c0,.65-.29.97-.96.97h-4.67ZM328.4,781.73c-.12-.96-.73-1.67-1.75-1.67s-1.63.74-1.73,1.67h3.48Z"/>
        <path class="st11" d="M338.84,785.38c0,.74-.45,1.22-1.1,1.22-.61,0-.96-.33-1.09-.92-.41.67-1.26,1-2.01,1-2.2,0-3.6-2.05-3.6-4.12s1.17-4.33,3.53-4.33c.76,0,1.5.26,2.08.76v-2.98c0-.72.45-1.21,1.09-1.21s1.1.49,1.1,1.21v9.37ZM334.94,780.24c-1.14,0-1.7,1.2-1.7,2.24s.56,2.2,1.7,2.2c1.2,0,1.72-1.22,1.72-2.28s-.55-2.16-1.72-2.16Z"/>
        <path class="st11" d="M344.16,776.02c0-.72.46-1.21,1.1-1.21s1.09.49,1.09,1.21v2.98c.58-.5,1.32-.76,2.08-.76,2.36,0,3.53,2.2,3.53,4.33s-1.4,4.12-3.6,4.12c-.74,0-1.59-.33-2.01-1-.14.58-.48.92-1.09.92-.64,0-1.1-.48-1.1-1.22v-9.37ZM348.07,784.68c1.14,0,1.7-1.19,1.7-2.2s-.56-2.24-1.7-2.24-1.72,1.09-1.72,2.16.52,2.28,1.72,2.28Z"/>
        <path class="st11" d="M352.34,779.83c-.06-.16-.11-.34-.11-.56,0-.55.58-.94,1.03-.94.53,0,.91.29,1.1.78l1.5,4.12,1.61-4.12c.18-.48.56-.78,1.1-.78.46,0,1.03.39,1.03.94,0,.22-.03.39-.1.56l-3.66,9.12c-.18.45-.52.87-1.03.87-.74,0-1.14-.48-1.14-.95,0-.22.06-.44.14-.64l.96-2.37-2.42-6.04Z"/>
      </g>
    </g>
    <rect class="st9" width="800" height="800"/>
  </g>
  <g id="Objects">
    <g class="st5">
      <g>
        <rect class="st7" x="489.3" y="204.25" width="72.29" height="23.82"/>
        <rect class="st11" x="480.03" y="222.47" width="90.83" height="5.61"/>
        <path class="st11" d="M436.99,71.31h176.9c3.09,0,5.61,2.51,5.61,5.61v125.95c0,3.09-2.51,5.61-5.61,5.61h-176.91c-3.09,0-5.6-2.51-5.6-5.6v-125.95c0-3.09,2.51-5.61,5.61-5.61Z"/>
        <path class="st7" d="M619.5,190.7v-113.78c0-3.09-2.51-5.61-5.6-5.61h-176.9c-3.1,0-5.61,2.51-5.61,5.61v113.78h188.12Z"/>
        <rect class="st11" x="439.38" y="79.31" width="172.12" height="106.65"/>
        <rect class="st15" x="439.38" y="79.31" width="172.12" height="8.89"/>
        <rect class="st11" x="461.4" y="81.7" width="128.08" height="4.11"/>
        <path class="st11" d="M445.26,83.75c0,1.13-.92,2.05-2.06,2.05s-2.05-.92-2.05-2.05.92-2.06,2.05-2.06,2.06.92,2.06,2.06Z"/>
        <path class="st12" d="M451.13,83.75c0,1.13-.92,2.05-2.06,2.05s-2.05-.92-2.05-2.05.92-2.06,2.05-2.06,2.06.92,2.06,2.06Z"/>
        <path class="st7" d="M457,83.75c0,1.13-.92,2.05-2.06,2.05s-2.06-.92-2.06-2.05.92-2.06,2.06-2.06,2.06.92,2.06,2.06Z"/>
        <rect class="st12" x="591.56" y="81.7" width="9.63" height=".52"/>
        <rect class="st12" x="591.56" y="82.89" width="9.63" height=".52"/>
        <rect class="st12" x="591.56" y="84.09" width="9.63" height=".52"/>
        <rect class="st12" x="591.56" y="85.29" width="9.63" height=".52"/>
        <rect class="st12" x="603.38" y="81.7" width="5.34" height="4.11"/>
        <rect class="st7" x="457.24" y="88.2" width="136.4" height="8.84"/>
        <rect class="st15" x="457.24" y="97.04" width="136.4" height="18.57"/>
        <rect class="st12" x="457.24" y="115.61" width="136.4" height="70.35"/>
        <rect class="st7" x="460.26" y="99.22" width="38.12" height="13.93"/>
        <rect class="st7" x="507.12" y="108.34" width="12.46" height="4.55"/>
        <rect class="st12" x="523.6" y="108.34" width="12.46" height="4.55"/>
        <rect class="st7" x="540.08" y="108.34" width="12.46" height="4.55"/>
        <rect class="st7" x="556.56" y="108.34" width="12.46" height="4.55"/>
        <rect class="st7" x="573.04" y="108.34" width="12.46" height="4.55"/>
        <g>
          <rect class="st15" x="461.26" y="125.77" width="38.12" height="16.38"/>
          <rect class="st7" x="506.39" y="125.77" width="83.24" height="16.38"/>
        </g>
        <rect class="st15" x="461.4" y="160.7" width="128.22" height="16.38"/>
        <g>
          <rect class="st1" x="461.26" y="144.22" width="38.12" height=".78"/>
          <rect class="st1" x="461.26" y="146.28" width="38.12" height=".78"/>
          <rect class="st1" x="461.26" y="148.34" width="38.12" height=".78"/>
          <rect class="st1" x="461.26" y="150.4" width="38.12" height=".78"/>
          <rect class="st1" x="461.26" y="152.46" width="38.12" height=".78"/>
          <rect class="st1" x="461.26" y="154.51" width="38.12" height=".78"/>
          <rect class="st1" x="461.26" y="156.58" width="38.12" height=".78"/>
        </g>
        <g>
          <rect class="st1" x="506.39" y="144.22" width="83.24" height=".78"/>
          <rect class="st1" x="506.39" y="146.28" width="83.24" height=".78"/>
          <rect class="st1" x="506.39" y="148.34" width="83.24" height=".78"/>
          <rect class="st1" x="506.39" y="150.4" width="83.24" height=".78"/>
          <rect class="st1" x="506.39" y="152.46" width="83.24" height=".78"/>
          <rect class="st1" x="506.39" y="154.51" width="83.24" height=".78"/>
          <rect class="st1" x="506.39" y="156.58" width="83.24" height=".78"/>
        </g>
        <g>
          <rect class="st1" x="461.4" y="179.39" width="128.22" height=".78"/>
          <rect class="st1" x="461.4" y="181.45" width="128.22" height=".78"/>
          <rect class="st1" x="461.4" y="183.51" width="128.22" height=".78"/>
        </g>
        <path class="st15" d="M529.83,200.4c0,2.42-1.96,4.38-4.38,4.38s-4.38-1.96-4.38-4.38,1.96-4.38,4.38-4.38,4.38,1.96,4.38,4.38Z"/>
      </g>
      <path class="st11" d="M386.96,234.48l-4.41,4.85,4.09,6.05,6.14-2.29c1.29,1.11,2.7,2.04,4.2,2.78l.31,6.54,7.17,1.39,2.72-5.95c1.66-.12,3.32-.46,4.93-1.02l4.85,4.41,6.05-4.09-2.29-6.14c1.11-1.29,2.04-2.7,2.78-4.2l6.54-.31,1.39-7.17-5.96-2.72c-.12-1.67-.46-3.32-1.01-4.94l4.41-4.84-4.09-6.05-6.14,2.29c-1.29-1.11-2.7-2.04-4.2-2.78l-.31-6.54-7.17-1.39-2.72,5.96c-1.66.12-3.32.46-4.93,1.01l-4.85-4.41-6.05,4.09,2.29,6.14c-1.12,1.29-2.04,2.7-2.78,4.2l-6.54.31-1.38,7.17,5.95,2.72c.12,1.67.46,3.32,1.01,4.94ZM396.54,226.31c.98-5.07,5.88-8.38,10.94-7.4,5.06.98,8.38,5.88,7.4,10.94-.98,5.06-5.88,8.38-10.94,7.4-5.06-.98-8.38-5.88-7.4-10.94Z"/>
      <path class="st12" d="M613.98,235.62l.14,2.38,2.62.47.97-2.18c.62-.05,1.22-.18,1.79-.39l1.78,1.58,2.18-1.51-.86-2.22c.39-.46.72-.98.99-1.54l2.38-.14.47-2.62-2.18-.97c-.05-.62-.18-1.22-.39-1.79l1.58-1.78-1.51-2.18-2.22.86c-.46-.39-.98-.72-1.54-.99l-.14-2.38-2.61-.47-.97,2.18c-.62.05-1.22.18-1.79.39l-1.78-1.58-2.18,1.51.86,2.22c-.39.46-.72.98-.99,1.54l-2.38.14-.47,2.61,2.18.97c.05.62.19,1.22.39,1.79l-1.58,1.78,1.51,2.18,2.22-.86c.46.39.98.72,1.54.99ZM614.29,231.05c-1.07-1.54-.69-3.66.86-4.73,1.54-1.07,3.66-.69,4.73.86,1.07,1.54.69,3.66-.86,4.73-1.54,1.07-3.66.68-4.73-.86Z"/>
      <g>
        <g>
          <path class="st7" d="M596.39,53.96c1.38-2.32,2.19-5.02,2.19-7.92,0-8.57-6.95-15.52-15.52-15.52s-15.52,6.95-15.52,15.52c0,2.9.81,5.6,2.19,7.92h-.06c6.37,9.86,5.71,14.39,5.71,14.39h15.36s-.66-4.52,5.7-14.39h-.06Z"/>
          <path class="st11" d="M575.39,49.43c.68-.27,1.37-.49,2.06-.74l.06-.02.08.05c.4.23.79.48,1.19.73l-.33.03,1.27-1.47.21-.24.27.22c.75.62,1.48,1.26,2.22,1.89l-.56.02c.81-.83,1.62-1.65,2.45-2.46l.39-.39.26.48c.34.64.67,1.29,1,1.94l-.64-.03.49-.68.24-.33.28.25.82.73-.43.05,1.18-1.36.12-.14.14.08c.87.45,1.74.91,2.59,1.4-.94-.3-1.85-.65-2.77-.98l.27-.06-1.06,1.46-.17.24-.26-.19-.88-.66.52-.08-.46.71-.33.51-.31-.55c-.36-.63-.72-1.26-1.07-1.9l.65.09c-.8.83-1.63,1.64-2.45,2.45l-.28.28-.28-.26c-.71-.66-1.42-1.32-2.12-2l.47-.02-1.4,1.35-.16.16-.16-.12c-.37-.28-.74-.56-1.1-.85l.15.03c-.72.13-1.43.29-2.15.4Z"/>
          <rect class="st12" x="577.21" y="49.21" width=".57" height="20.71" transform="translate(-.06 118.54) rotate(-11.72)"/>
          <path class="st12" d="M576.58,49.43c0,.66-.53,1.19-1.19,1.19s-1.19-.53-1.19-1.19.53-1.19,1.19-1.19,1.19.53,1.19,1.19Z"/>
          <rect class="st12" x="578.29" y="59.29" width="20.71" height=".56" transform="translate(411.1 623.96) rotate(-78.32)"/>
          <path class="st12" d="M589.56,49.43c0,.66.53,1.19,1.19,1.19s1.19-.53,1.19-1.19-.53-1.19-1.19-1.19-1.19.53-1.19,1.19Z"/>
          <g>
            <polygon class="st12" points="583.07 68.35 575.39 68.35 575.39 72.31 577.01 75.14 583.07 75.14 589.12 75.14 590.75 72.31 590.75 68.35 583.07 68.35"/>
            <g>
              <path class="st11" d="M591.57,69.71c0,.36-.28.66-.63.66h-15.75c-.34,0-.63-.3-.63-.66h0c0-.37.28-.66.63-.66h15.75c.35,0,.63.3.63.66h0Z"/>
              <path class="st11" d="M591.57,72.31c0,.36-.28.66-.63.66h-15.75c-.34,0-.63-.3-.63-.66h0c0-.37.28-.66.63-.66h15.75c.35,0,.63.3.63.66h0Z"/>
              <path class="st11" d="M590.05,75.14c0,.3-.23.54-.51.54h-12.94c-.29,0-.52-.24-.52-.54h0c0-.3.23-.54.52-.54h12.94c.28,0,.51.24.51.54h0Z"/>
            </g>
          </g>
        </g>
        <path class="st12" d="M553.64,64.53s.57-.57,1.5-1.29c.93-.73,2.22-1.62,3.55-2.44,1.34-.81,2.73-1.54,3.8-2.03,1.07-.49,1.84-.74,1.84-.74,0,0-.57.57-1.5,1.29-.93.73-2.22,1.62-3.55,2.44-1.34.81-2.73,1.54-3.8,2.03-1.07.49-1.84.74-1.84.74Z"/>
        <path class="st12" d="M548.44,50.34s.76-.27,1.91-.53c1.15-.27,2.7-.53,4.25-.71,1.56-.17,3.12-.24,4.3-.23,1.18,0,1.98.11,1.98.11,0,0-.76.27-1.91.54-1.15.27-2.7.53-4.25.71-1.56.17-3.12.24-4.3.23-1.18,0-1.98-.11-1.98-.11Z"/>
        <path class="st12" d="M549.71,35.29s.8.07,1.96.32c1.16.24,2.67.66,4.15,1.16,1.48.51,2.93,1.1,4,1.61,1.07.51,1.75.94,1.75.94,0,0-.8-.07-1.96-.32-1.16-.24-2.67-.66-4.15-1.16-1.48-.51-2.93-1.1-4-1.61-1.07-.5-1.75-.94-1.75-.94Z"/>
        <path class="st12" d="M557.23,22.18s.7.4,1.64,1.12c.95.71,2.14,1.72,3.28,2.8,1.13,1.09,2.19,2.24,2.94,3.15.75.91,1.19,1.59,1.19,1.59,0,0-.7-.4-1.64-1.12-.95-.71-2.14-1.72-3.27-2.8-1.13-1.09-2.19-2.24-2.94-3.15-.75-.91-1.19-1.59-1.19-1.59Z"/>
        <path class="st12" d="M569.58,13.48s.46.66,1.01,1.71c.56,1.04,1.21,2.47,1.78,3.92.57,1.46,1.04,2.95,1.34,4.1.3,1.14.41,1.94.41,1.94,0,0-.46-.66-1.01-1.71-.56-1.04-1.21-2.47-1.78-3.92-.56-1.46-1.04-2.95-1.33-4.1-.3-1.14-.41-1.94-.41-1.94Z"/>
        <path class="st12" d="M584.45,10.82s.14.79.19,1.97c.07,1.18.06,2.75-.04,4.31-.11,1.56-.3,3.12-.52,4.28-.21,1.16-.45,1.93-.45,1.93,0,0-.14-.79-.2-1.97-.07-1.18-.06-2.75.04-4.31.11-1.56.3-3.12.52-4.28.21-1.16.45-1.93.45-1.93Z"/>
        <path class="st12" d="M599.06,14.69s-.21.78-.66,1.87c-.44,1.1-1.11,2.52-1.86,3.89-.76,1.37-1.59,2.7-2.28,3.66-.68.96-1.23,1.56-1.23,1.56,0,0,.21-.78.66-1.87.44-1.1,1.11-2.51,1.86-3.89.76-1.37,1.59-2.7,2.29-3.66.68-.96,1.22-1.56,1.22-1.56Z"/>
        <path class="st12" d="M610.66,24.37s-.52.61-1.39,1.42c-.86.81-2.07,1.81-3.33,2.74-1.26.92-2.58,1.77-3.61,2.35-1.03.58-1.77.89-1.77.89,0,0,.52-.62,1.38-1.42.86-.81,2.07-1.81,3.33-2.74,1.26-.92,2.58-1.77,3.61-2.35,1.03-.59,1.77-.89,1.77-.89Z"/>
        <path class="st12" d="M617.08,38.04s-.73.34-1.86.7c-1.12.37-2.64.77-4.18,1.08-1.54.3-3.09.51-4.27.6-1.18.1-1.98.06-1.98.06,0,0,.73-.34,1.86-.7,1.12-.37,2.64-.77,4.18-1.07,1.54-.3,3.09-.51,4.27-.6,1.18-.1,1.98-.06,1.98-.06Z"/>
        <path class="st12" d="M617.12,53.15s-.8,0-1.98-.15c-1.17-.14-2.72-.42-4.24-.79-1.52-.38-3.02-.84-4.12-1.26-1.11-.41-1.82-.78-1.82-.78,0,0,.81,0,1.98.15,1.17.14,2.72.42,4.24.79,1.52.38,3.02.84,4.12,1.26,1.11.41,1.82.78,1.82.78Z"/>
        <path class="st12" d="M610.78,66.86s-.73-.34-1.73-.97c-1-.62-2.28-1.53-3.51-2.51-1.22-.98-2.38-2.04-3.21-2.88-.83-.84-1.32-1.48-1.32-1.48,0,0,.73.34,1.73.97,1,.62,2.28,1.53,3.51,2.51,1.22.98,2.38,2.04,3.21,2.88.83.84,1.32,1.48,1.32,1.48Z"/>
      </g>
      <g>
        <path class="st12" d="M652.32,36.47l1.31,1.34s-3.75-3.31-7.44-4.7l.18.58-.85-.2.49.47-.89-.05.16.75-.76-.13.08.88-.49-.47.23.84-.59-.15c1.53,3.61,5,7.21,5,7.21l-1.39-1.26c3.34,4.39,8.83,7.34,8.83,7.34l2.2-1.7,1.64-2.24s-3.17-5.34-7.7-8.5Z"/>
        <path class="st12" d="M661.18,49.89s-3.61,1.34,4.31,9.83c7.92,8.49,51.12,46.28,52.35,46.86,1.23.58,3.07.54,3.07.54,0,0-.02-1.82-.65-3.02-.63-1.2-40.2-42.72-49.03-50.27-8.82-7.55-10.05-3.93-10.05-3.93Z"/>
        <path class="st7" d="M674.18,54.7c.3.29.25.83-.12,1.21l-6.37,6.54c-.37.38-.91.45-1.21.16h0c-.3-.29-.25-.83.12-1.21l6.37-6.54c.37-.38.91-.45,1.21-.16h0Z"/>
        <polygon class="st11" points="660.91 44.63 658.39 47.21 655.87 49.8 666.6 61.4 669.79 58.13 672.97 54.86 660.91 44.63"/>
        <path class="st7" d="M661.52,44.01c.2.19.16.55-.08.8l-5.36,5.5c-.25.25-.61.3-.81.11h0c-.2-.19-.16-.55.08-.8l5.36-5.5c.25-.25.61-.3.81-.11h0Z"/>
      </g>
      <g>
        <path class="st7" d="M365.36,102.93c-1.62,1.62-1.62,4.25,0,5.87h0c1.62,1.62,4.25,1.62,5.87,0l20.89-20.89c1.62-1.62,1.62-4.25,0-5.87h0c-1.62-1.62-4.25-1.62-5.87,0l-20.89,20.89Z"/>
        <rect class="st12" x="388.09" y="74.77" width="15.12" height="7.5" transform="translate(60.36 302.76) rotate(-45)"/>
        <path class="st7" d="M431.59,42.57c8.14,8.14,8.14,21.4,0,29.54-8.14,8.14-21.39,8.14-29.54,0-8.14-8.14-8.14-21.39,0-29.54,8.14-8.14,21.39-8.14,29.54,0M434.32,39.85c-9.66-9.66-25.33-9.66-34.99,0-9.66,9.66-9.66,25.33,0,34.99,9.66,9.66,25.33,9.66,34.99,0,9.66-9.66,9.66-25.33,0-34.99h0Z"/>
        <path class="st11" d="M395.53,71.98c-.37.37-.37.97,0,1.34l5.31,5.31c.37.37.97.37,1.34,0h0c.37-.37.37-.97,0-1.34l-5.31-5.31c-.37-.37-.97-.37-1.34,0h0Z"/>
        <path class="st11" d="M386.98,80.54c-.37.37-.37.97,0,1.34l5.31,5.31c.37.37.97.37,1.34,0h0c.37-.37.37-.97,0-1.34l-5.31-5.31c-.37-.37-.97-.37-1.34,0h0Z"/>
      </g>
      <g>
        <path class="st11" d="M440.89,116.46c.85,3.42-1.23,6.88-4.65,7.73l-78.08,19.42c-3.42.85-6.88-1.23-7.73-4.65h0c-.85-3.42,1.23-6.88,4.65-7.73l78.08-19.42c3.42-.85,6.88,1.23,7.73,4.65h0Z"/>
        <path class="st7" d="M437.39,121.08l-2.85-1.71s-.05-.02-.08-.03c.01-.04,0-.09-.04-.12-.05-.03-.12-.01-.15.04h0s-.98-.59-.98-.59h0c.03-.05.01-.12-.04-.15-.05-.03-.12-.01-.15.04h0c.51-1.26.06-2.73-1.13-3.44-1.32-.79-3.03-.37-3.82.95-.79,1.32-.37,3.03.95,3.82,1.2.72,2.71.43,3.57-.61h0c-.03.06-.01.12.04.15s.12.01.15-.04h0s.98.59.98.59h0c-.03.05-.01.12.04.15.04.02.09.01.12-.02.02.02.04.04.06.06l2.85,1.72c.22.13.51.06.64-.16.13-.22.06-.51-.16-.64ZM429.31,119.51c-1.11-.67-1.47-2.12-.8-3.23.67-1.11,2.12-1.47,3.23-.8,1.11.67,1.47,2.12.8,3.23-.67,1.11-2.12,1.47-3.23.8Z"/>
      </g>
      <g>
        <polygon class="st12" points="476.09 242.98 482.92 243.01 482.97 233.18 476.13 233.15 476.13 233.15 463.08 238.01 476.09 242.99 476.09 242.98"/>
        <g>
          <path class="st12" d="M587.39,243.23c-2.57-.01-4.65-2.11-4.64-4.69h0c.01-2.57,2.11-4.65,4.69-4.64l4.72.02c2.57.01,4.65,2.11,4.64,4.68h0c0,2.57-2.11,4.65-4.68,4.64l-4.72-.02Z"/>
          <path class="st7" d="M476.12,235.96c1.14-1.62.01-2.81.01-2.81l107.84.48v2.81s-107.85-.48-107.85-.48Z"/>
          <path class="st7" d="M476.09,242.98s1.83-1.23.01-2.81l107.83.48v2.81s-107.85-.48-107.85-.48Z"/>
          <path class="st11" d="M476.1,240.17c3.1-2.26.02-4.21.02-4.21l107.84.48-.02,4.21-107.83-.48Z"/>
          <rect class="st7" x="582.11" y="236.4" width="9.68" height="4.48" transform="translate(345.71 824.52) rotate(-89.75)"/>
          <path class="st11" d="M584.68,244.15c-.43,0-.76-.35-.76-.77l.04-9.67c0-.43.34-.77.77-.76h0c.42,0,.76.34.76.77l-.04,9.67c0,.42-.35.76-.77.76h0Z"/>
          <path class="st11" d="M589.75,244.17c-.42,0-.76-.34-.76-.77l.04-9.67c0-.42.35-.76.77-.76h0c.42,0,.77.34.76.77l-.04,9.67c0,.42-.35.76-.77.76h0Z"/>
        </g>
        <polygon class="st7" points="466.63 239.37 463.08 238.01 466.53 236.72 466.63 239.37"/>
      </g>
      <g>
        <path class="st11" d="M376.04,154.21l7.84,7.84.4.53c.79-.5,1.85-.41,2.54.27.8.79.8,2.08,0,2.88-.79.8-2.08.8-2.88,0-.68-.68-.78-1.73-.28-2.51l-.55-.4-7.84-7.84s3.57,12.42,5.21,14.05c1.64,1.64,7.96,3.04,7.96,3.04l2.36-2.36,2.36-2.36s-1.4-6.33-3.04-7.96c-1.63-1.63-14.07-5.19-14.07-5.19Z"/>
        <path class="st7" d="M389.66,172.79l19.32,20.92c1.62,1.62,4.25,1.62,5.87,0,1.62-1.62,1.62-4.25,0-5.87l-20.92-19.32-4.27,4.27Z"/>
      </g>
      <g>
        <path class="st7" d="M666.5,78.76c1.73,9.19-4.32,18.04-13.51,19.77-9.19,1.73-18.04-4.32-19.76-13.51-1.73-9.19,4.32-18.04,13.51-19.77,9.19-1.73,18.04,4.32,19.77,13.51Z"/>
        <path class="st2" d="M653.09,71.74c-4.62.87-4.43,3.76-4.43,3.76,0,0-.87-2.76-5.5-1.89-4.62.87-5.25,6.48-3.46,9.42,1.79,2.94,12.12,9.33,12.12,9.33,0,0,7.3-9.7,7.91-13.1.6-3.39-2.02-8.39-6.64-7.52Z"/>
      </g>
      <g>
        <path class="st12" d="M372.35,185.45c1.9,7.48-2.62,15.08-10.1,16.98-7.48,1.9-15.08-2.62-16.98-10.1-1.9-7.48,2.62-15.08,10.1-16.98,7.48-1.9,15.08,2.62,16.98,10.1Z"/>
        <path class="st15" d="M368.53,191.16h.02s-3.26-12.83-3.26-12.83v-.05s-.01,0-.01,0h0s-.01,0-.01,0l-12.06,4.84h0s2.58,10.14,2.58,10.14c-.53-.03-1.11.05-1.67.25-1.79.64-2.83,2.3-2.33,3.7.5,1.4,2.36,2.01,4.15,1.37,1.79-.65,2.83-2.3,2.33-3.7,0-.02-.02-.05-.03-.07h.02s-2.23-8.8-2.23-8.8l8.28-3.44,1.79,7.04c-.53-.03-1.11.04-1.67.25-1.79.64-2.83,2.3-2.33,3.7.5,1.4,2.36,2.01,4.15,1.36,1.79-.64,2.83-2.3,2.33-3.7,0-.02-.02-.05-.03-.07Z"/>
      </g>
      <g>
        <path class="st11" d="M356.59,207.27c-1.01,5.13-5.99,8.47-11.12,7.46-5.13-1.01-8.47-5.99-7.46-11.13,1.01-5.13,5.99-8.47,11.12-7.46,5.13,1.01,8.47,5.99,7.46,11.12Z"/>
        <path class="st7" d="M351.63,206.7c.57-.38.61-1.36-.21-1.52l-2.16-.42c.17-.44.44-1.17.45-1.25.09-.69-.18-1.6-.19-1.63-.05-.16-.41-.44-.83-.43-.54,0-.66.33-.67.42,0,0-.16.91-.2,1.15-.35.49-1.49,1.75-1.77,1.81-.06-.05-.12-.08-.19-.1l-2.73-.54c-.23-.05-.45.1-.5.34l-.74,3.77c-.02.21.12.4.32.44l2.45.48c.22.04.43-.1.47-.32l.03-.12s.09.01.13.04c.14.13.31.3.56.35l3.66.72c1.37.27,1.46-.97,1.37-1.16.28-.2.51-.62.38-1.01.18-.13.53-.51.38-1.01h0ZM344.64,208.81l-2.37-.47.74-3.76,2.37.47-.74,3.76ZM351,206.55l-.04.09c.59.3.11.96-.35.92l-.04.09c.57.27.14.96-.34.92l-.04.09c.48.18.19.99-.55.85l-3.72-.73c-.26-.05-.44-.4-.64-.44l-.17-.03.57-2.89c.24-.09.53-.21.69-.3.32-.18,1.78-1.75,1.83-1.98.04-.22.21-1.2.21-1.2,0,0,.27-.24.72.06,0,0,.26.85.18,1.47,0,0-.43,1.22-.61,1.6l2.58.51c.63.13.33,1.01-.28.98h0ZM351,206.55"/>
      </g>
      <g>
        <rect class="st11" x="613.71" y="113.34" width="57.55" height="46.61" transform="translate(327.06 712.81) rotate(-73.31)"/>
        <g>
          <rect class="st7" x="634.15" y="113.68" width="2.14" height="13.68" transform="translate(337.33 694.36) rotate(-73.31)"/>
          <rect class="st7" x="643.97" y="109.68" width="2.14" height="36.86" transform="translate(337.06 709.18) rotate(-73.31)"/>
          <rect class="st7" x="642.69" y="113.95" width="2.14" height="36.86" transform="translate(332.05 710.99) rotate(-73.31)"/>
          <rect class="st7" x="641.41" y="118.22" width="2.14" height="36.86" transform="translate(327.06 712.81) rotate(-73.31)"/>
          <rect class="st7" x="640.13" y="122.48" width="2.14" height="36.86" transform="translate(322.05 714.62) rotate(-73.31)"/>
          <rect class="st7" x="638.85" y="126.75" width="2.14" height="36.86" transform="translate(317.06 716.44) rotate(-73.31)"/>
          <rect class="st7" x="648.15" y="145.24" width="2.15" height="14.77" transform="translate(316.55 730.64) rotate(-73.31)"/>
        </g>
      </g>
      <g>
        <rect class="st7" x="719.96" y="142.7" width="25.19" height="30.11" transform="translate(193.89 678.68) rotate(-56.19)"/>
        <polygon class="st12" points="732.55 157.75 727.05 138.91 752.07 155.66 732.55 157.75"/>
        <polygon class="st11" points="732.55 157.75 738.06 176.6 713.03 159.84 732.55 157.75"/>
      </g>
      <g>
        <polygon class="st7" points="688.32 119.56 685.25 119.56 685.25 106.92 688.32 108.85 688.32 119.56"/>
        <path class="st11" d="M689.49,114.68h-.51v-1.48c0-.53-.43-.97-.97-.97h-2.45c-.53,0-.97.44-.97.97v1.48h-.51c-.53,0-.97.43-.97.97v37.61c0,.54.43.97.97.97h5.41c.54,0,.97-.43.97-.97v-37.61c0-.54-.43-.97-.97-.97Z"/>
        <rect class="st12" x="682.33" y="132.35" width="8.91" height="38.8"/>
        <path class="st7" d="M694.27,169.61h-.75c-.54,0-.97.43-.97.97v32.51h-.66v-33.76c0-.53-.43-.97-.97-.97h-8.28c-.53,0-.97.43-.97.97v38.29c0,.54.43.97.97.97h8.28c.53,0,.97-.43.97-.97v-2.11h2.38c.53,0,.97-.43.97-.97v-33.97c0-.54-.43-.97-.97-.97Z"/>
      </g>
    </g>
    <text class="st3" transform="translate(66.1 124.54)"><tspan x="0" y="0">Create your</tspan><tspan x="0" y="55.88">website</tspan></text>
    <text class="st6" transform="translate(491.27 400)"><tspan x="0" y="0">The best</tspan><tspan x="0" y="55.88">Optimization</tspan></text>
    <text class="st4" transform="translate(66.1 654.93)"><tspan x="0" y="0">Application</tspan><tspan x="0" y="55.88">Development</tspan></text>
    <g class="st5">
      <rect class="st12" x="483.76" y="24.87" width="19.56" height="11.36" transform="translate(3.22 94.62) rotate(-10.99)"/>
      <rect class="st7" x="484.85" y="26.19" width="17.64" height="10.03" transform="translate(3.1 94.63) rotate(-10.98)"/>
      <path class="st12" d="M517.31,31.05h4.44c.98,0,1.77.79,1.77,1.77v2.42c0,.98-.79,1.77-1.77,1.77h-4.44c-.98,0-1.77-.79-1.77-1.77v-2.42c0-.98.79-1.77,1.77-1.77Z" transform="translate(3.03 99.61) rotate(-10.98)"/>
      <path class="st11" d="M534.62,65.58c.19.96-.44,1.89-1.4,2.08l-61.73,11.98c-.96.19-1.89-.44-2.08-1.4l-6.11-31.48c-.19-.96.44-1.89,1.4-2.08l61.73-11.98c.96-.19,1.89.44,2.08,1.4l6.11,31.49Z"/>
      <rect class="st7" x="466.05" y="45.65" width="66.43" height="24.16" transform="translate(-1.85 96.21) rotate(-10.99)"/>
      <path class="st15" d="M516.35,52.79c1.87,9.66-4.43,19-14.09,20.88-9.65,1.88-19-4.43-20.88-14.09-1.87-9.66,4.43-19,14.09-20.88,9.66-1.87,19.01,4.43,20.88,14.09Z"/>
      <path class="st7" d="M514.46,53.16c1.67,8.61-3.96,16.95-12.57,18.62-8.61,1.67-16.95-3.96-18.62-12.57-1.67-8.61,3.96-16.95,12.57-18.62,8.61-1.67,16.95,3.95,18.62,12.57Z"/>
      <path class="st15" d="M512.29,53.58c1.44,7.41-3.4,14.59-10.81,16.02-7.41,1.44-14.59-3.4-16.03-10.81-1.44-7.41,3.4-14.59,10.82-16.03,7.41-1.44,14.59,3.4,16.03,10.82Z"/>
      <path class="st12" d="M509.17,54.19c1.1,5.69-2.61,11.2-8.3,12.3-5.69,1.1-11.2-2.61-12.3-8.3-1.11-5.69,2.61-11.2,8.3-12.3,5.69-1.1,11.2,2.61,12.3,8.3Z"/>
      <path class="st11" d="M502.65,55.45c.4,2.09-.96,4.11-3.05,4.51-2.09.41-4.11-.96-4.51-3.05-.41-2.09.96-4.11,3.05-4.51,2.09-.41,4.11.96,4.51,3.05Z"/>
      <path class="st11" d="M495.73,51.11c.18.94-.43,1.85-1.37,2.03-.94.18-1.85-.43-2.03-1.37-.18-.94.43-1.85,1.37-2.03.94-.18,1.85.43,2.03,1.37Z"/>
      <rect class="st12" x="486.7" y="27.18" width="13.67" height="6.74" transform="translate(3.22 94.62) rotate(-10.99)"/>
      <polygon class="st7" points="504.22 34.26 485.02 37.99 481.38 41.44 508.89 36.1 504.22 34.26"/>
      <path class="st11" d="M499.03,27.98c.13.69-.32,1.36-1.01,1.5-.69.13-1.36-.32-1.5-1.01-.13-.69.32-1.36,1.01-1.5.69-.13,1.36.32,1.49,1.01Z"/>
      <path class="st11" d="M498.5,30.45c.07.37-.17.73-.54.81-.37.07-.73-.17-.81-.54-.07-.37.17-.73.54-.81.37-.07.73.17.81.54Z"/>
      <path class="st12" d="M475.73,45.62c.12.6-.28,1.18-.87,1.3l-6.32,1.23c-.6.12-1.18-.28-1.3-.88h0c-.12-.6.27-1.18.87-1.3l6.32-1.23c.6-.12,1.18.28,1.3.88h0Z"/>
    </g>
    <g>
      <g>
        <path class="st11" d="M355.67,177.32c18.34,27.2,11.15,64.12-16.05,82.46-27.2,18.34-64.12,11.15-82.45-16.05-18.34-27.2-11.15-64.12,16.05-82.46,27.2-18.34,64.12-11.15,82.46,16.05Z"/>
        <path class="st7" d="M273.54,161.77c26.93-18.15,63.47-11.04,81.62,15.89,18.15,26.93,11.04,63.47-15.89,81.63-26.93,18.15-63.47,11.04-81.62-15.89-18.15-26.93-11.04-63.47,15.89-81.62M269.26,155.42c-30.39,20.49-38.44,61.87-17.96,92.26,20.49,30.39,61.87,38.45,92.26,17.96,30.39-20.48,38.45-61.87,17.96-92.26-20.48-30.38-61.87-38.44-92.26-17.96h0Z"/>
        <g>
          <path class="st15" d="M334.52,250.93l-1.26-1.88-1.25.84,1.27,1.88c-.66.84-.75,2.03-.13,2.96.63.93,1.77,1.29,2.79.99l1.27,1.88,1.25-.84-1.27-1.88c.66-.84.75-2.03.12-2.96-.63-.93-1.76-1.29-2.79-.99Z"/>
          <path class="st15" d="M276.7,165.08l-1.39-2.06-1.24.84,1.39,2.06c-.67.83-.76,2.03-.14,2.96.63.93,1.78,1.3,2.8.99l1.14,1.7,1.24-.84-1.14-1.7c.66-.83.74-2.02.12-2.95-.62-.93-1.76-1.29-2.78-.99Z"/>
          <rect class="st15" x="352.1" y="228.43" width="1.49" height="9.29" transform="translate(-11.41 447.88) rotate(-63.97)"/>
          <rect class="st15" x="353.35" y="205.98" width="9.29" height="1.5" transform="translate(-13.43 25.24) rotate(-3.96)"/>
          <path class="st15" d="M352.7,178.12l-2,1.35c-.82-.6-1.97-.66-2.86-.06-.9.61-1.28,1.69-1.02,2.68l-1.81,1.22.84,1.25,1.76-1.18c.84.73,2.08.84,3.04.2.96-.65,1.32-1.84.96-2.89l1.95-1.31-.84-1.25Z"/>
          <rect class="st15" x="324.38" y="162.96" width="9.29" height="1.5" transform="translate(37.74 387.79) rotate(-64.02)"/>
          <rect class="st15" x="301.92" y="153.92" width="1.5" height="9.29" transform="translate(-10.23 21.28) rotate(-3.96)"/>
          <rect class="st15" x="258.91" y="182.89" width="1.5" height="9.29" transform="translate(-22.69 338.77) rotate(-64.01)"/>
          <polygon class="st15" points="249.94 214.96 259.2 214.31 259.1 212.82 249.83 213.46 249.94 214.96"/>
          <path class="st15" d="M267.51,237.3l-.84-1.24-1.82,1.23c-.82-.6-1.97-.66-2.86-.05-.9.61-1.27,1.68-1.03,2.67l-1.99,1.34.84,1.25,1.93-1.3c.84.73,2.08.84,3.05.2.96-.65,1.32-1.85.96-2.9l1.76-1.19Z"/>
          <rect class="st15" x="278.84" y="256.15" width="9.29" height="1.5" transform="translate(-71.6 399.28) rotate(-64.03)"/>
          <rect class="st15" x="309.08" y="257.4" width="1.5" height="9.29" transform="translate(-16.71 21.14) rotate(-3.81)"/>
        </g>
        <path class="st7" d="M269.26,155.42s-.02.01-.02.02l4.28,6.35s.02-.01.02-.02c26.93-18.15,63.47-11.04,81.62,15.89,18.15,26.93,11.04,63.47-15.89,81.63,0,0-.02,0-.03.01l4.28,6.36s.02,0,.02-.02c30.39-20.48,38.45-61.87,17.96-92.26-20.48-30.38-61.87-38.44-92.26-17.96Z"/>
        <g>
          <path class="st7" d="M337.98,218.35c.27-.18.49-.42.67-.69l-.9-.17c-.36.4-.9.62-1.46.51-.56-.11-.97-.52-1.16-1.02l-31.04-6.04c.16.91.87,1.68,1.84,1.87l30.31,5.9c.63.12,1.25-.02,1.74-.36Z"/>
          <path class="st7" d="M337.13,214.14l-29.37-5.71-30.5-45.25c-.16-.24-.36-.42-.58-.57-.07-.05-.13-.09-.2-.13-.17-.1-.36-.17-.55-.22-.07-.02-.14-.05-.22-.06-.19-.03-.39-.04-.59-.02l.02.02c-.38.03-.76.12-1.1.35-.24.16-.44.37-.59.59h0c-.54.77-.59,1.81-.04,2.64l31.04,46.04s0,0,0,0v.02c.14.19.31.32.47.46.06.05.09.11.16.15.29.2.62.32.96.37l30.2,5.88c.63.12,1.25-.02,1.74-.36.49-.33.86-.85.99-1.48.06-.31.05-.62,0-.92h0c-.19-.88-.89-1.62-1.83-1.8ZM274.04,164.03c.05-.11.11-.22.19-.32.1-.13.21-.26.35-.35.36-.25.79-.32,1.19-.24.15.03.28.1.41.16.05.02.11.03.15.06.17.11.33.26.45.44.12.18.2.38.24.59.02.12,0,.25,0,.37,0,.08.01.16,0,.23-.08.4-.31.77-.67,1.01-.14.1-.3.15-.46.19-.12.03-.24.05-.37.05-.53.02-1.06-.2-1.37-.67-.32-.47-.32-1.04-.1-1.52ZM336.29,218c-.86-.17-1.42-1-1.25-1.86.03-.18.11-.34.2-.48.09-.14.19-.26.31-.37h0c.36-.32.84-.5,1.35-.4.52.1.9.46,1.11.9.06.13.11.27.14.42.02.17.04.35,0,.53-.17.86-1.01,1.42-1.86,1.26Z"/>
          <path class="st7" d="M308.37,209.01c.77,1.14.46,2.69-.67,3.45-1.14.77-2.69.47-3.45-.67-.77-1.14-.47-2.69.67-3.45,1.14-.77,2.69-.47,3.45.67Z"/>
          <path class="st16" d="M308.21,208.77c.77,1.14.46,2.69-.68,3.45-1.14.77-2.69.47-3.45-.67-.77-1.14-.47-2.69.67-3.45,1.14-.77,2.69-.47,3.45.67Z"/>
        </g>
      </g>
      <g>
        <path class="st15" d="M689.43,442.22c-.83,4.03-4.76,6.64-8.8,5.81l-64-13.09c-4.04-.83-6.64-4.76-5.81-8.8l26.06-127.43c.83-4.03,4.76-6.64,8.8-5.81l64,13.09c4.04.83,6.64,4.77,5.81,8.8l-26.06,127.43Z"/>
        <rect class="st11" x="601.88" y="332.24" width="124.39" height="67.36" transform="translate(172.55 943.24) rotate(-78.44)"/>
        <path class="st7" d="M654.52,434.89c-.49,2.41-2.85,3.97-5.26,3.47-2.41-.49-3.97-2.85-3.48-5.26.49-2.41,2.85-3.97,5.26-3.48,2.41.49,3.97,2.85,3.47,5.26Z"/>
        <rect class="st7" x="615.78" y="333.49" width="65.06" height="11.53" transform="translate(186.05 906.46) rotate(-78.44)"/>
        <rect class="st12" x="644.95" y="355.52" width="25.7" height="11.53" transform="translate(172.07 933.38) rotate(-78.44)"/>
        <rect class="st7" x="654.4" y="353.39" width="35.65" height="11.53" transform="translate(185.7 945.81) rotate(-78.45)"/>
        <rect class="st12" x="665.31" y="351.49" width="45.79" height="11.53" transform="translate(200.33 959.94) rotate(-78.44)"/>
        <g>
          <rect class="st15" x="650.29" y="391.86" width="5.8" height="52.73" transform="translate(112.58 974.39) rotate(-78.44)"/>
          <rect class="st15" x="652.62" y="380.5" width="5.8" height="52.73" transform="translate(125.59 967.59) rotate(-78.44)"/>
          <rect class="st15" x="654.94" y="369.12" width="5.8" height="52.73" transform="translate(138.57 960.76) rotate(-78.44)"/>
          <rect class="st15" x="657.27" y="357.76" width="5.8" height="52.73" transform="translate(151.57 953.94) rotate(-78.44)"/>
        </g>
      </g>
      <g>
        <path class="st11" d="M783.28,479.32l-75.47-29.97c-5.46-2.17-11.64.5-13.81,5.96l-20.69,52.11c-2.17,5.46.5,11.64,5.96,13.81l49.1,19.5.62,30.19,21.16-21.54,4.59,1.82c5.46,2.17,11.64-.5,13.81-5.96l20.69-52.11c2.17-5.46-.5-11.64-5.96-13.81Z"/>
        <g>
          <path class="st15" d="M705.46,503.08c-1.46,3.67-5.61,5.46-9.28,4.01-3.67-1.46-5.46-5.62-4.01-9.28,1.46-3.67,5.61-5.47,9.29-4.01,3.67,1.46,5.46,5.62,4,9.29Z"/>
          <path class="st15" d="M733.44,514.19c-1.46,3.67-5.61,5.46-9.28,4-3.67-1.46-5.46-5.62-4.01-9.28,1.46-3.67,5.61-5.47,9.29-4.01,3.67,1.46,5.46,5.62,4,9.29Z"/>
          <path class="st15" d="M761.41,525.3c-1.46,3.67-5.61,5.46-9.28,4-3.67-1.46-5.46-5.62-4.01-9.28,1.46-3.67,5.61-5.47,9.29-4.01,3.67,1.46,5.46,5.62,4,9.29Z"/>
        </g>
      </g>
      <g>
        <rect class="st7" x="319.26" y="539.93" width="142.04" height="46.81"/>
        <rect class="st11" x="301.05" y="575.73" width="178.46" height="11.02"/>
        <path class="st11" d="M216.48,278.71h347.6c6.08,0,11.02,4.94,11.02,11.02v247.48c0,6.08-4.94,11.01-11.01,11.01H216.48c-6.08,0-11.01-4.93-11.01-11.01v-247.48c0-6.08,4.94-11.02,11.02-11.02Z"/>
        <path class="st7" d="M575.1,513.3v-223.57c0-6.08-4.93-11.01-11.01-11.01H216.48c-6.09,0-11.02,4.93-11.02,11.01v223.57h369.63Z"/>
        <rect class="st11" x="221.18" y="294.43" width="338.2" height="209.55"/>
        <rect class="st15" x="221.18" y="294.43" width="338.2" height="17.47"/>
        <rect class="st11" x="264.45" y="299.12" width="251.66" height="8.08"/>
        <path class="st11" d="M232.72,303.16c0,2.23-1.81,4.04-4.04,4.04s-4.04-1.81-4.04-4.04,1.81-4.04,4.04-4.04,4.04,1.81,4.04,4.04Z"/>
        <path class="st12" d="M244.26,303.16c0,2.23-1.81,4.04-4.04,4.04s-4.04-1.81-4.04-4.04,1.81-4.04,4.04-4.04,4.04,1.81,4.04,4.04Z"/>
        <path class="st7" d="M255.8,303.16c0,2.23-1.81,4.04-4.04,4.04s-4.04-1.81-4.04-4.04,1.81-4.04,4.04-4.04,4.04,1.81,4.04,4.04Z"/>
        <rect class="st12" x="520.2" y="299.12" width="18.92" height="1.03"/>
        <rect class="st12" x="520.2" y="301.47" width="18.92" height="1.03"/>
        <rect class="st12" x="520.2" y="303.82" width="18.92" height="1.03"/>
        <rect class="st12" x="520.2" y="306.18" width="18.92" height="1.02"/>
        <rect class="st12" x="543.42" y="299.12" width="10.5" height="8.08"/>
        <path class="st15" d="M398.9,532.36c0,4.76-3.86,8.62-8.62,8.62s-8.62-3.86-8.62-8.62,3.86-8.61,8.62-8.61,8.62,3.85,8.62,8.61Z"/>
      </g>
      <path class="st7" d="M161.76,593.83l-8.67,9.52,8.04,11.89,12.06-4.49c2.54,2.19,5.31,4.02,8.25,5.46l.61,12.85,14.1,2.72,5.35-11.7c3.27-.24,6.52-.91,9.69-2l9.52,8.67,11.89-8.04-4.49-12.06c2.18-2.54,4.01-5.31,5.45-8.25l12.85-.61,2.72-14.09-11.7-5.35c-.24-3.27-.91-6.53-1.98-9.7l8.66-9.52-8.04-11.89-12.07,4.49c-2.54-2.19-5.3-4.02-8.25-5.46l-.61-12.85-14.09-2.72-5.35,11.7c-3.27.24-6.52.9-9.69,1.99l-9.52-8.67-11.89,8.04,4.5,12.06c-2.19,2.54-4.01,5.31-5.46,8.26l-12.85.6-2.72,14.09,11.7,5.35c.24,3.27.9,6.52,1.99,9.7ZM180.59,577.76c1.92-9.96,11.55-16.47,21.5-14.54,9.95,1.92,16.46,11.55,14.54,21.5-1.92,9.95-11.55,16.46-21.5,14.54-9.95-1.92-16.46-11.55-14.54-21.5Z"/>
      <path class="st15" d="M564.26,601.57l.27,4.67,5.14.93,1.9-4.28c1.21-.1,2.39-.36,3.52-.76l3.5,3.11,4.29-2.97-1.68-4.37c.77-.91,1.42-1.93,1.95-3.03l4.68-.27.93-5.14-4.28-1.9c-.11-1.21-.36-2.39-.76-3.52l3.11-3.5-2.97-4.29-4.37,1.68c-.91-.77-1.93-1.42-3.03-1.95l-.28-4.67-5.14-.93-1.9,4.28c-1.21.1-2.39.36-3.52.76l-3.5-3.11-4.29,2.98,1.69,4.37c-.77.91-1.42,1.93-1.95,3.03l-4.68.27-.93,5.14,4.28,1.9c.1,1.22.36,2.39.76,3.52l-3.11,3.5,2.97,4.29,4.37-1.68c.91.77,1.93,1.42,3.03,1.95ZM564.87,592.59c-2.1-3.03-1.35-7.19,1.68-9.29,3.03-2.1,7.19-1.35,9.29,1.69,2.1,3.03,1.35,7.19-1.68,9.29-3.03,2.1-7.19,1.35-9.29-1.68Z"/>
      <g>
        <g>
          <path class="st7" d="M119.25,326.71c3.87-3.64,6.86-8.31,8.42-13.78,4.63-16.2-4.74-33.08-20.93-37.71-16.2-4.63-33.07,4.74-37.71,20.94-1.57,5.48-1.5,11.02-.14,16.15l-.12-.03c6.7,22.07,3.01,30.26,3.01,30.26l14.51,4.15,14.51,4.15s1.19-8.9,18.55-24.1l-.11-.03Z"/>
          <path class="st11" d="M82,306.8c1.43-.13,2.86-.19,4.28-.28h.13s.13.13.13.13c.64.65,1.24,1.34,1.85,2.01l-.64-.11,3.2-2.09.52-.34.38.56c1.08,1.58,2.13,3.18,3.17,4.77l-1.07-.27c1.97-1.12,3.95-2.24,5.95-3.32l.95-.52.23,1.05c.31,1.4.57,2.8.85,4.2l-1.19-.41,1.29-1.03.62-.5.4.63,1.15,1.82-.84-.14,2.97-1.93.31-.21.23.22c1.4,1.33,2.79,2.65,4.14,4.04-1.61-1.08-3.16-2.22-4.71-3.36l.54.02-2.79,2.19-.46.36-.38-.51-1.31-1.71,1.02.14-1.24,1.09-.9.79-.29-1.2c-.34-1.39-.68-2.77-.99-4.17l1.18.53c-1.97,1.13-3.96,2.22-5.96,3.3l-.68.37-.39-.64c-.99-1.63-1.98-3.26-2.93-4.92l.9.22-3.37,1.8-.4.21-.24-.32c-.55-.73-1.1-1.45-1.62-2.2l.26.13c-1.42-.13-2.85-.23-4.27-.41Z"/>
          <rect class="st12" x="60.15" y="326.53" width="40.7" height="1.11" transform="translate(-251.65 383.18) rotate(-85.76)"/>
          <path class="st12" d="M84.25,307.44c-.36,1.24-1.65,1.96-2.89,1.61-1.24-.36-1.96-1.65-1.61-2.89.36-1.24,1.65-1.96,2.89-1.6,1.24.36,1.96,1.65,1.6,2.89Z"/>
          <rect class="st12" x="81.23" y="332.56" width="40.7" height="1.11" transform="translate(-240.66 268.64) rotate(-62.37)"/>
          <path class="st12" d="M108.78,314.46c-.36,1.24.36,2.54,1.61,2.89,1.24.35,2.53-.36,2.89-1.61.36-1.24-.36-2.53-1.6-2.89-1.24-.36-2.54.36-2.89,1.6Z"/>
          <g>
            <polygon class="st15" points="86.3 346.68 71.78 342.53 69.64 350.03 71.18 356.26 82.62 359.53 94.06 362.8 98.66 358.33 100.81 350.83 86.3 346.68"/>
            <g>
              <path class="st11" d="M101.61,353.86c-.2.68-.88,1.1-1.54.91l-29.75-8.51c-.65-.19-1.02-.9-.83-1.59h0c.2-.69.89-1.1,1.54-.92l29.75,8.51c.66.19,1.02.9.83,1.59h0Z"/>
              <path class="st11" d="M100.21,358.77c-.2.69-.88,1.1-1.54.91l-29.75-8.51c-.65-.19-1.02-.9-.83-1.59h0c.2-.69.89-1.1,1.54-.92l29.75,8.51c.66.19,1.02.9.83,1.59h0Z"/>
              <path class="st11" d="M95.82,363.3c-.16.57-.73.9-1.27.75l-24.45-6.99c-.54-.15-.84-.74-.68-1.3h0c.16-.57.73-.91,1.27-.75l24.45,6.99c.53.15.84.74.68,1.31h0Z"/>
            </g>
          </g>
        </g>
        <path class="st15" d="M32.77,323.57s1.39-.77,3.54-1.63c2.15-.88,5.07-1.87,8.03-2.69,2.97-.8,5.98-1.44,8.28-1.77,2.29-.35,3.87-.4,3.87-.4,0,0-1.39.77-3.54,1.63-2.15.88-5.07,1.87-8.03,2.68-2.97.8-5.98,1.44-8.28,1.77-2.29.35-3.88.4-3.88.4Z"/>
        <path class="st15" d="M30.6,293.96s1.58-.11,3.89.02c2.32.11,5.38.45,8.42.96,3.03.53,6.03,1.23,8.26,1.89,2.22.65,3.68,1.28,3.68,1.28,0,0-1.58.11-3.9-.02-2.32-.11-5.38-.45-8.41-.96-3.03-.53-6.03-1.23-8.25-1.9-2.23-.65-3.68-1.27-3.68-1.27Z"/>
        <path class="st15" d="M41.14,266.21s1.48.57,3.52,1.67c2.06,1.08,4.69,2.68,7.22,4.43,2.52,1.76,4.95,3.66,6.68,5.2,1.74,1.53,2.79,2.72,2.79,2.72,0,0-1.48-.57-3.52-1.66-2.06-1.08-4.69-2.68-7.22-4.43-2.52-1.76-4.95-3.66-6.68-5.21-1.74-1.53-2.8-2.71-2.8-2.71Z"/>
        <path class="st15" d="M62.42,245.51s1.1,1.14,2.49,3c1.41,1.85,3.12,4.41,4.68,7.06,1.54,2.66,2.94,5.41,3.86,7.54.93,2.13,1.39,3.64,1.39,3.64,0,0-1.1-1.14-2.49-3-1.4-1.85-3.12-4.41-4.67-7.06-1.54-2.66-2.93-5.41-3.85-7.54-.94-2.12-1.39-3.64-1.39-3.64Z"/>
        <path class="st15" d="M90.46,235.75s.51,1.5.99,3.77c.49,2.27.96,5.32,1.25,8.38.28,3.06.38,6.14.31,8.46-.05,2.32-.28,3.89-.28,3.89,0,0-.51-1.5-.99-3.77-.5-2.27-.96-5.32-1.25-8.38-.28-3.06-.37-6.14-.31-8.46.05-2.32.28-3.89.28-3.89Z"/>
        <path class="st15" d="M119.99,238.75s-.17,1.57-.7,3.83c-.51,2.26-1.37,5.22-2.41,8.12-1.04,2.89-2.25,5.73-3.3,7.8-1.03,2.08-1.9,3.4-1.9,3.4,0,0,.17-1.57.7-3.83.51-2.27,1.38-5.22,2.41-8.12,1.05-2.9,2.26-5.73,3.3-7.8,1.02-2.08,1.89-3.4,1.89-3.4Z"/>
        <path class="st15" d="M145.5,253.95s-.82,1.35-2.25,3.18c-1.42,1.84-3.45,4.15-5.61,6.35-2.17,2.18-4.46,4.24-6.29,5.67-1.81,1.45-3.16,2.28-3.16,2.28,0,0,.82-1.36,2.25-3.18,1.42-1.84,3.46-4.15,5.61-6.34,2.17-2.18,4.47-4.24,6.29-5.67,1.81-1.45,3.15-2.29,3.15-2.29Z"/>
        <path class="st15" d="M162.19,278.5s-1.31.88-3.39,1.93c-2.06,1.06-4.89,2.3-7.77,3.38-2.89,1.06-5.83,1.95-8.1,2.49-2.25.55-3.83.73-3.83.73,0,0,1.31-.88,3.38-1.93,2.07-1.06,4.89-2.3,7.77-3.38,2.89-1.06,5.84-1.95,8.1-2.48,2.26-.55,3.83-.73,3.83-.73Z"/>
        <path class="st15" d="M166.93,307.81s-1.56.24-3.88.32c-2.32.09-5.4.02-8.47-.22-3.06-.26-6.11-.7-8.39-1.17-2.28-.45-3.78-.95-3.78-.95,0,0,1.56-.24,3.88-.32,2.32-.09,5.4-.02,8.47.23,3.06.26,6.11.7,8.39,1.17,2.28.45,3.78.95,3.78.95Z"/>
        <path class="st15" d="M158.85,336.38s-1.52-.44-3.65-1.35c-2.14-.9-4.9-2.26-7.58-3.78-2.67-1.53-5.25-3.21-7.11-4.6-1.87-1.37-3.02-2.46-3.02-2.46,0,0,1.52.44,3.65,1.35,2.14.9,4.91,2.26,7.58,3.78,2.67,1.53,5.24,3.22,7.11,4.6,1.87,1.37,3.02,2.46,3.02,2.46Z"/>
        <path class="st15" d="M139.45,358.85s-1.19-1.04-2.74-2.77c-1.56-1.72-3.49-4.12-5.27-6.63-1.77-2.52-3.4-5.13-4.5-7.18-1.12-2.04-1.7-3.51-1.7-3.51,0,0,1.19,1.04,2.74,2.77,1.56,1.72,3.49,4.12,5.27,6.63,1.77,2.52,3.39,5.13,4.5,7.18,1.11,2.04,1.7,3.5,1.7,3.5Z"/>
      </g>
      <g>
        <path class="st11" d="M559.79,234.03c1.67,6.72-2.42,13.52-9.14,15.19l-153.42,38.16c-6.72,1.67-13.52-2.42-15.19-9.14h0c-1.67-6.72,2.42-13.52,9.14-15.2l153.42-38.16c6.72-1.67,13.53,2.42,15.2,9.15h0Z"/>
        <path class="st7" d="M552.91,243.09l-5.6-3.37s-.1-.03-.15-.05c.02-.09,0-.18-.08-.23-.1-.06-.23-.03-.29.07h0l-1.93-1.16h0c.06-.1.03-.23-.07-.29-.1-.06-.23-.03-.29.07h-.02c1.01-2.46.12-5.35-2.22-6.77-2.59-1.56-5.95-.72-7.51,1.87-1.56,2.59-.72,5.95,1.87,7.51,2.35,1.41,5.32.84,7.01-1.2h.02c-.06.11-.03.24.07.3.1.06.23.03.29-.07h0s1.93,1.16,1.93,1.16h0c-.06.1-.03.23.07.29.08.05.17.02.24-.04.04.04.07.08.12.11l5.6,3.37c.44.26,1,.12,1.26-.31.26-.44.12-1-.31-1.26ZM537.05,240.01c-2.18-1.31-2.89-4.16-1.58-6.34,1.31-2.19,4.16-2.89,6.34-1.58,2.18,1.31,2.89,4.16,1.58,6.34-1.31,2.19-4.16,2.89-6.34,1.58Z"/>
      </g>
      <g>
        <polygon class="st15" points="132.75 224.53 138.85 227.56 143.2 218.78 137.09 215.75 137.1 215.75 123.29 214.38 132.75 224.53 132.75 224.53"/>
        <g>
          <path class="st15" d="M232.22,273.54c-2.3-1.14-3.24-3.93-2.1-6.23h0c1.14-2.3,3.93-3.24,6.22-2.09l4.22,2.09c2.3,1.14,3.24,3.92,2.1,6.22h0c-1.13,2.3-3.93,3.24-6.22,2.1l-4.22-2.09Z"/>
          <path class="st7" d="M135.85,218.26c1.73-.95,1.24-2.51,1.24-2.51l96.27,47.7-1.24,2.51-96.27-47.7Z"/>
          <path class="st7" d="M132.74,224.53s2.18-.3,1.25-2.51l96.26,47.7-1.24,2.51-96.27-47.7Z"/>
          <path class="st11" d="M133.99,222.02c3.77-.66,1.86-3.76,1.86-3.76l96.27,47.7-1.86,3.76-96.26-47.7Z"/>
          <rect class="st7" x="229.01" y="267.01" width="9.64" height="4.46" transform="translate(-111.23 359.24) rotate(-63.64)"/>
          <path class="st11" d="M229.39,273.18c-.38-.19-.53-.64-.34-1.02l4.28-8.63c.19-.38.64-.54,1.02-.35h0c.37.19.53.64.34,1.02l-4.28,8.63c-.19.38-.64.53-1.02.34h0Z"/>
          <path class="st11" d="M233.91,275.42c-.38-.18-.53-.64-.34-1.02l4.28-8.63c.19-.38.64-.53,1.02-.34h0c.38.18.53.64.34,1.02l-4.28,8.63c-.19.38-.65.53-1.02.34h0Z"/>
        </g>
        <polygon class="st14" points="125.87 217.15 123.29 214.38 126.94 214.74 125.87 217.15"/>
      </g>
      <g>
        <path class="st15" d="M89.47,502.99c3.73,14.69-5.15,29.64-19.85,33.37-14.69,3.73-29.63-5.15-33.37-19.84-3.73-14.69,5.15-29.63,19.85-33.36,14.69-3.73,29.63,5.15,33.37,19.84Z"/>
        <path class="st12" d="M81.96,514.21h.03s-6.41-25.22-6.41-25.22v-.09s-.02,0-.02,0h0s-.02,0-.02,0l-23.69,9.52h0s5.06,19.92,5.06,19.92c-1.05-.06-2.17.09-3.29.49-3.51,1.26-5.56,4.52-4.57,7.26.99,2.75,4.64,3.95,8.15,2.68,3.52-1.27,5.57-4.52,4.58-7.26-.02-.05-.04-.09-.06-.13h.03s-4.39-17.29-4.39-17.29l16.28-6.77,3.51,13.84c-1.05-.06-2.17.09-3.28.49-3.51,1.27-5.56,4.52-4.57,7.26.99,2.75,4.64,3.95,8.15,2.68,3.51-1.27,5.56-4.52,4.57-7.26-.02-.05-.04-.09-.06-.13Z"/>
      </g>
      <g>
        <path class="st11" d="M58.5,545.87c-1.99,10.08-11.77,16.65-21.86,14.66-10.08-1.99-16.64-11.78-14.65-21.86,1.99-10.09,11.77-16.64,21.86-14.66,10.08,1.99,16.64,11.77,14.66,21.86Z"/>
        <path class="st7" d="M48.75,544.75c1.11-.74,1.2-2.68-.41-3l-4.24-.83c.34-.86.87-2.31.89-2.45.17-1.35-.36-3.14-.38-3.21-.1-.32-.8-.86-1.62-.85-1.06.02-1.3.64-1.32.82,0,0-.31,1.78-.39,2.26-.7.97-2.93,3.45-3.48,3.56-.11-.1-.24-.17-.38-.19l-5.36-1.06c-.45-.09-.89.2-.98.66l-1.46,7.4c-.05.41.23.78.63.86l4.82.95c.42.08.84-.19.92-.62l.05-.24s.18.02.25.08c.27.26.61.59,1.1.68l7.18,1.42c2.69.53,2.87-1.91,2.69-2.29.55-.4,1-1.22.76-1.98.36-.25,1.04-1.01.75-1.99h0ZM35.03,548.88l-4.65-.92,1.46-7.39,4.65.92-1.46,7.39ZM47.51,544.44l-.08.18c1.16.59.23,1.89-.68,1.81l-.08.17c1.13.53.27,1.89-.68,1.81l-.08.18c.94.35.38,1.95-1.09,1.67l-7.31-1.44c-.52-.1-.87-.79-1.25-.86l-.33-.07,1.12-5.69c.46-.18,1.03-.41,1.36-.59.62-.35,3.5-3.45,3.59-3.89.09-.44.42-2.36.42-2.36,0,0,.53-.47,1.41.12,0,0,.51,1.67.35,2.89,0,0-.85,2.4-1.2,3.14l5.06,1c1.24.25.66,1.98-.55,1.93h0ZM47.51,544.44"/>
      </g>
      <g>
        <rect class="st11" x="98.48" y="458.19" width="113.07" height="91.58" transform="translate(-372.25 507.72) rotate(-73.31)"/>
        <g>
          <rect class="st7" x="138.64" y="458.85" width="4.21" height="26.88" transform="translate(-352.07 471.44) rotate(-73.31)"/>
          <rect class="st7" x="157.94" y="451.01" width="4.21" height="72.42" transform="translate(-352.61 500.57) rotate(-73.31)"/>
          <rect class="st7" x="155.43" y="459.39" width="4.21" height="72.42" transform="translate(-362.43 504.14) rotate(-73.31)"/>
          <rect class="st7" x="152.91" y="467.77" width="4.21" height="72.42" transform="translate(-372.25 507.72) rotate(-73.31)"/>
          <rect class="st7" x="150.4" y="476.16" width="4.21" height="72.42" transform="translate(-382.08 511.27) rotate(-73.31)"/>
          <rect class="st7" x="147.89" y="484.54" width="4.21" height="72.42" transform="translate(-391.9 514.84) rotate(-73.31)"/>
          <rect class="st7" x="166.16" y="520.86" width="4.22" height="29.01" transform="translate(-392.88 542.79) rotate(-73.31)"/>
        </g>
      </g>
      <g>
        <rect class="st7" x="163.04" y="162.12" width="49.5" height="59.17" transform="translate(-75.98 241.09) rotate(-56.19)"/>
        <polygon class="st15" points="187.8 191.71 176.98 154.68 226.15 187.6 187.8 191.71"/>
        <polygon class="st11" points="187.8 191.71 198.61 228.73 149.44 195.81 187.8 191.71"/>
      </g>
      <g>
        <polygon class="st7" points="154.74 375.81 151.05 371.01 170.72 355.86 171.4 362.98 154.74 375.81"/>
        <path class="st11" d="M163.73,371.77l-.61-.79,2.3-1.77c.83-.64.99-1.84.35-2.67l-2.94-3.81c-.64-.83-1.84-.99-2.67-.35l-2.29,1.77-.61-.8c-.64-.83-1.84-.99-2.67-.35l-58.55,45.09c-.83.64-.99,1.84-.35,2.67l6.48,8.42c.64.83,1.83.99,2.67.35l58.55-45.09c.83-.64.99-1.83.35-2.67Z"/>
        <rect class="st15" x="64.66" y="403.25" width="76.24" height="17.5" transform="translate(-230.02 148.27) rotate(-37.6)"/>
        <path class="st7" d="M83.95,445.07l-.9-1.17c-.64-.83-1.83-.99-2.67-.35l-50.62,38.97-.79-1.03,52.55-40.47c.83-.64.99-1.84.35-2.67l-9.93-12.89c-.64-.83-1.83-.99-2.67-.35l-59.62,45.91c-.83.64-.99,1.84-.35,2.67l9.93,12.9c.64.83,1.84.99,2.67.35l3.29-2.53,1.95,2.53.9,1.17c.64.83,1.83.99,2.67.35l.76-.58,52.12-40.14c.83-.64.99-1.83.35-2.67Z"/>
      </g>
      <g>
        <rect class="st7" x="287.86" y="349.06" width="32.1" height="136.53"/>
        <polygon class="st7" points="277.59 489.88 277.59 349.06 271.81 349.06 271.81 489.88 271.81 495.65 277.59 495.65 508.75 495.65 508.75 489.88 277.59 489.88"/>
        <rect class="st15" x="334.87" y="396.01" width="32.1" height="89.59"/>
        <rect class="st7" x="381.88" y="432.29" width="32.1" height="53.3"/>
        <rect class="st15" x="428.89" y="386.29" width="32.1" height="99.31"/>
        <rect class="st7" x="475.9" y="366.91" width="32.1" height="118.68"/>
      </g>
      <g>
        <path class="st15" d="M658.86,510.83c4.99,4.99,4.99,13.08,0,18.07h0c-4.99,4.99-13.08,4.99-18.07,0l-64.33-64.33c-4.99-4.99-4.99-13.08,0-18.06h0c4.99-4.99,13.08-4.99,18.07,0l64.33,64.32Z"/>
        <rect class="st15" x="554.08" y="412.4" width="23.09" height="46.54" transform="translate(-142.4 527.54) rotate(-45)"/>
        <path class="st15" d="M454.95,325c25.07-25.07,65.87-25.07,90.94,0,25.08,25.08,25.07,65.87,0,90.95-25.07,25.07-65.87,25.08-90.94,0-25.08-25.07-25.07-65.87,0-90.95M446.55,316.6c-29.75,29.75-29.75,77.98,0,107.74,29.75,29.75,77.98,29.75,107.73,0,29.75-29.76,29.75-77.98,0-107.74-29.75-29.75-77.98-29.75-107.73,0h0Z"/>
        <path class="st11" d="M565.96,415.54c1.14,1.14,1.14,2.99,0,4.13l-16.34,16.34c-1.14,1.14-2.99,1.14-4.13,0h0c-1.15-1.14-1.15-3,0-4.13l16.34-16.34c1.14-1.14,2.99-1.14,4.13,0h0Z"/>
        <path class="st11" d="M592.31,441.89c1.15,1.14,1.15,2.99,0,4.13l-16.34,16.34c-1.14,1.14-2.99,1.14-4.13,0h0c-1.15-1.14-1.14-2.99,0-4.13l16.34-16.34c1.14-1.14,2.99-1.14,4.13,0h0Z"/>
      </g>
      <g>
        <path class="st11" d="M482.73,167.38c-2.78,0-5.42.58-7.81,1.62-2.27-10.31-11.45-18.03-22.44-18.03-12.18,0-22.11,9.47-22.92,21.44-8.75.94-15.57,8.35-15.57,17.36,0,9.64,7.81,17.45,17.45,17.45,1.45,0,2.84-.2,4.19-.53h47.1c10.86,0,19.66-8.8,19.66-19.66s-8.8-19.65-19.66-19.65Z"/>
        <polygon class="st15" points="468.78 211.3 468.78 197.12 445.27 197.12 445.27 211.3 441.66 211.3 457.03 229.5 472.39 211.3 468.78 211.3"/>
      </g>
      <g>
        <path class="st7" d="M677.31,250.19c-10.95,30.34-44.41,46.06-74.76,35.11-30.34-10.94-46.06-44.42-35.11-74.75,10.95-30.35,44.42-46.06,74.75-35.12,30.35,10.95,46.07,44.41,35.12,74.76Z"/>
        <path class="st8" d="M663.42,245.17c-8.18,22.66-33.18,34.41-55.84,26.23-22.66-8.18-34.41-33.18-26.23-55.84,8.18-22.67,33.18-34.41,55.84-26.23,22.67,8.18,34.41,33.18,26.23,55.85Z"/>
        <path class="st13" d="M648.67,239.85c-5.24,14.52-21.26,22.04-35.78,16.8-14.52-5.24-22.04-21.26-16.8-35.78,5.24-14.52,21.26-22.05,35.78-16.81,14.52,5.24,22.05,21.26,16.81,35.78Z"/>
        <path class="st8" d="M634.99,234.92c-2.51,6.96-10.2,10.57-17.16,8.06-6.96-2.51-10.57-10.2-8.06-17.16,2.51-6.97,10.2-10.58,17.16-8.06,6.97,2.51,10.58,10.2,8.06,17.16Z"/>
        <path class="st15" d="M648.67,239.85c-5.24,14.52-21.26,22.04-35.78,16.8-14.52-5.24-22.04-21.26-16.8-35.78,5.24-14.52,21.26-22.05,35.78-16.81,14.52,5.24,22.05,21.26,16.81,35.78Z"/>
        <path class="st8" d="M634.99,234.92c-2.51,6.96-10.2,10.57-17.16,8.06-6.96-2.51-10.57-10.2-8.06-17.16,2.51-6.97,10.2-10.58,17.16-8.06,6.97,2.51,10.58,10.2,8.06,17.16Z"/>
        <path class="st7" d="M696.07,204.92l12.25-5.59-9.87-3.68,3.68-9.87-12.25,5.59-6.64,9.7-49.38,22.53-.64-7.97c-2.24,4.94-6.84,10.73-10.85,14.72,5.65-.41,13.04-.09,18.23,1.46l-5.6-5.71,49.38-22.53,11.68,1.35Z"/>
      </g>
    </g>
    <g class="st5">
      <g>
        <polygon class="st12" points="690.86 762.52 694.29 759.09 689.35 754.16 685.92 757.59 685.92 757.59 681.85 766.6 690.86 762.52 690.86 762.52"/>
        <g>
          <path class="st15" d="M746.57,706.56c-1.29,1.29-3.39,1.29-4.68,0h0c-1.29-1.29-1.29-3.38,0-4.68l2.37-2.37c1.29-1.29,3.38-1.29,4.67,0h0c1.29,1.29,1.29,3.39,0,4.68l-2.37,2.37Z"/>
          <path class="st15" d="M687.33,759c-.25-1.39-1.41-1.41-1.41-1.41l54.1-54.1,1.41,1.41-54.1,54.1Z"/>
          <path class="st15" d="M690.86,762.52s.29-1.54-1.41-1.41l54.1-54.1,1.41,1.41-54.1,54.1Z"/>
          <path class="st11" d="M689.45,761.11c.41-2.69-2.11-2.11-2.11-2.11l54.1-54.1,2.11,2.11-54.1,54.1Z"/>
          <rect class="st12" x="742.44" y="701.06" width="3.18" height="6.87" transform="translate(-280.23 732.45) rotate(-45)"/>
          <path class="st11" d="M745.68,708.39c-.21.21-.55.21-.77,0l-4.85-4.85c-.21-.21-.21-.56,0-.77h0c.21-.21.55-.21.77,0l4.85,4.85c.21.21.21.55,0,.77h0Z"/>
          <path class="st11" d="M748.22,705.85c-.21.21-.55.21-.77,0l-4.85-4.85c-.21-.21-.21-.56,0-.77h0c.21-.21.56-.21.77,0l4.85,4.85c.21.21.21.56,0,.77h0Z"/>
        </g>
        <polygon class="st15" points="684.31 765.48 681.85 766.6 682.93 764.21 684.31 765.48"/>
      </g>
      <g>
        <path class="st15" d="M751.77,601.08c1.78,9.47-4.45,18.59-13.92,20.37-9.47,1.78-18.58-4.45-20.36-13.92-1.78-9.47,4.45-18.59,13.91-20.37,9.47-1.78,18.59,4.45,20.37,13.92Z"/>
        <path class="st2" d="M737.96,593.85c-4.76.9-4.57,3.87-4.57,3.87,0,0-.9-2.85-5.66-1.95-4.76.9-5.41,6.68-3.56,9.71,1.85,3.03,12.49,9.61,12.49,9.61,0,0,7.52-10,8.15-13.49.62-3.5-2.08-8.65-6.85-7.75Z"/>
      </g>
      <g>
        <path class="st2" d="M551.39,611.53c-1.09,0-2.12.23-3.06.63-.89-4.03-4.48-7.05-8.78-7.05-4.76,0-8.65,3.7-8.97,8.39-3.42.37-6.09,3.27-6.09,6.79,0,3.77,3.06,6.83,6.83,6.83.57,0,1.11-.08,1.64-.21h18.43c4.25,0,7.69-3.44,7.69-7.69s-3.44-7.69-7.69-7.69Z"/>
        <polygon class="st15" points="545.94 628.71 545.94 623.16 536.74 623.16 536.74 628.71 535.33 628.71 541.34 635.83 547.35 628.71 545.94 628.71"/>
      </g>
      <g>
        <path class="st11" d="M532.5,678.33c-5.12,0-9.29-4.17-9.29-9.29s4.17-9.29,9.29-9.29,9.29,4.17,9.29,9.29-4.17,9.29-9.29,9.29ZM532.5,660.69c-4.61,0-8.36,3.75-8.36,8.36s3.75,8.36,8.36,8.36,8.36-3.75,8.36-8.36-3.75-8.36-8.36-8.36Z"/>
        <path class="st11" d="M532.5,683.87c-8.17,0-14.83-6.65-14.83-14.82s6.65-14.83,14.83-14.83,14.83,6.65,14.83,14.83-6.65,14.82-14.83,14.82ZM532.5,655.71c-7.35,0-13.33,5.98-13.33,13.34s5.98,13.33,13.33,13.33,13.34-5.98,13.34-13.33-5.98-13.34-13.34-13.34Z"/>
        <path class="st15" d="M561.51,686.23s.05-3.93-3.74-3.93-3.21,3.7-3.21,3.7c0,0-.41-6.44-4.94-6.44-3.39,0-3.87,4.37-3.83,5.55-.24-1.76-.03-7.03-4.82-7.03s-4.39,6.9-4.39,6.9l-.2-.55-.07-10.36v-4.79c0-.13-.03-.24-.04-.36v-.45s-.05-.11-.15-.29c-.47-1.47-1.83-2.54-3.45-2.54-.05,0-.09.01-.14.02-.08,0-.15-.02-.22-.02-.95,0-1.63.43-2.13.99-.64.6-1.06,1.44-1.13,2.37-.02.09-.03.14-.03.14v17.73l.05,11.46s-.45,1.2-1.58,0c-1.13-1.2-.73-5.65-.73-5.65,0,0,0-6.33-4.41-5.21-4.41,1.13-1.19,17-1.02,17.54.88,2.81,10.75,11.43,13.58,12,2.83.57,20.71,1.13,22.18,0,1.47-1.13,4.19-5.54,4.41-7.35.23-1.81,0-23.43,0-23.43Z"/>
      </g>
      <path class="st12" d="M529.08,751.1c-2.31.44-4.01,2.23-4.45,4.4l-8.93,1.72c-1.18-1.79-3.33-2.8-5.56-2.46l-2.18-3.57,22.73-4.37,8.96-22.24-42.88,8.25-3.72-6.11-8.49,1.63c-1.17.22-1.93,1.35-1.71,2.52.23,1.17,1.36,1.93,2.52,1.71l5.56-1.07,15.54,25.49c-.89,1.22-1.3,2.78-.99,4.37.59,3.06,3.54,5.06,6.6,4.47,2.3-.44,4.01-2.24,4.45-4.4l8.93-1.72c1.22,1.85,3.46,2.88,5.77,2.43,3.06-.59,5.05-3.54,4.47-6.59-.59-3.06-3.54-5.05-6.59-4.47Z"/>
      <g>
        <path class="st15" d="M511.77,662.59l-4-13.44h0s-1.85-6.21-1.85-6.21c-.03-.09-.08-.18-.11-.27h.01c-.02-.06-.06-.11-.08-.17-.07-.15-.14-.3-.22-.45-.05-.08-.1-.15-.15-.23-.09-.13-.18-.27-.29-.39-.06-.07-.13-.13-.2-.2-.11-.11-.22-.22-.34-.31-.08-.06-.16-.11-.25-.17-.12-.08-.24-.17-.38-.23-.1-.05-.2-.08-.3-.13-.13-.05-.25-.11-.39-.15-.12-.04-.24-.05-.36-.08-.12-.03-.25-.06-.37-.07-.15-.02-.3,0-.45,0-.11,0-.21,0-.32,0-.26.02-.52.07-.78.15l-77.4,23.02c-.26.08-.5.18-.73.3-.1.05-.19.12-.28.18-.12.08-.25.15-.36.24-.1.08-.19.18-.28.27-.09.08-.18.16-.25.25-.09.11-.16.22-.24.34-.06.09-.13.18-.19.28-.07.12-.12.25-.18.38-.04.1-.09.2-.13.3-.05.13-.07.27-.11.41-.02.11-.05.22-.07.33-.02.14-.02.28-.03.42,0,.12,0,.23,0,.35,0,.14.03.28.05.42.01.08.01.16.03.24h.02c.02.09.03.18.05.28l4.56,15.33h0l1.29,4.32c.63,2.12,2.86,3.33,4.98,2.7l77.4-23.01c2.12-.63,3.33-2.86,2.7-4.99Z"/>
        <path class="st11" d="M504.19,654.12c1.42,4.78-1.3,9.8-6.08,11.23-4.78,1.42-9.8-1.3-11.22-6.08-1.42-4.78,1.3-9.8,6.08-11.22,4.78-1.42,9.81,1.3,11.23,6.08Z"/>
        <rect class="st15" x="492.02" y="653.18" width="7.04" height="7.03" transform="translate(-166.76 168.67) rotate(-16.58)"/>
        <path class="st11" d="M446.57,671.33c1.42,4.77-1.3,9.8-6.08,11.22-4.78,1.42-9.81-1.3-11.23-6.08-1.42-4.78,1.3-9.8,6.08-11.23,4.78-1.42,9.8,1.3,11.22,6.08Z"/>
        <g>
          <rect class="st15" x="434.51" y="670.54" width="2.06" height="8.12" transform="translate(-173.98 151.85) rotate(-16.53)"/>
          <rect class="st15" x="439.28" y="669.13" width="2.06" height="8.12" transform="translate(-173.69 153.52) rotate(-16.57)"/>
        </g>
        <path class="st11" d="M475.38,662.72c1.42,4.78-1.3,9.8-6.08,11.22-4.78,1.42-9.81-1.3-11.23-6.08-1.42-4.78,1.3-9.8,6.08-11.22,4.78-1.42,9.8,1.3,11.22,6.08Z"/>
        <polygon class="st15" points="462.72 661.86 471.35 663.92 465.25 670.37 462.72 661.86"/>
      </g>
      <g>
        <path class="st11" d="M578.1,750.73c4.97,7.38,3.02,17.4-4.36,22.37-7.38,4.97-17.39,3.03-22.37-4.36-4.98-7.38-3.03-17.39,4.35-22.37,7.38-4.97,17.4-3.03,22.37,4.35Z"/>
        <path class="st15" d="M555.82,746.51c7.3-4.92,17.22-2.99,22.15,4.31,4.92,7.3,2.99,17.22-4.31,22.15-7.3,4.92-17.22,2.99-22.14-4.31-4.92-7.3-2.99-17.22,4.31-22.14M554.66,744.78c-8.24,5.56-10.43,16.79-4.87,25.03,5.56,8.24,16.79,10.43,25.03,4.87,8.24-5.56,10.43-16.79,4.87-25.03-5.56-8.24-16.79-10.43-25.03-4.87h0Z"/>
        <g>
          <path class="st15" d="M572.36,770.7l-.34-.51-.34.23.34.51c-.18.23-.21.55-.04.8.17.25.48.35.76.27l.34.51.34-.23-.34-.51c.18-.23.21-.55.03-.8-.17-.25-.48-.35-.76-.27Z"/>
          <path class="st15" d="M556.67,747.4l-.38-.56-.34.23.37.56c-.18.22-.21.55-.04.8.17.25.48.35.76.27l.31.46.34-.23-.31-.46c.18-.23.2-.55.03-.8-.17-.25-.48-.35-.75-.27Z"/>
          <rect class="st15" x="577.13" y="764.59" width=".41" height="2.52" transform="translate(-364.13 948.86) rotate(-63.99)"/>
          <rect class="st15" x="577.47" y="758.5" width="2.52" height=".41" transform="translate(-50.97 41.74) rotate(-3.96)"/>
          <path class="st15" d="M577.29,750.94l-.54.37c-.22-.16-.53-.18-.78-.02-.24.17-.35.46-.28.73l-.49.33.23.34.48-.32c.23.2.56.23.83.05.26-.18.36-.5.26-.78l.53-.36-.23-.34Z"/>
          <rect class="st15" x="569.61" y="746.83" width="2.52" height=".41" transform="translate(-350.82 932.61) rotate(-64)"/>
          <rect class="st15" x="563.52" y="744.38" width=".41" height="2.52" transform="translate(-52.3 42.59) rotate(-4.13)"/>
          <rect class="st15" x="551.85" y="752.24" width=".41" height="2.52" transform="translate(-367.16 919.53) rotate(-64.01)"/>
          <rect class="st15" x="549.4" y="760.44" width="2.52" height=".41" transform="translate(-52.3 40.75) rotate(-4.05)"/>
          <path class="st15" d="M554.18,767l-.23-.34-.5.33c-.22-.16-.53-.18-.78-.01-.24.16-.34.46-.28.73l-.54.36.23.34.53-.35c.23.2.56.23.83.05.26-.17.36-.5.26-.79l.48-.32Z"/>
          <rect class="st15" x="557.26" y="772.11" width="2.52" height=".41" transform="translate(-380.51 935.56) rotate(-63.99)"/>
          <polygon class="st15" points="565.55 774.98 565.96 774.95 565.78 772.44 565.37 772.47 565.55 774.98"/>
        </g>
        <g>
          <path class="st7" d="M573.3,761.86c.07-.05.13-.11.18-.19l-.24-.05c-.1.11-.24.17-.4.14-.15-.03-.26-.14-.31-.28l-8.42-1.64c.04.25.24.46.5.51l8.22,1.6c.17.03.34,0,.47-.1Z"/>
          <path class="st7" d="M573.07,760.72l-7.97-1.55-8.28-12.28c-.04-.06-.1-.11-.16-.16-.02-.01-.04-.02-.06-.03-.05-.03-.1-.05-.15-.06-.02,0-.04-.01-.06-.02-.05,0-.1-.01-.16,0h0c-.1.02-.21.04-.3.1-.07.04-.12.1-.16.16h0c-.15.21-.16.49-.01.71l8.42,12.49h0s0,0,0,0c.03.05.08.09.13.12.02.01.03.03.04.04.08.05.17.09.26.1l8.19,1.59c.17.03.34,0,.47-.1.13-.09.23-.23.27-.4.02-.09.02-.17,0-.25h0c-.05-.24-.24-.44-.5-.49ZM555.95,747.12s.03-.06.05-.09c.03-.04.06-.07.1-.1.1-.07.21-.09.32-.07.04,0,.08.03.11.04.01,0,.03,0,.04.02.05.03.09.07.12.12.03.05.05.1.07.16,0,.03,0,.07,0,.1,0,.02,0,.04,0,.06-.02.11-.08.21-.18.27-.04.03-.08.04-.12.05-.03,0-.07.01-.1.01-.14,0-.29-.05-.37-.18-.09-.13-.09-.28-.03-.41ZM572.84,761.76c-.23-.05-.38-.27-.34-.51,0-.05.03-.09.05-.13.02-.04.05-.07.08-.1h0c.1-.09.23-.13.37-.11.14.03.25.12.3.24.02.04.03.08.04.12,0,.05.01.09,0,.14-.04.24-.27.39-.5.34Z"/>
          <path class="st7" d="M565.27,759.32c.21.31.12.73-.18.94-.31.21-.73.13-.94-.18-.21-.31-.12-.73.18-.94.31-.21.73-.13.94.18Z"/>
          <path class="st16" d="M565.22,759.26c.21.31.13.73-.18.94-.31.21-.73.13-.94-.18-.21-.31-.13-.73.18-.94.31-.21.73-.13.94.18Z"/>
        </g>
      </g>
      <g>
        <path class="st15" d="M638.88,720.29c0,3.47-2.83,6.27-6.3,6.26l-55.01-.15c-3.47,0-6.27-2.83-6.26-6.3l.3-109.53c.01-3.47,2.83-6.28,6.3-6.26l55.01.15c3.47,0,6.27,2.83,6.26,6.3l-.3,109.53Z"/>
        <rect class="st11" x="552.87" y="633.15" width="104.75" height="56.73" transform="translate(-57.89 1264.99) rotate(-89.85)"/>
        <path class="st7" d="M608.84,720.04c0,2.07-1.69,3.75-3.76,3.74-2.08,0-3.75-1.69-3.75-3.76,0-2.08,1.69-3.75,3.76-3.75,2.07,0,3.75,1.69,3.74,3.76Z"/>
        <rect class="st7" x="560.4" y="637.28" width="54.79" height="9.71" transform="translate(-56.05 1228.05) rotate(-89.83)"/>
        <rect class="st12" x="588.47" y="653.88" width="21.64" height="9.71" transform="translate(-61.07 1256.24) rotate(-89.84)"/>
        <rect class="st7" x="595.83" y="649.72" width="30.03" height="9.71" transform="translate(-45.38 1263.65) rotate(-89.84)"/>
        <rect class="st12" x="604.45" y="645.49" width="38.56" height="9.71" transform="translate(-28.18 1272.43) rotate(-89.86)"/>
        <g>
          <rect class="st15" x="602.53" y="684.31" width="4.89" height="44.41" transform="translate(-103.19 1309.55) rotate(-89.84)"/>
          <rect class="st15" x="602.55" y="674.54" width="4.89" height="44.41" transform="translate(-93.36 1299.87) rotate(-89.85)"/>
          <rect class="st15" x="602.58" y="664.76" width="4.89" height="44.41" transform="translate(-83.6 1290.1) rotate(-89.84)"/>
          <rect class="st15" x="602.61" y="654.99" width="4.89" height="44.41" transform="translate(-73.79 1280.4) rotate(-89.84)"/>
        </g>
      </g>
      <g>
        <path class="st11" d="M702.35,612.61l-37.93-15.06c-2.74-1.09-5.85.25-6.94,2.99l-10.4,26.19c-1.09,2.74.25,5.85,2.99,6.94l24.68,9.8.31,15.17,10.63-10.83,2.31.92c2.74,1.09,5.85-.25,6.94-3l10.4-26.19c1.09-2.74-.25-5.85-2.99-6.94Z"/>
        <g>
          <path class="st12" d="M663.25,624.55c-.73,1.84-2.82,2.75-4.67,2.01-1.84-.73-2.75-2.82-2.01-4.66.73-1.85,2.82-2.75,4.66-2.02,1.85.73,2.75,2.82,2.01,4.67Z"/>
          <path class="st12" d="M677.3,630.14c-.73,1.84-2.82,2.75-4.67,2.01-1.85-.73-2.75-2.82-2.01-4.67.73-1.84,2.82-2.75,4.67-2.01,1.84.73,2.74,2.82,2.01,4.67Z"/>
          <path class="st12" d="M691.36,635.72c-.73,1.84-2.82,2.75-4.67,2.01-1.85-.73-2.74-2.82-2.01-4.67.73-1.84,2.82-2.75,4.67-2.01,1.84.73,2.75,2.82,2.01,4.67Z"/>
        </g>
      </g>
      <g>
        <path class="st11" d="M661.57,570.5c.99,3.98-1.44,8.02-5.42,9.01l-91.02,22.64c-3.99.99-8.02-1.44-9.01-5.42h0c-.99-3.99,1.44-8.02,5.42-9.02l91.02-22.64c3.99-.99,8.03,1.44,9.02,5.43h0Z"/>
        <path class="st15" d="M657.49,575.88l-3.32-2s-.06-.02-.09-.03c.01-.05,0-.11-.05-.14-.06-.03-.13-.02-.17.04h0l-1.15-.69h0c.03-.06.02-.14-.04-.17-.06-.03-.14-.02-.17.04h-.01c.6-1.46.07-3.18-1.32-4.02-1.54-.92-3.53-.43-4.46,1.11-.92,1.54-.43,3.53,1.11,4.46,1.39.84,3.15.5,4.16-.71h.01c-.04.07-.02.14.04.18.06.04.13.02.17-.04h0s1.15.69,1.15.69h0c-.04.06-.02.13.04.17.05.03.1.01.14-.02.03.02.04.05.07.07l3.32,2c.26.15.59.07.75-.19.16-.26.07-.59-.18-.75ZM648.08,574.05c-1.29-.78-1.71-2.46-.93-3.76.78-1.29,2.47-1.72,3.76-.94,1.29.78,1.71,2.47.93,3.76-.78,1.3-2.47,1.72-3.76.93Z"/>
      </g>
      <g>
        <path class="st15" d="M462.02,712.27c2.21,8.72-3.06,17.58-11.77,19.79-8.72,2.21-17.58-3.05-19.79-11.77-2.21-8.72,3.06-17.58,11.77-19.79,8.72-2.22,17.58,3.05,19.79,11.77Z"/>
        <path class="st11" d="M457.56,718.92h.02s-3.8-14.96-3.8-14.96v-.05s-.01,0-.01,0h0s-.01,0-.01,0l-14.06,5.64h0s3,11.82,3,11.82c-.62-.04-1.29.05-1.95.29-2.08.75-3.3,2.68-2.71,4.31.59,1.63,2.75,2.34,4.83,1.59,2.09-.75,3.3-2.68,2.72-4.31-.01-.03-.02-.05-.04-.08h.02s-2.6-10.25-2.6-10.25l9.66-4.01,2.09,8.21c-.62-.04-1.29.05-1.95.29-2.08.75-3.3,2.68-2.71,4.31.59,1.63,2.75,2.34,4.84,1.59,2.08-.75,3.3-2.68,2.71-4.31-.01-.03-.02-.05-.04-.08Z"/>
      </g>
      <g>
        <path class="st11" d="M644.58,750.39c-1.18,5.98-6.99,9.88-12.97,8.7-5.98-1.18-9.87-6.99-8.69-12.97,1.18-5.98,6.98-9.87,12.97-8.7,5.98,1.18,9.87,6.99,8.69,12.97Z"/>
        <path class="st7" d="M638.8,749.73c.66-.44.71-1.59-.25-1.78l-2.52-.49c.2-.51.51-1.37.52-1.45.1-.8-.21-1.86-.23-1.9-.06-.19-.48-.51-.96-.5-.63,0-.77.38-.78.49,0,0-.18,1.06-.23,1.34-.41.57-1.74,2.05-2.06,2.11-.07-.06-.14-.1-.23-.11l-3.18-.63c-.27-.05-.53.12-.58.39l-.86,4.39c-.03.24.14.46.37.51l2.86.56c.25.05.5-.12.55-.37l.03-.14s.11.01.15.05c.16.16.36.35.65.4l4.26.84c1.59.31,1.7-1.13,1.59-1.36.33-.24.59-.72.45-1.18.21-.15.62-.6.45-1.18h0ZM630.66,752.18l-2.76-.54.86-4.38,2.76.54-.86,4.38ZM638.06,749.54l-.04.1c.69.35.13,1.12-.4,1.07l-.05.1c.67.32.16,1.12-.4,1.07l-.05.1c.55.21.22,1.16-.65.99l-4.34-.85c-.31-.06-.51-.47-.74-.51l-.2-.04.66-3.37c.27-.11.61-.24.81-.35.37-.21,2.08-2.05,2.13-2.31.05-.26.25-1.4.25-1.4,0,0,.32-.28.84.07,0,0,.3.99.21,1.71,0,0-.5,1.42-.71,1.86l3,.59c.74.15.39,1.17-.33,1.15h0ZM638.06,749.54"/>
      </g>
      <g>
        <polygon class="st15" points="512.12 576.69 509.93 573.85 521.6 564.86 522 569.08 512.12 576.69"/>
        <path class="st11" d="M517.45,574.29l-.36-.47,1.36-1.05c.49-.38.59-1.09.21-1.58l-1.74-2.26c-.38-.49-1.09-.58-1.58-.2l-1.36,1.05-.36-.47c-.38-.49-1.09-.59-1.58-.21l-34.74,26.75c-.5.38-.59,1.09-.21,1.58l3.85,5c.38.49,1.09.58,1.58.2l34.74-26.75c.49-.38.59-1.09.21-1.58Z"/>
        <rect class="st12" x="458.68" y="592.97" width="45.23" height="10.38" transform="translate(-264.99 417.86) rotate(-37.6)"/>
        <path class="st15" d="M470.12,617.78l-.53-.69c-.38-.49-1.09-.59-1.58-.21l-30.03,23.12-.47-.61,31.18-24.01c.5-.38.58-1.09.21-1.58l-5.89-7.65c-.38-.5-1.09-.59-1.58-.21l-35.37,27.24c-.49.38-.59,1.09-.21,1.58l5.89,7.65c.38.49,1.09.59,1.58.2l1.95-1.5,1.16,1.5.53.69c.38.49,1.09.59,1.58.21l.45-.35,30.92-23.81c.5-.38.58-1.09.2-1.58Z"/>
      </g>
      <g>
        <rect class="st11" x="647.22" y="681.12" width="65.41" height="42.64" transform="translate(-113.27 130.98) rotate(-10.16)"/>
        <rect class="st12" x="643.29" y="679.54" width="65.41" height="1.93" transform="translate(-109.46 129.94) rotate(-10.16)"/>
        <rect class="st15" x="642.51" y="672.75" width="65.41" height="6.85" transform="translate(-108.71 129.74) rotate(-10.16)"/>
        <g>
          <path d="M650.38,694.09l-.38.07-.76-4.26-1.15.35-.05-.26,1.51-.56.84,4.67Z"/>
          <path d="M660.39,692.27l-2.88.51-.05-.3,1.21-1.99c.22-.37.37-.66.45-.9.08-.24.1-.45.06-.65-.05-.29-.18-.5-.37-.65-.19-.15-.44-.19-.74-.14-.35.06-.6.21-.75.44-.15.23-.19.5-.13.83l-.35.06v-.02c-.09-.38-.02-.73.19-1.05.21-.31.54-.51.99-.59.4-.07.74-.02,1.02.17.28.19.46.47.53.86.04.26.01.53-.1.82-.11.29-.28.62-.51,1l-1.02,1.67v.02s2.4-.43,2.4-.43l.06.32Z"/>
          <path d="M667.29,688.43l.44-.08c.34-.06.58-.19.72-.39.14-.2.19-.43.14-.7-.05-.29-.18-.5-.37-.65-.2-.14-.45-.19-.78-.13-.3.05-.52.19-.68.4-.16.21-.21.46-.16.74l-.36.06v-.02c-.09-.36-.01-.68.21-.97.22-.29.53-.47.93-.54.42-.07.77-.02,1.05.16.29.18.46.48.54.88.04.22,0,.43-.09.65-.1.22-.27.39-.5.53.3.03.54.13.72.3.18.17.29.39.34.66.07.41,0,.76-.23,1.04-.22.28-.54.46-.96.54-.41.07-.78.02-1.11-.16-.33-.18-.53-.47-.59-.88v-.02s.36-.07.36-.07c.05.3.2.52.44.67.24.15.52.19.84.14.33-.06.57-.19.73-.39.15-.2.2-.47.14-.78-.06-.32-.2-.55-.42-.67-.22-.12-.51-.15-.87-.08l-.44.08-.06-.33Z"/>
          <path d="M678.2,687.54l.73-.13.06.32-.73.13.21,1.17-.38.07-.21-1.17-2.17.39-.04-.22,1.55-3.63.42-.07.56,3.14ZM676.1,687.91l1.72-.31-.47-2.64h-.02s-.1.37-.1.37l-1.13,2.58Z"/>
          <path d="M685.18,685.66l-.2-2.58,2.25-.4.06.35-1.93.35.12,1.68c.1-.13.21-.23.34-.31.13-.08.31-.15.55-.2.39-.08.74,0,1.03.23.29.23.48.57.56,1.03.08.47.03.87-.15,1.19-.19.32-.51.52-.98.61-.38.07-.72.02-1.01-.15-.29-.17-.47-.46-.54-.88v-.02s.34-.06.34-.06c.05.31.19.53.39.67.21.13.46.17.75.12.35-.06.58-.21.72-.45.13-.24.16-.55.09-.95-.06-.35-.2-.61-.41-.79-.21-.18-.47-.24-.77-.18-.3.05-.52.14-.65.26-.14.12-.23.29-.26.49h-.32Z"/>
          <path d="M695.5,681.12c.16-.03.32-.04.48-.03.16,0,.31.04.44.08l-.04.33c-.13-.04-.26-.07-.39-.08-.12-.01-.27,0-.43.03-.34.06-.61.25-.78.55-.18.31-.23.68-.15,1.11l.08.41c.1-.19.24-.35.41-.49.18-.14.39-.22.63-.27.42-.07.77,0,1.06.25.29.24.48.59.56,1.05.08.46.02.86-.19,1.2-.21.35-.52.55-.93.63-.43.08-.81-.02-1.14-.29-.33-.27-.55-.68-.65-1.23l-.21-1.17c-.1-.54-.02-1,.22-1.39.24-.39.59-.63,1.03-.71ZM695.72,683.1c-.26.05-.47.15-.64.32-.17.17-.27.36-.3.59l.06.34c.08.44.24.77.49.99.25.22.53.3.85.25.31-.06.54-.22.68-.5.14-.27.18-.59.12-.94-.07-.37-.21-.65-.43-.85-.22-.2-.5-.26-.83-.2Z"/>
          <path d="M706.27,679.6c-.4.68-.67,1.36-.83,2.02-.15.66-.21,1.39-.15,2.21l.03.39-.38.07-.04-.39c-.05-.8,0-1.54.17-2.23.17-.68.43-1.35.79-1.99l-2.65.47-.06-.33,3.04-.54.06.32Z"/>
          <path d="M652.17,698.27c.05.25.01.48-.1.7-.11.21-.28.38-.51.51.3.04.55.14.76.31.21.17.33.39.39.67.08.41,0,.76-.25,1.03-.24.27-.58.45-1.01.53-.44.08-.83.03-1.14-.14-.31-.17-.51-.47-.58-.89-.05-.27,0-.53.12-.76.13-.23.33-.42.6-.56-.26-.04-.48-.14-.65-.3-.18-.16-.29-.37-.33-.62-.07-.4,0-.73.21-1,.21-.26.52-.43.92-.51.4-.07.75-.02,1.04.16.3.18.48.46.55.86ZM652.31,700.53c-.05-.29-.2-.51-.45-.66-.25-.14-.53-.19-.85-.13-.32.06-.57.2-.75.42-.18.22-.24.48-.18.77.05.3.2.52.44.66.24.13.52.17.85.11.32-.06.57-.19.75-.4.18-.21.24-.47.18-.77ZM651.79,698.33c-.05-.27-.18-.47-.4-.62-.22-.14-.47-.19-.75-.14-.29.05-.51.18-.66.38-.15.2-.2.44-.15.73.05.27.18.48.39.61.21.13.46.17.75.12.28-.05.5-.17.66-.37.15-.2.21-.43.16-.71Z"/>
          <path d="M660.24,700.11c.35-.06.61-.23.78-.5.17-.27.21-.63.13-1.07l-.08-.46c-.08.22-.2.39-.37.53-.17.14-.37.23-.61.27-.42.08-.79-.01-1.1-.26-.31-.25-.51-.6-.59-1.07-.08-.47-.02-.88.2-1.25.21-.37.52-.58.92-.65.45-.08.83,0,1.15.24.32.24.53.64.63,1.2l.25,1.37c.1.54.03.98-.2,1.33-.23.35-.58.56-1.04.64-.16.03-.33.04-.51.04-.17,0-.34-.02-.5-.06v-.33c.17.04.32.07.47.07.15,0,.31,0,.48-.04ZM660.03,698.55c.28-.05.49-.16.65-.34.16-.17.26-.37.3-.59l-.09-.49c-.08-.44-.23-.76-.47-.96-.23-.2-.52-.27-.84-.21-.3.05-.52.23-.67.52-.15.29-.19.62-.12.99.06.36.21.64.43.84.22.21.49.28.8.23Z"/>
          <g>
            <path d="M667.72,699.05l-.38.07-.76-4.26-1.15.35-.05-.27,1.51-.56.84,4.67Z"/>
            <path d="M672.22,696.37c.11.6.06,1.08-.14,1.45-.2.37-.53.6-.99.68-.46.08-.85-.01-1.17-.29-.32-.28-.54-.71-.64-1.31l-.19-1.03c-.11-.6-.06-1.08.14-1.45.2-.37.53-.6.99-.68.46-.08.85.01,1.17.29.32.28.53.72.64,1.31l.19,1.04ZM671.64,695.34c-.09-.48-.24-.82-.48-1.05-.24-.22-.53-.3-.88-.24-.35.06-.6.24-.74.53-.14.29-.17.67-.08,1.15l.21,1.15c.09.47.25.82.48,1.05.24.23.53.31.88.25.35-.06.6-.24.74-.53.14-.29.17-.68.08-1.15l-.21-1.16Z"/>
          </g>
          <g>
            <path d="M677.28,697.34l-.38.07-.76-4.26-1.15.35-.05-.27,1.51-.56.84,4.67Z"/>
            <path d="M680.9,696.69l-.38.07-.76-4.26-1.15.35-.05-.27,1.51-.56.84,4.67Z"/>
          </g>
          <g>
            <path d="M685.67,695.84l-.38.07-.76-4.26-1.15.35-.05-.27,1.51-.56.84,4.67Z"/>
            <path d="M690.43,694.96l-2.88.51-.05-.3,1.21-1.99c.22-.37.37-.67.45-.9.08-.23.1-.45.06-.64-.05-.29-.17-.5-.37-.65-.19-.14-.44-.19-.73-.14-.35.06-.6.21-.75.44-.15.23-.19.5-.13.83l-.35.06v-.02c-.09-.38-.02-.73.19-1.05.21-.31.54-.51.99-.59.4-.07.74-.01,1.02.17.28.19.46.47.53.86.04.25.01.53-.1.82-.11.29-.29.62-.51,1l-1.02,1.67v.02s2.4-.43,2.4-.43l.06.33Z"/>
          </g>
          <g>
            <path d="M694.67,694.22l-.38.07-.76-4.26-1.15.35-.05-.27,1.51-.56.83,4.67Z"/>
            <path d="M696.95,691.19l.44-.08c.34-.06.58-.19.72-.39.14-.2.19-.43.14-.7-.05-.29-.18-.5-.37-.65-.19-.14-.45-.19-.78-.13-.3.05-.53.18-.68.39-.16.21-.21.46-.16.74l-.36.06v-.02c-.08-.36-.01-.68.21-.97.22-.29.53-.47.94-.54.41-.07.76-.02,1.05.16.29.18.47.47.54.88.04.22,0,.44-.09.65-.1.22-.27.39-.5.53.3.03.54.13.72.3.18.17.29.39.34.66.07.41,0,.76-.23,1.04-.22.28-.54.46-.96.54-.41.07-.77.02-1.11-.16-.33-.18-.53-.47-.59-.88v-.02s.36-.06.36-.06c.05.29.2.51.44.66.24.15.52.2.84.14.33-.06.57-.19.72-.39.15-.2.2-.46.15-.78-.06-.33-.2-.55-.42-.67-.22-.12-.51-.15-.87-.08l-.44.08-.06-.32Z"/>
          </g>
          <g>
            <path d="M703.49,692.64l-.38.07-.76-4.26-1.15.35-.05-.27,1.51-.56.84,4.67Z"/>
            <path d="M707.45,690.37l.72-.13.06.33-.73.13.21,1.17-.38.07-.21-1.17-2.17.39-.04-.22,1.55-3.63.42-.08.56,3.14ZM705.35,690.75l1.72-.31-.47-2.64h-.02s-.1.37-.1.37l-1.13,2.58Z"/>
          </g>
          <path d="M653.18,709.74l-.38.07-.76-4.26-1.15.35-.05-.27,1.51-.56.84,4.67Z"/>
          <path d="M654.86,707.25l-.2-2.58,2.25-.41.06.36-1.93.34.12,1.69c.1-.13.21-.23.34-.32.13-.08.31-.15.55-.2.39-.08.74,0,1.03.23.29.23.48.57.56,1.03.08.47.03.87-.15,1.19-.18.32-.51.52-.98.61-.38.07-.72.02-1.01-.15-.29-.17-.47-.46-.54-.88v-.02s.34-.06.34-.06c.06.31.19.53.39.67.21.13.46.17.75.12.34-.06.58-.21.72-.45.13-.24.16-.55.09-.95-.06-.35-.2-.61-.4-.79-.21-.18-.47-.24-.78-.19-.3.05-.51.14-.65.26-.14.12-.23.29-.26.49h-.32Z"/>
          <path d="M661.99,708.16l-.38.07-.76-4.26-1.15.35-.05-.27,1.51-.56.84,4.67Z"/>
          <path d="M664.66,702.8c.16-.03.32-.04.48-.03.16,0,.31.04.44.08l-.04.33c-.13-.05-.26-.07-.39-.09-.13-.01-.27,0-.44.03-.34.06-.6.25-.78.55-.18.31-.23.68-.15,1.12l.07.41c.1-.19.24-.35.42-.48.18-.14.39-.23.63-.27.42-.08.77,0,1.06.25.29.24.48.59.56,1.05.08.46.02.86-.19,1.2-.21.34-.52.55-.93.63-.43.08-.81-.02-1.14-.29-.33-.27-.55-.68-.65-1.23l-.21-1.17c-.1-.54-.02-1,.22-1.39.24-.39.58-.63,1.03-.71ZM664.88,704.78c-.26.05-.47.15-.64.32-.17.17-.27.36-.3.58l.06.34c.08.44.25.77.49,1,.25.22.54.3.85.24.31-.06.54-.22.68-.5.14-.28.18-.59.12-.94-.07-.37-.21-.65-.43-.85-.22-.19-.5-.26-.83-.2Z"/>
          <path d="M670.8,706.58l-.38.07-.76-4.26-1.15.35-.05-.27,1.51-.56.84,4.67Z"/>
          <path d="M674.77,701.39c-.39.68-.67,1.36-.82,2.02-.16.66-.21,1.4-.15,2.21l.04.4-.38.07-.03-.4c-.05-.8,0-1.54.17-2.23.17-.69.43-1.35.79-1.99l-2.65.47-.06-.32,3.04-.55.06.33Z"/>
          <path d="M679.61,705l-.38.07-.76-4.26-1.15.35-.05-.27,1.51-.56.84,4.67Z"/>
          <path d="M683.62,700.7c.04.25,0,.48-.1.7-.11.21-.28.38-.51.51.3.04.55.14.76.31.21.17.34.39.38.67.08.41,0,.76-.25,1.03-.24.27-.58.45-1.01.53-.44.08-.82.04-1.14-.14-.31-.17-.51-.47-.58-.89-.05-.27,0-.53.12-.76.13-.23.33-.42.6-.55-.26-.04-.48-.14-.65-.3-.18-.16-.29-.37-.33-.62-.07-.4,0-.73.21-1,.21-.27.52-.44.92-.51.4-.07.75-.02,1.04.16.29.18.48.46.55.86ZM683.76,702.96c-.05-.29-.2-.51-.45-.65-.24-.15-.53-.19-.84-.13-.32.06-.57.2-.75.42-.17.22-.24.48-.18.77.06.3.2.52.44.66.24.14.52.17.85.11.32-.06.57-.19.75-.4.18-.21.24-.47.18-.77ZM683.24,700.77c-.05-.27-.18-.47-.4-.62-.22-.14-.47-.19-.75-.14-.29.05-.5.18-.66.38-.15.2-.2.44-.15.73.05.27.18.48.39.61.21.13.46.17.75.12.28-.05.5-.17.66-.37.16-.2.21-.43.16-.71Z"/>
          <path d="M688.43,703.42l-.38.07-.76-4.26-1.16.35-.05-.27,1.51-.56.84,4.67Z"/>
          <path d="M691.46,702.58c.35-.06.61-.23.78-.5.17-.27.21-.63.13-1.07l-.08-.46c-.08.21-.2.39-.37.53-.17.14-.37.23-.61.27-.42.08-.79,0-1.1-.26-.31-.25-.51-.6-.59-1.07-.08-.47-.02-.89.19-1.25.21-.36.52-.58.92-.65.45-.08.83,0,1.15.25.32.24.53.64.63,1.2l.25,1.37c.09.54.03.98-.2,1.33-.23.35-.58.56-1.04.65-.17.03-.33.04-.51.04-.17,0-.34-.02-.5-.06v-.33c.17.04.32.06.47.07.15,0,.31,0,.48-.04ZM691.25,701.03c.28-.05.49-.16.65-.34.16-.17.26-.37.3-.59l-.09-.49c-.08-.44-.24-.76-.47-.95-.23-.2-.51-.27-.85-.21-.3.05-.52.23-.67.52-.15.29-.19.62-.12.99.06.36.21.64.43.84.23.21.49.28.8.23Z"/>
          <path d="M698.39,701.61l-2.88.52-.05-.3,1.21-1.99c.22-.37.37-.67.45-.9.08-.24.1-.45.06-.65-.05-.29-.17-.5-.37-.65-.19-.15-.44-.19-.74-.14-.35.06-.6.21-.75.44-.15.23-.19.5-.13.83l-.35.07v-.02c-.09-.39-.02-.73.19-1.05.21-.31.54-.51.99-.59.4-.07.74-.01,1.02.17.28.19.45.47.52.86.05.25.01.53-.1.82-.11.29-.28.62-.51,1l-1.02,1.67h0s2.39-.41,2.39-.41l.06.33Z"/>
          <path d="M701.74,699.15c.11.6.06,1.08-.14,1.45-.2.37-.53.59-.99.68-.46.08-.85-.01-1.17-.29-.32-.28-.53-.71-.64-1.31l-.18-1.03c-.11-.6-.06-1.08.14-1.45.2-.37.53-.6.99-.68.46-.08.85.01,1.17.29.32.28.53.71.64,1.31l.18,1.03ZM701.16,698.12c-.09-.47-.25-.82-.48-1.05-.23-.22-.53-.3-.88-.24-.36.06-.6.24-.74.53-.14.29-.17.67-.08,1.15l.21,1.15c.08.47.24.82.48,1.05.23.23.53.31.88.24.35-.06.6-.24.74-.53.14-.29.17-.67.08-1.15l-.21-1.15Z"/>
          <path d="M707.39,700l-2.88.52-.05-.29,1.21-1.99c.22-.37.37-.67.45-.9.08-.23.1-.45.06-.64-.05-.29-.17-.51-.37-.65-.19-.15-.44-.19-.74-.14-.35.06-.6.21-.75.44-.15.23-.19.51-.13.83l-.35.06v-.02c-.09-.38-.02-.73.19-1.05.21-.31.54-.51.99-.59.4-.07.74-.01,1.02.17.28.19.46.47.53.86.04.25.01.53-.1.82-.11.29-.28.62-.51,1l-1.02,1.67v.02s2.4-.43,2.4-.43l.06.32Z"/>
          <path d="M709.85,699.58l-.38.07-.76-4.26-1.15.35-.05-.27,1.51-.56.84,4.67Z"/>
          <path d="M655.73,717.33l-2.88.52-.05-.29,1.21-1.99c.22-.37.37-.67.45-.9.08-.23.1-.45.06-.64-.05-.29-.17-.5-.37-.65-.19-.15-.44-.19-.74-.14-.35.06-.6.21-.75.44-.15.23-.19.5-.13.83l-.35.06v-.02c-.09-.38-.02-.73.19-1.05.21-.31.54-.51.99-.59.4-.07.74-.01,1.02.17.28.18.46.47.52.86.04.25.01.53-.1.82-.11.29-.28.62-.51,1l-1.02,1.67v.02s2.4-.43,2.4-.43l.06.32Z"/>
          <path d="M659.35,716.68l-2.88.51-.05-.3,1.21-1.99c.22-.37.37-.67.45-.9.08-.23.1-.45.07-.64-.05-.29-.17-.5-.37-.65-.2-.14-.44-.19-.74-.14-.35.06-.6.21-.75.44-.15.23-.19.5-.13.83l-.35.06v-.02c-.09-.38-.02-.73.19-1.05.21-.31.54-.51.99-.59.4-.07.74-.01,1.02.17.28.19.46.47.52.86.05.25.01.53-.1.82-.12.29-.28.62-.51,1l-1.02,1.67h.01s2.39-.41,2.39-.41l.06.33Z"/>
          <path d="M664.55,715.75l-2.88.52-.05-.3,1.21-1.99c.22-.37.37-.67.45-.9.08-.23.1-.45.06-.64-.05-.29-.17-.5-.37-.65-.19-.14-.44-.19-.74-.14-.35.06-.6.21-.75.44-.15.23-.19.5-.13.83l-.35.06v-.02c-.09-.38-.03-.73.19-1.05.21-.31.54-.51.99-.59.4-.07.74-.01,1.02.17.28.18.46.47.53.86.04.26.01.53-.1.82-.12.29-.29.62-.51,1l-1.02,1.67h0s2.39-.41,2.39-.41l.06.32Z"/>
          <path d="M665.67,712.94l.44-.08c.34-.06.58-.19.72-.39.14-.2.19-.43.15-.7-.05-.29-.17-.51-.37-.65-.19-.14-.45-.18-.78-.13-.3.05-.52.18-.68.39-.16.21-.21.46-.16.74l-.36.07v-.02c-.08-.36-.01-.68.21-.97.22-.29.53-.47.94-.54.41-.07.76-.02,1.05.16.29.18.46.48.54.88.04.22,0,.44-.09.65-.1.22-.27.39-.5.53.3.03.54.13.72.3.18.17.29.39.34.66.08.41,0,.76-.22,1.04-.22.28-.54.46-.96.54-.41.07-.78.02-1.1-.16-.33-.18-.53-.47-.59-.88v-.02s.36-.06.36-.06c.05.29.2.51.44.67.24.15.52.2.84.14.33-.06.57-.19.72-.39.16-.2.2-.46.15-.78-.06-.32-.2-.55-.42-.67-.22-.12-.51-.15-.87-.08l-.44.08-.06-.32Z"/>
          <path d="M673.36,714.17l-2.88.52-.05-.3,1.21-1.99c.22-.37.37-.67.45-.9.08-.23.1-.45.06-.64-.05-.29-.17-.5-.37-.65-.19-.14-.44-.19-.74-.14-.35.06-.6.21-.75.44-.15.23-.19.51-.13.83l-.35.06v-.02c-.09-.38-.02-.73.19-1.05.21-.31.54-.51.99-.59.4-.07.74-.01,1.02.17.28.19.46.47.53.86.05.25.01.53-.1.82-.11.29-.28.62-.51,1l-1.02,1.67h0s2.39-.42,2.39-.42l.06.33Z"/>
          <path d="M676.16,712.13l.72-.13.06.32-.72.13.21,1.17-.38.07-.21-1.17-2.18.39-.04-.22,1.55-3.63.42-.08.56,3.14ZM674.06,712.5l1.72-.31-.47-2.64h-.02s-.1.37-.1.37l-1.13,2.58Z"/>
          <path d="M682.17,712.59l-2.88.51-.05-.3,1.21-1.99c.22-.37.37-.67.45-.9.08-.23.1-.45.06-.64-.05-.29-.17-.5-.37-.65-.19-.14-.44-.19-.74-.14-.35.06-.6.21-.75.44-.15.23-.19.51-.13.83l-.35.06v-.02c-.09-.38-.02-.73.19-1.05.21-.31.54-.51.99-.59.4-.07.74-.01,1.02.17.28.19.46.47.53.86.04.26.01.53-.1.82-.11.29-.28.62-.51.99l-1.02,1.67h0s2.39-.42,2.39-.42l.06.33Z"/>
          <path d="M682.69,710.33l-.2-2.58,2.25-.4.06.35-1.93.34.12,1.68c.1-.13.21-.23.34-.31.13-.08.31-.15.55-.2.39-.08.74,0,1.03.23.29.23.48.57.56,1.03.08.47.03.87-.15,1.19-.19.32-.51.53-.98.61-.38.07-.72.02-1.01-.15-.29-.17-.47-.46-.54-.88v-.02s.34-.06.34-.06c.06.31.19.53.39.67.21.13.46.17.75.12.34-.06.58-.21.72-.45.13-.24.16-.56.09-.95-.06-.35-.2-.61-.41-.79-.21-.18-.47-.24-.77-.18-.3.05-.51.14-.65.26-.14.12-.23.29-.26.49h-.32Z"/>
          <path d="M690.98,711.01l-2.88.52-.05-.3,1.21-1.99c.22-.37.37-.67.45-.9.08-.24.1-.45.06-.65-.05-.29-.17-.5-.37-.65-.19-.14-.44-.19-.74-.14-.35.06-.6.21-.75.44-.15.23-.19.5-.13.83l-.35.06v-.02c-.09-.38-.02-.73.19-1.05.21-.32.54-.51.99-.59.4-.07.74-.02,1.02.17.28.19.46.47.53.86.05.25.01.53-.1.82-.11.29-.28.62-.51,1l-1.02,1.67h0s2.39-.41,2.39-.41l.06.33Z"/>
          <path d="M692.5,705.89c.16-.03.32-.04.48-.03.16,0,.31.04.44.08l-.04.33c-.13-.05-.26-.07-.39-.08-.12-.01-.27,0-.43.03-.34.06-.61.25-.78.55-.18.31-.23.68-.15,1.12l.07.41c.1-.19.24-.35.42-.49.18-.14.39-.22.63-.26.42-.08.77,0,1.07.25.29.24.48.6.56,1.06.08.46.02.85-.19,1.2-.21.34-.52.55-.93.63-.43.08-.81-.02-1.14-.29-.33-.27-.55-.68-.65-1.23l-.21-1.17c-.1-.53-.02-1,.22-1.39.24-.39.59-.63,1.03-.71ZM692.72,707.87c-.26.05-.47.15-.64.32-.17.17-.27.36-.3.59l.06.34c.08.44.24.77.49.99.25.22.53.3.85.25.31-.06.54-.22.68-.5s.18-.59.12-.94c-.06-.37-.21-.65-.43-.85-.22-.19-.5-.26-.83-.2Z"/>
          <path d="M699.79,709.43l-2.88.52-.05-.3,1.21-1.99c.22-.37.37-.67.45-.9.08-.23.1-.45.06-.64-.05-.29-.17-.5-.37-.65-.19-.14-.44-.19-.74-.14-.35.06-.6.21-.75.44-.15.23-.19.51-.13.83l-.35.06v-.02c-.09-.38-.02-.73.19-1.05.21-.32.54-.51.99-.59.4-.07.74-.01,1.02.17.28.18.45.47.52.86.05.25.01.53-.1.82-.11.29-.28.62-.51,1l-1.02,1.67v.02s2.4-.43,2.4-.43l.06.32Z"/>
          <path d="M702.6,704.48c-.4.68-.67,1.36-.83,2.02-.15.66-.21,1.39-.15,2.21l.04.4-.38.07-.04-.4c-.05-.8,0-1.55.17-2.23.17-.69.43-1.35.79-1.99l-2.65.47-.06-.32,3.04-.55.06.32Z"/>
          <path d="M708.6,707.85l-2.88.52-.05-.3,1.21-1.99c.22-.37.37-.67.45-.9.08-.23.1-.45.06-.64-.05-.29-.17-.5-.37-.65-.19-.14-.44-.19-.74-.14-.35.06-.6.21-.75.44-.15.23-.19.51-.13.84l-.35.06v-.02c-.09-.38-.02-.73.19-1.05.21-.31.54-.51.99-.59.4-.07.74-.02,1.02.17.28.18.45.47.53.86.04.25.01.53-.1.82-.11.29-.28.62-.51,1l-1.02,1.67v.02s2.4-.43,2.4-.43l.06.32Z"/>
          <path d="M711.46,703.79c.05.25.01.48-.1.7-.11.21-.28.39-.51.51.3.04.55.14.76.31.21.17.33.39.39.66.07.42,0,.76-.25,1.03-.24.27-.58.45-1.01.53-.45.08-.83.03-1.14-.14-.31-.18-.51-.47-.58-.89-.05-.27,0-.53.12-.76.13-.23.33-.42.6-.56-.26-.04-.48-.14-.65-.3-.18-.16-.29-.37-.33-.62-.07-.4,0-.73.21-.99.21-.27.52-.44.92-.51.4-.07.75-.02,1.04.16.29.17.48.46.55.86ZM711.6,706.05c-.05-.29-.2-.51-.45-.66-.25-.15-.53-.19-.84-.13-.32.06-.57.2-.75.42-.18.22-.24.48-.18.77.06.3.2.52.44.66.24.13.52.17.85.11.32-.06.57-.19.75-.4.18-.21.24-.47.18-.77ZM711.07,703.86c-.05-.27-.18-.47-.4-.62-.22-.14-.47-.19-.75-.14-.28.05-.5.18-.66.38-.15.2-.2.45-.15.73.05.27.18.48.39.61.21.13.46.17.75.12.28-.05.5-.18.66-.37.16-.2.21-.43.16-.71Z"/>
          <path d="M657.14,725.15l-2.88.52-.05-.3,1.21-1.99c.22-.37.38-.67.45-.9.08-.23.1-.45.06-.64-.05-.29-.17-.51-.37-.65-.19-.14-.44-.19-.74-.14-.35.06-.6.21-.75.44-.15.22-.19.5-.13.83l-.36.06v-.02c-.09-.38-.02-.73.19-1.05.21-.31.54-.51.99-.59.4-.07.74-.01,1.02.17.28.19.45.47.52.86.05.25.01.53-.1.82-.11.29-.28.62-.51.99l-1.02,1.67h0s2.39-.41,2.39-.41l.06.32Z"/>
          <path d="M659.02,724.55c.35-.06.61-.23.78-.5.16-.27.21-.63.13-1.07l-.08-.47c-.08.21-.2.39-.37.53-.17.14-.37.23-.61.27-.42.08-.79,0-1.1-.26-.31-.25-.51-.6-.59-1.07-.08-.47-.02-.89.2-1.25.21-.36.52-.58.92-.65.45-.08.83,0,1.16.25.32.24.53.64.63,1.2l.24,1.37c.1.54.03.98-.2,1.33-.23.35-.58.56-1.04.64-.16.03-.33.04-.51.04-.17,0-.34-.02-.5-.06v-.33c.17.04.32.07.47.07.15,0,.31,0,.48-.04ZM658.8,723c.28-.05.49-.16.65-.34.16-.17.26-.37.3-.59l-.09-.49c-.08-.44-.23-.76-.47-.96-.23-.2-.51-.27-.84-.21-.3.05-.52.23-.67.52-.15.3-.19.62-.12.99.06.35.21.64.43.84.22.21.49.28.8.23Z"/>
          <path d="M663.46,721.41l.44-.08c.34-.06.58-.19.72-.39.14-.2.19-.43.14-.7-.05-.29-.17-.5-.37-.65-.19-.14-.45-.19-.78-.13-.3.05-.52.19-.68.39-.16.21-.21.46-.16.74l-.36.07v-.02c-.08-.36-.01-.68.21-.97.22-.29.53-.47.94-.54.41-.07.76-.02,1.05.16.28.18.46.48.54.88.04.22,0,.44-.09.65-.1.22-.27.39-.5.53.3.03.54.13.72.3.18.17.29.39.34.66.07.41,0,.76-.23,1.04-.22.28-.55.46-.96.54-.41.07-.77.02-1.11-.16-.33-.18-.53-.47-.59-.88v-.02s.36-.06.36-.06c.05.29.2.51.44.67s.52.19.85.14c.33-.06.57-.19.72-.39.15-.2.2-.46.15-.78-.06-.32-.2-.55-.42-.67-.22-.12-.51-.15-.87-.09l-.44.08-.06-.32Z"/>
          <path d="M669.3,721.12c.11.6.06,1.08-.14,1.45-.2.37-.53.59-.99.68-.46.08-.85-.01-1.17-.29-.32-.28-.53-.71-.64-1.31l-.19-1.04c-.11-.59-.06-1.08.14-1.45.2-.37.53-.6.99-.68.46-.08.85.01,1.17.29.32.28.53.72.64,1.31l.19,1.04ZM668.72,720.09c-.09-.47-.24-.82-.48-1.04s-.53-.3-.88-.24c-.35.06-.6.24-.74.53-.14.29-.16.67-.08,1.15l.21,1.16c.09.47.25.82.48,1.04.23.23.53.31.88.24.35-.06.6-.24.74-.53.14-.29.17-.67.08-1.15l-.21-1.16Z"/>
          <path d="M672.46,719.8l.44-.08c.34-.06.58-.19.72-.39.14-.2.19-.44.15-.7-.05-.29-.18-.5-.37-.65-.2-.14-.45-.19-.78-.13-.3.05-.52.18-.68.39-.16.21-.21.46-.16.74l-.36.06v-.02c-.08-.36-.01-.68.21-.97.22-.29.53-.47.94-.54.41-.07.76-.02,1.05.16.29.18.46.47.54.88.04.22,0,.44-.09.65-.1.22-.27.4-.5.53.3.03.55.13.72.3.18.17.29.39.34.66.08.41,0,.76-.23,1.04-.22.28-.54.46-.96.54-.41.07-.77.02-1.11-.16-.33-.18-.53-.47-.59-.88v-.02s.36-.06.36-.06c.05.29.2.52.44.67.24.15.52.19.84.14.33-.06.57-.19.72-.39.15-.21.2-.47.15-.78-.06-.33-.2-.55-.42-.67-.22-.12-.51-.15-.87-.08l-.44.08-.06-.32Z"/>
          <path d="M677.41,721.54l-.38.07-.76-4.26-1.15.35-.05-.27,1.51-.56.84,4.67Z"/>
        </g>
        <path class="st0" d="M684.86,701.53c.39,2.15-1.04,4.2-3.19,4.59-2.15.38-4.21-1.05-4.59-3.2-.38-2.15,1.04-4.2,3.2-4.59,2.15-.38,4.21,1.05,4.59,3.2Z"/>
      </g>
    </g>
  </g>
</svg>