<?xml version="1.0" encoding="UTF-8"?>
<svg id="Layer_2" xmlns="http://www.w3.org/2000/svg" version="1.1" viewBox="0 0 1500 1000">
  <!-- Generator: Adobe Illustrator 29.7.1, SVG Export Plug-In . SVG Version: 2.1.1 Build 8)  -->
  <defs>
    <style>
      .st0 {
        fill: #d1cfcd;
      }

      .st1 {
        fill: #ffcab3;
      }

      .st2 {
        fill: #fff;
      }

      .st3 {
        fill: #82ada3;
      }

      .st4 {
        fill: #e8b156;
      }

      .st5 {
        fill: #918d8e;
      }

      .st6 {
        fill: #f2f2f2;
      }

      .st7 {
        fill: #ffd180;
      }

      .st8 {
        fill: #d3ede6;
      }

      .st9 {
        fill: #ddd;
      }

      .st10 {
        fill: #5e5254;
      }

      .st11 {
        fill: #9fc1ba;
      }

      .st12 {
        display: none;
      }

      .st13 {
        fill: #ccc;
      }

      .st14 {
        fill: #cc6c6c;
      }

      .st15 {
        fill: #c6c6c6;
      }

      .st16 {
        fill: #f7f7f7;
      }

      .st17 {
        fill: #e6e6e6;
      }
    </style>
  </defs>
  <g class="st12">
    <path class="st14" d="M469.04,983.33c-11.82,0-18.03-6.83-18.63-20.49l10.65-2.23c.27,8.88,2.81,13.32,7.61,13.32,1.86,0,3.25-.57,4.15-1.7.9-1.13,1.36-2.66,1.36-4.58s-.34-3.57-1.01-5.12c-.68-1.55-1.46-2.82-2.35-3.81-.89-.99-2.16-2.21-3.81-3.66l-8.83-7.65c-2.59-2.27-4.52-4.62-5.79-7.07-1.27-2.44-1.9-5.5-1.9-9.17,0-5.21,1.53-9.26,4.6-12.15,3.06-2.89,7.27-4.36,12.61-4.41,2.46-.03,4.63.28,6.52.91,1.89.63,3.45,1.48,4.68,2.55,1.23,1.07,2.25,2.4,3.08,3.99.82,1.59,1.44,3.25,1.84,4.96.4,1.71.69,3.62.85,5.73l-10.45,2.06c-.05-1.35-.14-2.52-.26-3.52-.12-1-.33-2.01-.63-3.04-.3-1.03-.68-1.86-1.15-2.49-.47-.63-1.11-1.14-1.9-1.52-.8-.38-1.72-.53-2.77-.45-1.81.11-3.19.71-4.15,1.8-.96,1.09-1.44,2.56-1.44,4.39,0,2.16.42,3.93,1.28,5.32.85,1.39,2.18,2.88,3.99,4.47l8.75,7.61c1.46,1.32,2.73,2.61,3.81,3.85,1.08,1.24,2.11,2.66,3.1,4.25.99,1.59,1.73,3.35,2.25,5.26.51,1.92.77,3.94.77,6.07,0,4.89-1.55,8.85-4.64,11.9-3.09,3.05-7.15,4.58-12.17,4.58Z"/>
    <path class="st14" d="M489.53,982.52l13.65-67.13h12.76l13.61,67.13h-11.38l-2.71-15.59h-11.62l-2.75,15.59h-11.54ZM505.12,958.96h8.99l-4.49-27.57-4.49,27.57Z"/>
    <path class="st14" d="M532.65,982.52l13.65-67.13h12.76l13.61,67.13h-11.38l-2.71-15.59h-11.62l-2.75,15.59h-11.54ZM548.24,958.96h8.99l-4.49-27.57-4.49,27.57Z"/>
    <path class="st14" d="M596.18,983.33c-11.82,0-18.03-6.83-18.63-20.49l10.65-2.23c.27,8.88,2.81,13.32,7.61,13.32,1.86,0,3.25-.57,4.15-1.7.9-1.13,1.36-2.66,1.36-4.58s-.34-3.57-1.01-5.12c-.68-1.55-1.46-2.82-2.35-3.81-.89-.99-2.16-2.21-3.81-3.66l-8.83-7.65c-2.59-2.27-4.52-4.62-5.79-7.07-1.27-2.44-1.9-5.5-1.9-9.17,0-5.21,1.53-9.26,4.6-12.15,3.06-2.89,7.27-4.36,12.61-4.41,2.46-.03,4.63.28,6.52.91,1.89.63,3.45,1.48,4.68,2.55,1.23,1.07,2.25,2.4,3.08,3.99.82,1.59,1.44,3.25,1.84,4.96.4,1.71.69,3.62.85,5.73l-10.45,2.06c-.05-1.35-.14-2.52-.26-3.52-.12-1-.33-2.01-.63-3.04-.3-1.03-.68-1.86-1.15-2.49-.47-.63-1.11-1.14-1.9-1.52-.8-.38-1.72-.53-2.77-.45-1.81.11-3.19.71-4.15,1.8-.96,1.09-1.44,2.56-1.44,4.39,0,2.16.42,3.93,1.28,5.32.85,1.39,2.18,2.88,3.99,4.47l8.75,7.61c1.46,1.32,2.73,2.61,3.81,3.85,1.08,1.24,2.11,2.66,3.1,4.25.99,1.59,1.73,3.35,2.25,5.26.51,1.92.77,3.94.77,6.07,0,4.89-1.55,8.85-4.64,11.9-3.09,3.05-7.15,4.58-12.17,4.58Z"/>
    <path class="st14" d="M646.96,982.52v-58.11h-11.26v-9.03h34.38v9.03h-10.89v58.11h-12.23Z"/>
    <path class="st14" d="M675.42,982.52v-67.13h28.1v8.62h-15.87v19.27h12.55v8.62h-12.55v22.15h16.08v8.46h-28.3Z"/>
    <path class="st14" d="M728.79,983.33c-2.89,0-5.44-.36-7.65-1.09-2.21-.73-4.04-1.74-5.49-3.04-1.44-1.3-2.62-2.9-3.52-4.82-.9-1.92-1.54-3.97-1.9-6.18-.36-2.2-.55-4.68-.55-7.43v-23.4c0-2.92.19-5.5.57-7.75.38-2.25,1.01-4.35,1.9-6.28.89-1.93,2.06-3.52,3.5-4.76,1.44-1.24,3.27-2.21,5.47-2.92,2.2-.7,4.76-1.05,7.67-1.05,3.35,0,6.21.45,8.58,1.34,2.37.89,4.25,2.2,5.63,3.93,1.38,1.73,2.38,3.75,3,6.05.62,2.31.93,5,.93,8.08v5.75h-11.78v-5.71c0-3.35-.18-5.6-.53-6.76-.7-2.27-2.42-3.48-5.14-3.64h-.65c-1.03,0-1.92.12-2.69.36-.77.24-1.4.63-1.88,1.15-.49.53-.88,1.09-1.17,1.68-.3.59-.52,1.37-.67,2.33-.15.96-.24,1.84-.28,2.65s-.06,1.84-.06,3.08v28.43c0,3.94.49,6.75,1.48,8.42.99,1.67,2.75,2.51,5.28,2.51.86,0,1.63-.1,2.29-.3.66-.2,1.21-.46,1.66-.77.45-.31.82-.76,1.13-1.34.31-.58.55-1.12.71-1.62.16-.5.28-1.19.36-2.09.08-.89.13-1.65.14-2.27.01-.62.02-1.47.02-2.55v-5.99h11.78v5.51c0,2.51-.18,4.76-.53,6.76-.35,2-.95,3.87-1.8,5.63-.85,1.76-1.95,3.21-3.3,4.37-1.35,1.16-3.08,2.07-5.18,2.73-2.11.66-4.55.99-7.33.99Z"/>
    <path class="st14" d="M755.52,982.52v-67.13h12.23v28.06h13.65v-28.06h12.23v67.13h-12.23v-30.37h-13.65v30.37h-12.23Z"/>
    <path class="st14" d="M803.78,982.52v-67.13h8.42l16.44,38.02v-38.02h10.12v67.13h-8.02l-16.6-39.96v39.96h-10.37Z"/>
    <path class="st14" d="M867.07,983.33c-6.91,0-11.86-1.88-14.86-5.63-3-3.75-4.49-9.25-4.49-16.48v-24.78c0-3.56.34-6.65,1.01-9.27.67-2.62,1.76-4.89,3.26-6.8,1.5-1.92,3.5-3.35,6.01-4.31,2.51-.96,5.53-1.44,9.07-1.44,6.88,0,11.83,1.85,14.84,5.55,3.01,3.7,4.51,9.12,4.51,16.28v24.78c0,3.51-.34,6.59-1.03,9.25-.69,2.66-1.78,4.97-3.28,6.92-1.5,1.96-3.5,3.44-6.01,4.43-2.51,1-5.52,1.5-9.03,1.5ZM864.01,973.74c.85.35,1.87.53,3.06.53s2.2-.18,3.04-.53c.84-.35,1.5-.81,2-1.38.5-.57.89-1.31,1.17-2.23.28-.92.47-1.84.57-2.75.09-.92.14-2.01.14-3.28v-30.49c0-1.62-.08-2.97-.24-4.05-.16-1.08-.48-2.1-.95-3.06-.47-.96-1.18-1.67-2.13-2.15-.95-.47-2.15-.71-3.6-.71s-2.67.24-3.62.71c-.96.47-1.67,1.19-2.13,2.15-.46.96-.77,1.98-.93,3.06-.16,1.08-.24,2.43-.24,4.05v30.49c0,1.27.05,2.36.14,3.28.09.92.28,1.84.57,2.75.28.92.67,1.66,1.15,2.23.49.57,1.15,1.03,2,1.38Z"/>
    <path class="st14" d="M895.37,982.52v-67.13h12.23v58.67h16.08v8.46h-28.3Z"/>
    <path class="st14" d="M947.69,983.33c-6.91,0-11.86-1.88-14.86-5.63-3-3.75-4.49-9.25-4.49-16.48v-24.78c0-3.56.34-6.65,1.01-9.27.67-2.62,1.76-4.89,3.26-6.8,1.5-1.92,3.5-3.35,6.01-4.31,2.51-.96,5.53-1.44,9.07-1.44,6.88,0,11.83,1.85,14.84,5.55,3.01,3.7,4.51,9.12,4.51,16.28v24.78c0,3.51-.34,6.59-1.03,9.25-.69,2.66-1.78,4.97-3.28,6.92-1.5,1.96-3.5,3.44-6.01,4.43-2.51,1-5.52,1.5-9.03,1.5ZM944.63,973.74c.85.35,1.87.53,3.06.53s2.2-.18,3.04-.53c.84-.35,1.5-.81,2-1.38.5-.57.89-1.31,1.17-2.23.28-.92.47-1.84.57-2.75.09-.92.14-2.01.14-3.28v-30.49c0-1.62-.08-2.97-.24-4.05-.16-1.08-.48-2.1-.95-3.06-.47-.96-1.18-1.67-2.13-2.15-.95-.47-2.15-.71-3.6-.71s-2.67.24-3.62.71c-.96.47-1.67,1.19-2.13,2.15-.46.96-.77,1.98-.93,3.06-.16,1.08-.24,2.43-.24,4.05v30.49c0,1.27.05,2.36.14,3.28.09.92.28,1.84.57,2.75.28.92.67,1.66,1.15,2.23.49.57,1.15,1.03,2,1.38Z"/>
    <path class="st14" d="M992.8,983.41c-6.34,0-10.91-1.98-13.71-5.95-2.79-3.97-4.19-9.74-4.19-17.33v-21.87c0-3.86.3-7.19.91-9.98.61-2.79,1.63-5.24,3.06-7.35,1.43-2.11,3.4-3.68,5.91-4.74,2.51-1.05,5.59-1.58,9.23-1.58,6.64,0,11.4,1.63,14.29,4.88,2.89,3.25,4.33,8.19,4.33,14.8v3.28h-11.7v-3.48c0-1.48-.03-2.7-.1-3.64-.07-.94-.23-1.9-.49-2.85-.26-.96-.63-1.69-1.11-2.21-.49-.51-1.15-.93-1.98-1.26-.84-.32-1.86-.49-3.08-.49-.92,0-1.74.12-2.45.34-.72.23-1.32.51-1.8.85-.49.34-.9.82-1.23,1.44-.34.62-.59,1.22-.77,1.8-.18.58-.31,1.33-.41,2.25-.09.92-.16,1.73-.18,2.43-.03.7-.04,1.61-.04,2.71v27.09c0,4.05.5,7.01,1.5,8.89,1,1.88,2.9,2.81,5.71,2.81,1.46,0,2.68-.28,3.66-.83.99-.55,1.75-1.39,2.31-2.51.55-1.12.94-2.4,1.17-3.85.23-1.44.34-3.19.34-5.24v-5.51h-7.25v-7.9h18.26v34.09h-7.94l-.89-6.8c-2.02,5.13-5.82,7.69-11.38,7.69Z"/>
    <path class="st14" d="M1031.22,982.52v-25.55l-13.69-41.58h11.42l8.3,26.72,7.94-26.72h11.3l-13.61,41.58v25.55h-11.66Z"/>
  </g>
  <g>
    <path class="st7" d="M1301.36,730.66h-5.65c-2.75,0-4.98-2.23-4.98-4.98s2.23-4.98,4.98-4.98h.67v-15.93c0-2.75,2.23-4.98,4.98-4.98s4.98,2.23,4.98,4.98v20.91c0,2.75-2.23,4.98-4.98,4.98ZM1269.15,730.66h-26.56c-2.75,0-4.98-2.23-4.98-4.98s2.23-4.98,4.98-4.98h26.56c2.75,0,4.98,2.23,4.98,4.98s-2.23,4.98-4.98,4.98ZM1216.04,730.66h-26.56c-2.75,0-4.98-2.23-4.98-4.98s2.23-4.98,4.98-4.98h26.56c2.75,0,4.98,2.23,4.98,4.98s-2.23,4.98-4.98,4.98ZM1162.93,730.66h-26.56c-2.75,0-4.98-2.23-4.98-4.98s2.23-4.98,4.98-4.98h26.56c2.75,0,4.98,2.23,4.98,4.98s-2.23,4.98-4.98,4.98ZM1109.82,730.66h-26.56c-2.75,0-4.98-2.23-4.98-4.98s2.23-4.98,4.98-4.98h26.56c2.75,0,4.98,2.23,4.98,4.98s-2.23,4.98-4.98,4.98ZM1056.71,730.66h-26.56c-2.75,0-4.98-2.23-4.98-4.98s2.23-4.98,4.98-4.98h26.56c2.75,0,4.98,2.23,4.98,4.98s-2.23,4.98-4.98,4.98ZM1301.36,683.19c-2.75,0-4.98-2.23-4.98-4.98v-26.56c0-2.75,2.23-4.98,4.98-4.98s4.98,2.23,4.98,4.98v26.56c0,2.75-2.23,4.98-4.98,4.98ZM1301.36,630.08c-2.75,0-4.98-2.23-4.98-4.98v-26.56c0-2.75,2.23-4.98,4.98-4.98s4.98,2.23,4.98,4.98v26.56c0,2.75-2.23,4.98-4.98,4.98ZM1301.36,576.97c-2.75,0-4.98-2.23-4.98-4.98v-26.56c0-2.75,2.23-4.98,4.98-4.98s4.98,2.23,4.98,4.98v26.56c0,2.75-2.23,4.98-4.98,4.98ZM1301.36,523.86c-2.75,0-4.98-2.23-4.98-4.98v-26.56c0-2.75,2.23-4.98,4.98-4.98s4.98,2.23,4.98,4.98v26.56c0,2.75-2.23,4.98-4.98,4.98ZM1301.36,470.75c-2.75,0-4.98-2.23-4.98-4.98v-26.56c0-2.75,2.23-4.98,4.98-4.98s4.98,2.23,4.98,4.98v26.56c0,2.75-2.23,4.98-4.98,4.98ZM1301.36,417.63c-2.75,0-4.98-2.23-4.98-4.98v-26.56c0-2.75,2.23-4.98,4.98-4.98s4.98,2.23,4.98,4.98v26.56c0,2.75-2.23,4.98-4.98,4.98ZM1301.36,364.52c-2.75,0-4.98-2.23-4.98-4.98v-26.56c0-2.75,2.23-4.98,4.98-4.98s4.98,2.23,4.98,4.98v26.56c0,2.75-2.23,4.98-4.98,4.98ZM1301.36,311.41c-2.75,0-4.98-2.23-4.98-4.98v-26.56c0-2.75,2.23-4.98,4.98-4.98s4.98,2.23,4.98,4.98v26.56c0,2.75-2.23,4.98-4.98,4.98ZM1301.36,258.3c-2.75,0-4.98-2.23-4.98-4.98v-7.85h-8.75c-2.75,0-4.98-2.23-4.98-4.98s2.23-4.98,4.98-4.98h13.73c2.75,0,4.98,2.23,4.98,4.98v12.83c0,2.75-2.23,4.98-4.98,4.98ZM1261.07,245.47h-26.56c-2.75,0-4.98-2.23-4.98-4.98s2.23-4.98,4.98-4.98h26.56c2.75,0,4.98,2.23,4.98,4.98s-2.23,4.98-4.98,4.98ZM1207.96,245.47h-26.56c-2.75,0-4.98-2.23-4.98-4.98s2.23-4.98,4.98-4.98h26.56c2.75,0,4.98,2.23,4.98,4.98s-2.23,4.98-4.98,4.98ZM1154.85,245.47h-26.56c-2.75,0-4.98-2.23-4.98-4.98s2.23-4.98,4.98-4.98h26.56c2.75,0,4.98,2.23,4.98,4.98s-2.23,4.98-4.98,4.98Z"/>
    <path class="st7" d="M166.77,556.49h-26.56c-2.75,0-4.98-2.23-4.98-4.98s2.23-4.98,4.98-4.98h26.56c2.75,0,4.98,2.23,4.98,4.98s-2.23,4.98-4.98,4.98ZM113.66,556.49h-26.56c-2.75,0-4.98-2.23-4.98-4.98s2.23-4.98,4.98-4.98h26.56c2.75,0,4.98,2.23,4.98,4.98s-2.23,4.98-4.98,4.98ZM60.55,556.49h-26.56c-2.75,0-4.98-2.23-4.98-4.98s2.23-4.98,4.98-4.98h26.56c2.75,0,4.98,2.23,4.98,4.98s-2.23,4.98-4.98,4.98ZM15,548.93c-2.75,0-4.98-2.23-4.98-4.98v-26.56c0-2.75,2.23-4.98,4.98-4.98s4.98,2.23,4.98,4.98v26.56c0,2.75-2.23,4.98-4.98,4.98ZM15,495.82c-2.75,0-4.98-2.23-4.98-4.98v-26.56c0-2.75,2.23-4.98,4.98-4.98s4.98,2.23,4.98,4.98v26.56c0,2.75-2.23,4.98-4.98,4.98ZM15,442.7c-2.75,0-4.98-2.23-4.98-4.98v-26.56c0-2.75,2.23-4.98,4.98-4.98s4.98,2.23,4.98,4.98v26.56c0,2.75-2.23,4.98-4.98,4.98ZM15,389.59c-2.75,0-4.98-2.23-4.98-4.98v-26.56c0-2.75,2.23-4.98,4.98-4.98s4.98,2.23,4.98,4.98v26.56c0,2.75-2.23,4.98-4.98,4.98ZM15,336.48c-2.75,0-4.98-2.23-4.98-4.98v-26.56c0-2.75,2.23-4.98,4.98-4.98s4.98,2.23,4.98,4.98v26.56c0,2.75-2.23,4.98-4.98,4.98ZM15,283.37c-2.75,0-4.98-2.23-4.98-4.98v-26.56c0-2.75,2.23-4.98,4.98-4.98s4.98,2.23,4.98,4.98v26.56c0,2.75-2.23,4.98-4.98,4.98ZM261.75,238.01h-26.56c-2.75,0-4.98-2.23-4.98-4.98s2.23-4.98,4.98-4.98h26.56c2.75,0,4.98,2.23,4.98,4.98s-2.23,4.98-4.98,4.98ZM208.64,238.01h-26.56c-2.75,0-4.98-2.23-4.98-4.98s2.23-4.98,4.98-4.98h26.56c2.75,0,4.98,2.23,4.98,4.98s-2.23,4.98-4.98,4.98ZM155.52,238.01h-26.56c-2.75,0-4.98-2.23-4.98-4.98s2.23-4.98,4.98-4.98h26.56c2.75,0,4.98,2.23,4.98,4.98s-2.23,4.98-4.98,4.98ZM102.41,238.01h-26.56c-2.75,0-4.98-2.23-4.98-4.98s2.23-4.98,4.98-4.98h26.56c2.75,0,4.98,2.23,4.98,4.98s-2.23,4.98-4.98,4.98ZM49.3,238.01h-26.56c-2.75,0-4.98-2.23-4.98-4.98s2.23-4.98,4.98-4.98h26.56c2.75,0,4.98,2.23,4.98,4.98s-2.23,4.98-4.98,4.98Z"/>
    <g>
      <g>
        <path class="st11" d="M893.74,407.33c-12.01,0-24.05-1.22-35.98-3.66l8-39c56.24,11.54,114.66-13.31,145.38-61.84,19.85-31.36,26.29-68.57,18.15-104.78-8.14-36.21-29.9-67.08-61.26-86.93l21.29-33.64c83.29,52.71,108.17,163.35,55.46,246.64-19.79,31.28-48.27,55.3-82.35,69.45-22.01,9.14-45.28,13.77-68.7,13.77Z"/>
        <polygon class="st11" points="887.06 349.48 808.79 362.76 859.41 423.91 887.06 349.48"/>
      </g>
      <g>
        <path class="st11" d="M783.11,370.06c-40.35-25.53-68.34-65.25-78.81-111.83-10.48-46.58-2.18-94.46,23.35-134.81,19.79-31.28,48.27-55.3,82.35-69.45,33.29-13.83,69.49-17.32,104.67-10.1l-8,39c-56.24-11.54-114.66,13.31-145.38,61.84-19.85,31.36-26.29,68.57-18.15,104.78,8.14,36.21,29.9,67.08,61.26,86.93l-21.29,33.64Z"/>
        <polygon class="st11" points="885.37 98.06 963.64 84.78 913.02 23.63 885.37 98.06"/>
      </g>
    </g>
    <g>
      <g>
        <path class="st17" d="M1479.74,765.19c5.53-31.95-15.88-62.33-47.83-67.86-31.95-5.53-62.33,15.88-67.86,47.83-5.53,31.95,15.88,62.33,47.83,67.86,31.95,5.53,62.33-15.88,67.86-47.83ZM1389.99,749.65c3.05-17.62,19.81-29.43,37.43-26.38,17.62,3.05,29.43,19.81,26.38,37.43-3.05,17.62-19.81,29.43-37.43,26.38-17.62-3.05-29.43-19.81-26.38-37.43Z"/>
        <g>
          <polygon class="st17" points="1465.68 776.15 1470.18 750.15 1489.39 755.15 1485.46 777.9 1465.68 776.15"/>
          <polygon class="st17" points="1373.61 760.2 1378.11 734.21 1358.33 732.46 1354.39 755.2 1373.61 760.2"/>
        </g>
        <g>
          <polygon class="st17" points="1400.92 798.96 1426.92 803.46 1421.92 822.68 1399.17 818.74 1400.92 798.96"/>
          <polygon class="st17" points="1416.87 706.89 1442.86 711.39 1444.61 691.61 1421.87 687.68 1416.87 706.89"/>
        </g>
        <g>
          <polygon class="st17" points="1438.03 800.96 1459.59 785.77 1469.64 802.89 1450.77 816.19 1438.03 800.96"/>
          <polygon class="st17" points="1384.19 724.59 1405.76 709.39 1393.01 694.17 1374.14 707.47 1384.19 724.59"/>
        </g>
        <g>
          <polygon class="st17" points="1376.11 771.31 1391.3 792.88 1374.18 802.93 1360.88 784.06 1376.11 771.31"/>
          <polygon class="st17" points="1452.48 717.48 1467.68 739.04 1482.9 726.3 1469.6 707.43 1452.48 717.48"/>
        </g>
      </g>
      <g>
        <path class="st13" d="M1369.6,758.54c-.61,0-1.14-.46-1.21-1.08-.03-.3-3.12-30.16,21.11-47.33,24.97-17.68,56.86-9.38,69.37,3.12.48.48.48,1.25,0,1.72-.48.48-1.25.48-1.72,0-12.16-12.17-43.25-19.14-66.23-2.86-23.07,16.34-20.13,44.78-20.1,45.06.08.67-.4,1.27-1.07,1.35-.05,0-.09,0-.14,0Z"/>
        <path class="st13" d="M1475.62,745.91c-.59,0-1.11-.43-1.2-1.04-2.22-14.61-9.83-21.47-9.9-21.54-.5-.44-.55-1.21-.11-1.72.44-.5,1.21-.56,1.72-.11.34.3,8.34,7.45,10.71,23,.1.67-.36,1.29-1.02,1.39-.06,0-.12.01-.19.01Z"/>
        <path class="st13" d="M1421.91,788.78c-1.9,0-3.82-.16-5.75-.5-18.25-3.16-30.53-20.58-27.37-38.84,1.53-8.84,6.41-16.56,13.75-21.73,7.33-5.17,16.24-7.17,25.09-5.64,18.25,3.16,30.53,20.58,27.37,38.84-2.83,16.32-17.06,27.87-33.09,27.87ZM1421.83,724.01c-6.37,0-12.57,1.95-17.89,5.7-6.8,4.8-11.33,11.95-12.75,20.15h0c-2.93,16.93,8.46,33.09,25.39,36.02,1.79.31,3.57.46,5.33.46,14.87,0,28.07-10.71,30.69-25.85,2.93-16.93-8.46-33.09-25.39-36.02-1.8-.31-3.6-.46-5.38-.46ZM1389.99,749.65h.01-.01Z"/>
        <path class="st13" d="M1421.82,796.54c-2.38,0-4.78-.2-7.18-.62-.66-.11-1.13-.74-1.02-1.4.11-.66.71-1.11,1.36-1.01,21.35,3.7,41.64-10.61,45.32-31.88.11-.66.73-1.11,1.41-.99.66.12,1.11.75.99,1.41-1.89,10.94-7.94,20.5-17.02,26.89-7.09,5-15.37,7.6-23.87,7.6Z"/>
        <path class="st13" d="M1465.76,803.74c-.39,0-.77-.18-1-.53l-3.99-5.76c-.38-.55-.24-1.31.31-1.7.55-.38,1.31-.25,1.7.31l3.99,5.76c.38.55.24,1.31-.31,1.7-.21.15-.45.22-.69.22Z"/>
        <path class="st13" d="M1486.59,758.54c-.1,0-.2-.01-.3-.04l-7.09-1.77c-.65-.16-1.05-.83-.89-1.48.16-.65.83-1.05,1.48-.89l7.09,1.77c.65.16,1.05.82.89,1.48-.14.55-.63.92-1.18.92Z"/>
        <path class="st13" d="M1419.9,820.58c-.09,0-.19-.01-.29-.03-.65-.16-1.06-.82-.9-1.47l1.77-7.31c.16-.65.82-1.06,1.47-.9.65.16,1.06.82.9,1.47l-1.77,7.31c-.14.56-.63.93-1.18.93Z"/>
      </g>
    </g>
    <g>
      <g>
        <path class="st11" d="M1319.3,729.7c8.95-51.67-25.69-100.81-77.36-109.76-51.67-8.95-100.81,25.69-109.76,77.36-8.95,51.67,25.69,100.81,77.36,109.76,51.67,8.95,100.81-25.69,109.76-77.36ZM1174.14,704.57c4.93-28.5,32.04-47.6,60.54-42.67,28.5,4.93,47.6,32.04,42.67,60.54-4.93,28.5-32.04,47.6-60.54,42.67-28.5-4.93-47.6-32.04-42.67-60.54Z"/>
        <g>
          <polygon class="st11" points="1296.56 747.42 1303.84 705.37 1334.92 713.46 1328.55 750.25 1296.56 747.42"/>
          <polygon class="st11" points="1147.65 721.63 1154.92 679.59 1122.94 676.76 1116.57 713.55 1147.65 721.63"/>
        </g>
        <g>
          <polygon class="st11" points="1191.83 784.32 1233.87 791.6 1225.78 822.68 1188.99 816.31 1191.83 784.32"/>
          <polygon class="st11" points="1217.61 635.41 1259.66 642.69 1262.49 610.7 1225.7 604.33 1217.61 635.41"/>
        </g>
        <g>
          <polygon class="st11" points="1251.83 787.56 1286.71 762.98 1302.97 790.67 1272.45 812.18 1251.83 787.56"/>
          <polygon class="st11" points="1164.77 664.03 1199.65 639.45 1179.03 614.82 1148.51 636.33 1164.77 664.03"/>
        </g>
        <g>
          <polygon class="st11" points="1151.69 739.6 1176.27 774.48 1148.57 790.73 1127.06 760.21 1151.69 739.6"/>
          <polygon class="st11" points="1275.21 652.53 1299.8 687.41 1324.42 666.79 1302.91 636.27 1275.21 652.53"/>
        </g>
      </g>
      <g>
        <path class="st3" d="M1141.17,719.46c-1.25,0-2.32-.94-2.47-2.21-.06-.49-5.09-49.09,34.36-77.03,17.85-12.64,40.43-18.24,63.59-15.76,19.91,2.13,38.33,9.93,49.27,20.87.97.97.97,2.55,0,3.52-.97.97-2.55.97-3.52,0-19.55-19.55-69.51-30.74-106.46-4.57-37.07,26.26-32.34,71.95-32.29,72.41.15,1.37-.83,2.6-2.19,2.75-.1.01-.19.02-.28.02Z"/>
        <path class="st3" d="M1312.64,699.03c-1.21,0-2.27-.88-2.46-2.11-3.56-23.42-15.73-34.41-15.85-34.52-1.03-.91-1.13-2.48-.22-3.51.9-1.03,2.47-1.13,3.5-.23.55.49,13.63,12.18,17.49,37.51.21,1.36-.73,2.63-2.08,2.83-.13.02-.25.03-.38.03Z"/>
        <path class="st3" d="M1225.77,768.37c-3.1,0-6.23-.26-9.39-.81-29.81-5.16-49.86-33.61-44.7-63.41h0c5.16-29.81,33.61-49.86,63.41-44.7,29.81,5.16,49.86,33.61,44.7,63.41-4.61,26.65-27.85,45.51-54.03,45.51ZM1176.59,704.99c-4.69,27.1,13.54,52.97,40.64,57.66,2.87.5,5.72.74,8.54.74,23.81,0,44.93-17.14,49.13-41.38,4.69-27.1-13.54-52.97-40.64-57.66-27.1-4.69-52.97,13.54-57.66,40.64h0Z"/>
        <path class="st3" d="M1225.62,780.92c-3.89,0-7.8-.33-11.71-1.01l.35-2.46.46-2.45c16.57,2.87,33.22-.88,46.94-10.54,13.71-9.66,22.84-24.09,25.7-40.62.23-1.35,1.52-2.26,2.88-2.03,1.35.23,2.26,1.52,2.03,2.88-3.09,17.84-12.94,33.4-27.74,43.83-11.56,8.14-25.05,12.4-38.9,12.4Z"/>
        <path class="st3" d="M1296.7,792.56c-.79,0-1.56-.37-2.05-1.07l-6.45-9.32c-.78-1.13-.5-2.68.63-3.46,1.13-.78,2.68-.5,3.46.63l6.45,9.32c.78,1.13.5,2.68-.63,3.46-.43.3-.93.44-1.41.44Z"/>
        <path class="st3" d="M1330.38,719.46c-.2,0-.4-.02-.61-.07l-11.47-2.87c-1.33-.33-2.14-1.68-1.81-3.02.33-1.33,1.69-2.14,3.02-1.81l11.47,2.87c1.33.33,2.14,1.68,1.81,3.02-.28,1.13-1.3,1.88-2.41,1.88Z"/>
        <path class="st3" d="M1222.52,819.8c-.19,0-.39-.02-.59-.07-1.34-.32-2.16-1.67-1.83-3l2.87-11.83c.32-1.34,1.66-2.16,3-1.83,1.34.32,2.16,1.67,1.83,3l-2.87,11.83c-.28,1.14-1.29,1.9-2.42,1.9Z"/>
      </g>
    </g>
    <g>
      <rect class="st14" x="212.53" y="298.13" width="221.41" height="524.15"/>
      <polygon class="st14" points="323.23 97.06 102.07 410.16 544.39 410.16 323.23 97.06"/>
    </g>
    <g>
      <g>
        <rect class="st10" x="470.77" y="456.02" width="523.09" height="364.45" rx="10.22" ry="10.22"/>
        <rect class="st6" x="484.01" y="469.06" width="496.6" height="338.37"/>
        <rect class="st10" x="412.35" y="785.16" width="639.92" height="37.52"/>
        <g>
          <path class="st5" d="M866.58,800.98h-70.63c-1.83,0-3.31-1.48-3.31-3.31s1.48-3.31,3.31-3.31h70.63c1.83,0,3.31,1.48,3.31,3.31s-1.48,3.31-3.31,3.31Z"/>
          <path class="st5" d="M759.16,800.98h-311.94c-1.83,0-3.31-1.48-3.31-3.31s1.48-3.31,3.31-3.31h311.94c1.83,0,3.31,1.48,3.31,3.31s-1.48,3.31-3.31,3.31Z"/>
        </g>
      </g>
      <rect class="st14" x="532.5" y="505.32" width="185.4" height="111.46" rx="7.92" ry="7.92"/>
      <rect class="st4" x="532.5" y="637.19" width="185.4" height="111.46" rx="7.92" ry="7.92"/>
      <polygon class="st2" points="604.85 531.25 604.85 590.84 653.27 560.42 604.85 531.25"/>
      <g>
        <rect class="st11" x="767.55" y="505.32" width="185.4" height="111.46" rx="7.92" ry="7.92"/>
        <g>
          <path class="st2" d="M891.97,566.38c3.03-17.52-8.71-34.17-26.22-37.2-17.52-3.03-34.17,8.71-37.2,26.22-3.03,17.51,8.71,34.17,26.22,37.2,17.51,3.03,34.17-8.71,37.2-26.22ZM848.44,558.84c1.13-6.52,7.33-10.9,13.86-9.77,6.52,1.13,10.9,7.33,9.77,13.86-1.13,6.52-7.33,10.9-13.86,9.77-6.52-1.13-10.9-7.33-9.77-13.86Z"/>
          <g>
            <polygon class="st2" points="848.51 583.83 871.76 583.9 870.26 601.33 849.91 601.27 848.51 583.83"/>
            <polygon class="st2" points="848.74 538.2 872 538.26 870.59 520.82 850.25 520.76 848.74 538.2"/>
          </g>
          <g>
            <polygon class="st2" points="835.84 568.85 852.23 585.34 838.84 596.61 824.5 582.18 835.84 568.85"/>
            <polygon class="st2" points="868.27 536.75 884.67 553.24 896.01 539.91 881.66 525.48 868.27 536.75"/>
          </g>
          <g>
            <polygon class="st2" points="837.47 549.3 837.4 572.55 819.97 571.05 820.03 550.71 837.47 549.3"/>
            <polygon class="st2" points="883.1 549.54 883.04 572.79 900.48 571.38 900.54 551.04 883.1 549.54"/>
          </g>
          <g>
            <polygon class="st2" points="852.45 536.63 835.96 553.03 824.69 539.64 839.12 525.29 852.45 536.63"/>
            <polygon class="st2" points="884.55 569.06 868.06 585.46 881.39 596.8 895.81 582.46 884.55 569.06"/>
          </g>
        </g>
      </g>
      <path class="st2" d="M654.07,683.31l-57.73-.37c-3.63-7.82-11.5-13.28-20.7-13.34-9.65-.06-17.94,5.84-21.41,14.25l23.84.15-.11,17.8-23.59-.15c3.5,8.14,11.55,13.87,20.98,13.93,9.19.06,17.14-5.3,20.87-13.07l57.73.37c3.63,7.82,11.5,13.28,20.7,13.34,9.43.06,17.56-5.57,21.16-13.66l-23.59-.15.11-17.8,23.84.15c-3.35-8.46-11.57-14.47-21.22-14.53-9.19-.06-17.14,5.3-20.87,13.07Z"/>
      <g>
        <rect class="st15" x="767.55" y="637.19" width="185.4" height="111.46" rx="7.92" ry="7.92"/>
        <g>
          <path class="st2" d="M831.43,723.25c-.72,0-1.44-.23-2.04-.71l-33.35-26.25c-.76-.6-1.22-1.51-1.26-2.48-.04-.97.36-1.91,1.07-2.56l33.35-30.57c1.35-1.24,3.44-1.14,4.68.2,1.24,1.35,1.14,3.44-.2,4.68l-30.48,27.94,30.29,23.84c1.44,1.13,1.68,3.21.55,4.65-.65.83-1.62,1.26-2.6,1.26Z"/>
          <path class="st2" d="M890.1,723.25c-.98,0-1.95-.43-2.6-1.26-1.13-1.44-.88-3.52.55-4.65l30.29-23.84-30.48-27.94c-1.35-1.24-1.44-3.33-.2-4.68,1.23-1.35,3.33-1.44,4.68-.2l33.35,30.57c.72.66,1.11,1.59,1.07,2.56-.04.97-.5,1.88-1.26,2.48l-33.35,26.25c-.61.48-1.33.71-2.05.71Z"/>
          <path class="st2" d="M845.48,732.36c-.43,0-.86-.08-1.28-.26-1.69-.71-2.48-2.65-1.77-4.33l30.26-72.25c.71-1.69,2.65-2.48,4.33-1.77,1.69.71,2.48,2.65,1.77,4.33l-30.26,72.25c-.53,1.27-1.76,2.03-3.06,2.03Z"/>
        </g>
      </g>
    </g>
    <g>
      <path class="st7" d="M374.03,307.61h498.36s14.86-63.83-27.98-99.67c-42.68-35.72-87.43-18.36-87.43-18.36,0,0-19.24-104.92-151.26-97.92-126.79,6.72-134.65,106.67-134.65,106.67,0,0-35.85-19.24-79.56,17.49-37.76,31.72-17.49,91.8-17.49,91.8Z"/>
      <g>
        <circle class="st2" cx="621.96" cy="243.06" r="18.18"/>
        <path class="st2" d="M582.76,226.75c-1.1,0-2.2-.37-3.11-1.14-2.03-1.72-2.28-4.76-.56-6.78,10.7-12.64,26.33-19.88,42.87-19.88s32.15,7.24,42.84,19.85c1.72,2.03,1.47,5.06-.56,6.78-2.03,1.72-5.06,1.47-6.78-.56-8.87-10.46-21.81-16.45-35.5-16.45s-26.66,6.01-35.53,16.48c-.95,1.12-2.31,1.7-3.68,1.7Z"/>
        <path class="st2" d="M681.51,204.58c-1.29,0-2.58-.52-3.53-1.54-14.43-15.52-34.85-24.42-56.03-24.42s-40.94,8.49-55.54,23.9c-1.83,1.93-4.87,2.01-6.81.19-1.93-1.83-2.01-4.87-.19-6.81,16.43-17.35,38.64-26.91,62.53-26.91s46.84,10.02,63.08,27.5c1.81,1.95,1.7,4.99-.25,6.8-.93.86-2.1,1.29-3.28,1.29Z"/>
        <path class="st2" d="M545.13,179.92c-1.26,0-2.53-.49-3.47-1.48-1.84-1.92-1.78-4.96.14-6.81,21.65-20.8,50.12-32.26,80.16-32.26s58.12,11.31,79.71,31.83c1.93,1.83,2,4.88.17,6.81-1.83,1.93-4.88,2-6.81.17-19.8-18.82-45.75-29.18-73.08-29.18s-53.63,10.5-73.49,29.57c-.93.9-2.13,1.34-3.33,1.34Z"/>
      </g>
      <g>
        <path class="st4" d="M739.12,187.39c-1.8,0-3.43-1.25-3.84-3.08-3.75-16.85-16.23-35.42-33.38-49.67-49.3-40.94-113.15-22.79-113.79-22.6-2.08.62-4.27-.58-4.89-2.66-.61-2.08.57-4.27,2.65-4.89.7-.21,17.32-5.04,40.57-4.55,21.53.45,52.97,5.79,80.49,28.64,18.45,15.33,31.93,35.52,36.04,54.02.47,2.12-.87,4.22-2.99,4.69-.29.06-.57.09-.86.09Z"/>
        <path class="st4" d="M861.52,284.44c-.11,0-.22,0-.34-.01-2.16-.18-3.77-2.09-3.59-4.25,1-11.76-.79-29.95-15-49.84-24.47-34.25-68.35-28.19-68.78-28.12-2.15.32-4.15-1.16-4.47-3.31-.32-2.15,1.16-4.15,3.3-4.47,1.99-.3,49.04-6.91,76.36,31.33,15.6,21.84,17.55,42.01,16.44,55.08-.17,2.05-1.89,3.6-3.92,3.6Z"/>
        <path class="st4" d="M404.25,229.36c-.87,0-1.75-.29-2.48-.88-1.69-1.37-1.94-3.85-.57-5.53.51-.62,12.65-15.27,36.7-18.04,23.96-2.77,37.16,6.43,37.71,6.83,1.77,1.26,2.18,3.72.91,5.49-1.26,1.77-3.72,2.18-5.49.91-.09-.06-11.49-7.81-32.24-5.41-20.9,2.41-31.39,15.06-31.5,15.18-.78.96-1.91,1.45-3.06,1.45Z"/>
        <path class="st4" d="M510.04,151.53c-.67,0-1.34-.17-1.96-.52-1.88-1.08-2.53-3.47-1.45-5.35.46-.8,11.56-19.72,43.96-32.32,2.02-.79,4.3.22,5.09,2.24.79,2.02-.22,4.31-2.24,5.09-29.6,11.51-39.88,28.73-39.98,28.9-.73,1.26-2.05,1.96-3.41,1.96Z"/>
        <path class="st4" d="M844.91,300.18h-44.59c-2.17,0-3.93-1.76-3.93-3.93s1.76-3.93,3.93-3.93h44.59c2.17,0,3.93,1.76,3.93,3.93s-1.76,3.93-3.93,3.93Z"/>
        <path class="st4" d="M768.85,300.18h-158.25c-2.17,0-3.93-1.76-3.93-3.93s1.76-3.93,3.93-3.93h158.25c2.17,0,3.93,1.76,3.93,3.93s-1.76,3.93-3.93,3.93Z"/>
      </g>
    </g>
    <g>
      <g>
        <rect class="st16" x="1031.59" y="300.61" width="391.29" height="280.32" rx="13.82" ry="13.82"/>
        <path class="st0" d="M1405.35,583.65h-355.79c-10.52,0-19.08-8.56-19.08-19.08,0-1.5,1.22-2.72,2.72-2.72s2.72,1.22,2.72,2.72c0,7.53,6.12,13.65,13.65,13.65h355.79c7.53,0,13.65-6.12,13.65-13.65v-247.6c0-1.5,1.22-2.72,2.72-2.72s2.72,1.22,2.72,2.72v247.6c0,10.52-8.56,19.08-19.08,19.08Z"/>
        <path class="st14" d="M1406.52,300.61h-358.56c-9.04,0-16.36,7.33-16.36,16.36v12.81h391.29v-12.81c0-9.04-7.33-16.36-16.36-16.36Z"/>
        <g>
          <path class="st6" d="M1349.22,315.2c0,4.05-3.29,7.34-7.34,7.34s-7.34-3.29-7.34-7.34,3.29-7.34,7.34-7.34,7.34,3.29,7.34,7.34Z"/>
          <path class="st7" d="M1378.76,315.2c0,4.05-3.29,7.34-7.34,7.34s-7.34-3.29-7.34-7.34,3.29-7.34,7.34-7.34,7.34,3.29,7.34,7.34Z"/>
          <circle class="st8" cx="1400.96" cy="315.2" r="7.34" transform="translate(573.63 1488.89) rotate(-67.5)"/>
        </g>
        <g>
          <path class="st1" d="M1284.68,314.21h-32.02c-1.3,0-2.35-1.05-2.35-2.35s1.05-2.35,2.35-2.35h32.02c1.3,0,2.35,1.05,2.35,2.35s-1.05,2.35-2.35,2.35Z"/>
          <path class="st1" d="M1230.25,314.21h-184.07c-1.3,0-2.35-1.05-2.35-2.35s1.05-2.35,2.35-2.35h184.07c1.3,0,2.35,1.05,2.35,2.35s-1.05,2.35-2.35,2.35Z"/>
        </g>
      </g>
      <g>
        <g>
          <rect class="st9" x="1267.65" y="346.04" width="137.19" height="124.94"/>
          <rect class="st9" x="1052.06" y="494.67" width="352.79" height="20.42"/>
          <rect class="st9" x="1052.06" y="533.87" width="352.79" height="20.42"/>
        </g>
        <g>
          <rect class="st4" x="1052.06" y="346.04" width="195.18" height="124.94"/>
          <g>
            <path class="st2" d="M1115.03,445.78c-.59,0-1.18-.19-1.68-.58l-42.14-33.17c-.63-.49-1-1.24-1.03-2.03-.03-.8.29-1.57.88-2.11l42.14-38.63c1.11-1.01,2.82-.94,3.84.17,1.01,1.11.94,2.82-.17,3.84l-39.79,36.47,39.63,31.19c1.18.93,1.38,2.64.45,3.81-.54.68-1.33,1.04-2.14,1.04Z"/>
            <path class="st2" d="M1189.17,445.78c-.8,0-1.6-.36-2.14-1.04-.93-1.18-.72-2.89.45-3.81l39.63-31.19-39.79-36.47c-1.11-1.01-1.18-2.73-.17-3.84,1.01-1.11,2.73-1.18,3.84-.17l42.14,38.63c.59.54.91,1.31.88,2.11-.03.8-.41,1.54-1.03,2.03l-42.14,33.17c-.5.39-1.09.58-1.68.58Z"/>
            <path class="st2" d="M1132.78,457.29c-.35,0-.71-.07-1.05-.21-1.38-.58-2.04-2.17-1.46-3.56l38.24-91.31c.58-1.38,2.17-2.04,3.56-1.46,1.38.58,2.04,2.17,1.46,3.56l-38.24,91.31c-.44,1.04-1.44,1.67-2.51,1.67Z"/>
          </g>
        </g>
      </g>
    </g>
    <g>
      <g>
        <rect class="st10" x="109.38" y="586.43" width="143.21" height="236.25" rx="8.56" ry="8.56"/>
        <rect class="st2" x="117.74" y="595.84" width="126.49" height="202.75"/>
        <path class="st2" d="M187.26,809.61c0,3.46-2.81,6.27-6.27,6.27s-6.27-2.81-6.27-6.27,2.81-6.27,6.27-6.27,6.27,2.81,6.27,6.27Z"/>
      </g>
      <g>
        <circle class="st11" cx="181.13" cy="721.39" r="12.03"/>
        <path class="st11" d="M155.18,711.25c-.88,0-1.76-.3-2.48-.91-1.62-1.37-1.82-3.79-.45-5.41,7.21-8.51,17.73-13.39,28.87-13.39s21.65,4.87,28.85,13.37c1.37,1.62,1.17,4.04-.44,5.41-1.62,1.37-4.04,1.17-5.41-.44-5.74-6.77-14.13-10.66-23-10.66s-17.27,3.89-23.01,10.67c-.76.9-1.84,1.36-2.93,1.36Z"/>
        <path class="st11" d="M220.54,696.57c-1.03,0-2.05-.41-2.81-1.22-9.43-10.14-22.77-15.96-36.6-15.96s-26.75,5.54-36.28,15.61c-1.46,1.54-3.88,1.6-5.42.15-1.54-1.46-1.6-3.89-.15-5.42,11-11.61,25.86-18.01,41.85-18.01s31.35,6.71,42.22,18.41c1.44,1.55,1.35,3.98-.2,5.42-.74.69-1.68,1.03-2.61,1.03Z"/>
        <path class="st11" d="M130.29,680.26c-1.01,0-2.01-.39-2.77-1.18-1.47-1.53-1.42-3.96.11-5.42,14.45-13.88,33.45-21.53,53.5-21.53s38.79,7.55,53.2,21.25c1.54,1.46,1.6,3.89.14,5.42-1.46,1.54-3.89,1.6-5.42.14-12.98-12.34-30-19.13-47.92-19.13s-35.17,6.89-48.18,19.39c-.74.71-1.7,1.07-2.66,1.07Z"/>
      </g>
    </g>
  </g>
</svg>